<?xml version="1.0" standalone="no"?>
<!DOCTYPE svg PUBLIC "-//W3C//DTD SVG 1.1//EN" "http://www.w3.org/Graphics/SVG/1.1/DTD/svg11.dtd" >
<svg xmlns="http://www.w3.org/2000/svg" xmlns:xlink="http://www.w3.org/1999/xlink" version="1.1">
<metadata></metadata>
<defs>
<font id="clearviewhwy1-b" horiz-adv-x="1087" >
<font-face units-per-em="2048" ascent="1638" descent="-410" />
<missing-glyph horiz-adv-x="565" />
<glyph horiz-adv-x="0" />
<glyph unicode="&#xd;" horiz-adv-x="565" />
<glyph unicode=" "  horiz-adv-x="565" />
<glyph unicode="&#x09;" horiz-adv-x="565" />
<glyph unicode="&#xa0;" horiz-adv-x="565" />
<glyph unicode="!" horiz-adv-x="581" d="M170 119q0 64 36 100.5t85 36.5q54 0 87.5 -36.5t33.5 -100.5q0 -66 -33.5 -104.5t-87.5 -38.5q-50 0 -85.5 38t-35.5 105zM182 1414h220l-26 -1002h-168z" />
<glyph unicode="&#x22;" horiz-adv-x="777" d="M127 1484h220l-46 -459h-136zM433 1484h218l-46 -459h-134z" />
<glyph unicode="#" horiz-adv-x="1055" d="M127 530l20 173h143l21 271h-143l16 170h146l22 270h157l-22 -270h148l26 270h159l-25 -270h133l-16 -170h-137l-25 -271h145l-18 -173h-147l-23 -285h-162l26 285h-142l-24 -285h-156l23 285h-145zM444 703h149l25 271h-151z" />
<glyph unicode="$" horiz-adv-x="835" d="M113 165l67 197q54 -59 109 -91.5t114 -32.5t91 43.5t32 107.5q0 41 -4 72t-13.5 55t-23.5 43t-32 38l-153 124q-38 30 -69.5 62t-54 69.5t-35 83.5t-12.5 106q0 133 50 211.5t152 111.5v167h180v-166q45 -7 93.5 -22.5t89.5 -42.5l-60 -191q-41 41 -85 65t-103 24 q-54 0 -86 -37.5t-32 -104.5q0 -55 23.5 -95.5t67.5 -76.5l144 -114q69 -54 114.5 -134t45.5 -203q0 -154 -56.5 -239.5t-154.5 -118.5v-172h-181v170q-25 3 -55 12t-59.5 21t-57 27.5t-46.5 30.5z" />
<glyph unicode="%" horiz-adv-x="1398" d="M127 1037q0 88 14.5 161.5t42 126.5t67 82.5t91.5 29.5t92 -29.5t67 -82.5t41 -126.5t14 -161.5q0 -89 -13 -164t-39.5 -129.5t-66.5 -85t-95 -30.5t-95.5 29.5t-66.5 84t-39.5 129.5t-13.5 166zM267 1032q0 -51 3 -100t11 -88t22.5 -62.5t38.5 -23.5q23 0 37 23.5 t22.5 61.5t11.5 87.5t3 101.5t-3 102.5t-10.5 89.5t-22 63t-38.5 24t-38.5 -24t-22.5 -63t-11 -89t-3 -103zM379 0l492 1414h149l-495 -1414h-146zM846 386q0 89 13.5 163.5t39.5 128t65.5 83.5t93.5 30q52 0 92.5 -30t67.5 -83.5t40.5 -128t13.5 -163.5q0 -88 -13 -161.5 t-39 -128t-66.5 -84.5t-95.5 -30t-95.5 30t-66.5 84.5t-38 128t-12 161.5zM986 385q0 -52 2.5 -102t10.5 -88t22 -61.5t37 -23.5q24 0 38 23.5t22 61.5t10.5 88t2.5 102t-2.5 101.5t-10.5 87.5t-22 61.5t-38 23.5t-38 -23.5t-21.5 -61.5t-10 -87.5t-2.5 -101.5z" />
<glyph unicode="&#x26;" horiz-adv-x="982" d="M141 419q0 137 42.5 231t120.5 122q-68 40 -98.5 117t-30.5 186q0 89 23 157t63 114t94.5 69t119.5 23q48 0 93.5 -9.5t93.5 -33.5l-41 -174q-62 40 -132 39q-62 0 -92.5 -56t-30.5 -146q0 -61 13.5 -100t35.5 -61.5t52.5 -31t64.5 -8.5h83v190h187v-190h110v-184h-110 v-212q0 -100 -16.5 -188t-54.5 -152t-101 -101t-156 -37q-85 0 -147.5 30.5t-104 87.5t-61.5 137t-20 181zM332 430q0 -129 35 -201.5t111 -72.5q79 0 108 76t29 240v201h-151q-30 0 -54 -11t-41 -39t-27 -74.5t-10 -118.5z" />
<glyph unicode="'" horiz-adv-x="473" d="M127 1484h220l-46 -459h-133z" />
<glyph unicode="(" horiz-adv-x="521" d="M113 686q0 123 7 241t21.5 236t36 240t51.5 252l151 -45q-21 -122 -37 -236t-26.5 -226.5t-15.5 -226t-5 -236.5t5 -236.5t14.5 -224.5t26 -224t38.5 -236l-152 -48q-28 129 -49.5 249t-36.5 238t-22 237t-7 246z" />
<glyph unicode=")" horiz-adv-x="521" d="M141 -236q23 123 39.5 236t26 223.5t14.5 223.5t5 238q0 123 -5 236.5t-15.5 226t-26.5 226.5t-38 236l153 45q28 -129 49.5 -249t36.5 -238.5t22 -237t7 -244.5q0 -127 -7 -246.5t-22 -237t-36.5 -238.5t-49.5 -250z" />
<glyph unicode="*" horiz-adv-x="776" d="M127 1187l51 172l156 -86l-34 211h177l-30 -205l150 82l52 -173l-170 -25v-7l124 -145l-145 -104l-69 168l-67 -168l-140 101l119 148v7z" />
<glyph unicode="+" horiz-adv-x="930" d="M127 492v177h245v351h181v-351h250v-177h-250v-358h-181v358h-245z" />
<glyph unicode="," horiz-adv-x="485" d="M127 -272l31 505h214l-113 -505h-132z" />
<glyph unicode="-" horiz-adv-x="735" d="M170 528v215h396v-215h-396z" />
<glyph unicode="." horiz-adv-x="478" d="M127 123q0 68 33.5 104t79.5 36q48 0 79.5 -37t31.5 -103t-31 -106.5t-80 -40.5q-47 0 -80 39t-33 108z" />
<glyph unicode="/" horiz-adv-x="765" d="M71 -242l449 1775h174l-454 -1775h-169z" />
<glyph unicode="0" horiz-adv-x="994" d="M127 714q0 158 23 290.5t68 229t114.5 150t162.5 53.5q98 0 168 -53.5t116 -150t67 -229t21 -290.5q0 -153 -20 -287t-63.5 -234.5t-114.5 -158.5t-174 -58q-102 0 -172 58t-113 158.5t-63 235t-20 286.5zM332 706q0 -117 7.5 -216.5t25 -171.5t49.5 -113t81 -41 q51 0 83 41t51 113t26 171.5t7 216.5t-7 217t-26 172t-51 113t-83 41q-50 0 -81.5 -41t-49 -113t-25 -172t-7.5 -217z" />
<glyph unicode="1" horiz-adv-x="663" d="M57 1057l244 363h178v-1420h-192v1099l-117 -160z" />
<glyph unicode="2" horiz-adv-x="775" d="M71 202q103 147 180 271t127.5 229.5t75 193.5t24.5 165q0 41 -5.5 75.5t-19 60t-35.5 39.5t-55 14q-66 0 -112 -38t-87 -102l-89 163q72 81 144 122.5t163 41.5q133 0 213.5 -95t80.5 -287q0 -93 -26 -188.5t-78 -199.5t-127.5 -221.5t-174.5 -254.5h405v-191h-580z" />
<glyph unicode="3" horiz-adv-x="776" d="M57 69l62 184q54 -41 102 -66.5t103 -25.5q33 0 59 13.5t45 44t29.5 80t10.5 120.5q0 110 -33 171t-104 61h-108v183h44q40 0 73 11.5t57 37t37.5 65t13.5 96.5q0 205 -133 205q-41 0 -83 -24t-98 -68l-63 177q76 54 139.5 78.5t137.5 24.5q132 0 211.5 -93.5 t79.5 -277.5q0 -109 -33 -183.5t-110 -121.5q92 -37 129.5 -125t37.5 -227q0 -215 -84.5 -324t-236.5 -109q-76 0 -147.5 22t-137.5 71z" />
<glyph unicode="4" horiz-adv-x="882" d="M85 474l377 940h218v-918h118v-190h-118v-306h-199v306h-355zM270 496h215v586z" />
<glyph unicode="5" horiz-adv-x="797" d="M85 83l76 166q33 -31 79 -59.5t97 -28.5q41 0 69 22.5t46 64.5t25.5 100t7.5 129q0 151 -30.5 230t-102.5 79q-41 0 -80 -29t-66 -99l-106 104l64 652h467v-196h-300l-34 -299q47 42 116 43q129 0 200.5 -118.5t71.5 -356.5q0 -117 -21.5 -212t-64 -161.5t-105.5 -102 t-146 -35.5q-66 0 -137 25.5t-126 81.5z" />
<glyph unicode="6" horiz-adv-x="906" d="M127 644q0 396 93 594.5t275 198.5q64 0 113.5 -15.5t98.5 -49.5l-51 -177q-40 28 -77 44t-74 16t-68.5 -23.5t-56 -75t-39 -136t-17.5 -207.5q27 50 71.5 78t100.5 28q69 0 124.5 -31t93.5 -89.5t58.5 -143t20.5 -190.5t-22.5 -195.5t-65 -154.5t-101.5 -102t-133 -37 q-95 0 -160 49.5t-106 138.5t-59.5 211.5t-18.5 268.5zM334 458q0 -64 8.5 -117.5t25.5 -94t43 -63t60 -22.5t58 23.5t40.5 64t24 94.5t7.5 118q0 61 -7.5 113.5t-24 90.5t-40.5 60t-57 22t-58 -21.5t-43.5 -59.5t-27.5 -91t-9 -117z" />
<glyph unicode="7" horiz-adv-x="748" d="M71 1218v196h588l18 -206l-1 -4q-51 -74 -87.5 -142t-63.5 -140t-44 -152.5t-27 -180.5t-13.5 -222t-3.5 -276v-91h-202v91q0 136 7.5 285.5t34 298t78 288t140.5 255.5h-424z" />
<glyph unicode="8" horiz-adv-x="943" d="M127 409q0 132 34 216.5t118 136.5q-34 27 -57.5 57.5t-39 66.5t-22.5 81.5t-7 104.5q0 92 24.5 160.5t68 114t101.5 68t124 22.5q68 0 126.5 -22.5t101 -68t67.5 -114t25 -160.5q0 -58 -7.5 -103t-22 -82t-38 -67.5t-57.5 -57.5q82 -52 116 -136.5t34 -216.5 q0 -109 -24.5 -190.5t-70 -135t-108.5 -80.5t-141 -27t-141.5 27t-108.5 80.5t-70 135t-25 190.5zM328 406q0 -120 34 -186.5t110 -66.5t109.5 66.5t33.5 186.5q0 133 -40 194t-103 61q-64 0 -104 -61t-40 -194zM348 1047q0 -98 29.5 -157.5t93.5 -59.5t94 59.5t30 157.5 q0 102 -29 160.5t-94 58.5t-94.5 -59t-29.5 -160z" />
<glyph unicode="9" horiz-adv-x="902" d="M113 953q0 96 22.5 184t65 154.5t104 106t141.5 39.5q93 0 156 -51.5t101 -144.5t55 -222t17 -285q0 -170 -18.5 -310t-61 -239.5t-113 -154t-175.5 -54.5q-57 0 -109.5 15.5t-112.5 52.5l55 178q47 -33 84.5 -48.5t78.5 -15.5q89 0 133.5 117.5t49.5 336.5 q-28 -64 -71 -93.5t-99 -29.5q-68 0 -124 36.5t-95.5 98.5t-61.5 147t-22 182zM306 958q0 -59 7.5 -111t23 -89.5t40.5 -59t59 -21.5t58.5 22t41 60.5t25 89.5t8.5 110q0 62 -8 116t-24.5 92.5t-40.5 61.5t-56 23q-64 0 -99 -79.5t-35 -214.5z" />
<glyph unicode=":" horiz-adv-x="478" d="M127 123q0 68 33.5 104t79.5 36q50 0 80.5 -37t30.5 -103t-30.5 -106.5t-80.5 -40.5t-81.5 39t-31.5 108zM127 860q0 66 33.5 103.5t79.5 37.5q50 0 80.5 -38t30.5 -103t-30.5 -105.5t-80.5 -40.5t-81.5 39.5t-31.5 106.5z" />
<glyph unicode=";" horiz-adv-x="478" d="M127 -272l31 505h214l-113 -505h-132zM129 860q0 66 33 103.5t80 37.5q50 0 80 -38t30 -103q0 -66 -30.5 -106.5t-79.5 -40.5q-50 0 -81.5 39.5t-31.5 107.5z" />
<glyph unicode="&#x3c;" horiz-adv-x="990" d="M127 468v197l736 478v-205l-569 -369l569 -377v-202z" />
<glyph unicode="=" horiz-adv-x="852" d="M156 253v207h541v-207h-541zM156 632v207h541v-207h-541z" />
<glyph unicode="&#x3e;" horiz-adv-x="990" d="M127 -10v202l569 372l-569 374v205l736 -478v-197z" />
<glyph unicode="?" horiz-adv-x="806" d="M127 1325q66 57 127 84.5t135 27.5q141 0 215.5 -99.5t74.5 -276.5q0 -71 -10 -125.5t-27.5 -97.5t-43 -78.5t-55.5 -65.5v2l-62 -67q-16 -16 -24.5 -27t-12.5 -25t-5 -33t-1 -52v-123h-182v164q0 51 3 83.5t11.5 56t23 42.5t40.5 43l62 54q40 37 64 87t24 138 q0 47 -7 85.5t-22 67.5t-37 45.5t-53 16.5q-85 0 -171 -102zM232 123q0 68 32 104t81 36q50 0 80 -37t30 -103t-30 -106.5t-80 -40.5t-81.5 39t-31.5 108z" />
<glyph unicode="@" horiz-adv-x="1246" d="M141 673q0 190 45.5 332.5t119.5 239t171 144.5t199 48q88 0 165.5 -37t136.5 -112.5t93 -191t34 -273.5q0 -151 -25.5 -249.5t-64.5 -155t-84.5 -78.5t-83.5 -22q-16 0 -34 3.5t-35 13.5t-30.5 27.5t-21.5 46.5q-28 -45 -68.5 -67t-83.5 -22q-41 0 -75.5 17t-60 55 t-40.5 99t-15 148q0 93 16.5 174t48 140.5t78.5 93.5t108 34q75 0 106 -51l4 45h130l-42 -573v-10q0 -21 7.5 -38.5t24.5 -17.5q20 0 41 20.5t39 67.5t29 123.5t11 186.5q0 115 -21 205.5t-60.5 154t-97 97.5t-129.5 34q-95 0 -171 -49.5t-130.5 -137t-84.5 -208.5t-30 -264 q0 -151 25 -263.5t70 -187.5t109.5 -112t143.5 -37q81 0 146.5 41.5t125.5 113.5l51 -114q-68 -83 -157 -118.5t-176 -35.5q-98 0 -181 37.5t-144.5 122.5t-96.5 223t-35 337zM526 622q0 -168 69 -168q28 0 47 15t31 41t17.5 60.5t8.5 73.5l12 149v2q1 10 2 18v19 q0 50 -15.5 83t-61.5 33q-57 0 -83.5 -83t-26.5 -243z" />
<glyph unicode="A" horiz-adv-x="958" d="M71 0l285 1419h245l287 -1419h-216l-64 342h-263l-64 -342h-210zM372 529h211l-106 636z" />
<glyph unicode="B" horiz-adv-x="990" d="M184 0v1404q68 13 136.5 19.5t161.5 6.5q76 0 140 -21.5t110 -68t71.5 -120t25.5 -176.5q0 -107 -31 -184.5t-105 -116.5q47 -16 79.5 -50t53 -80t29 -100t8.5 -111q0 -402 -330 -402h-349zM385 178q27 -3 52 -3h54q50 0 82 11.5t51.5 38.5t27 72t7.5 113t-10 113.5 t-30.5 72t-52 38t-74.5 11.5h-56q-27 0 -51 -3v-464zM385 813h5q20 -1 43.5 -2t40.5 -1q40 0 69.5 11t48.5 35t28 65t9 103q0 102 -32.5 162t-114.5 60q-25 0 -49 -2t-48 -5v-426z" />
<glyph unicode="C" horiz-adv-x="910" d="M127 709q0 132 20 261.5t68 233.5t126 168.5t195 64.5q93 0 162 -48t134 -140l-122 -163q-45 76 -83.5 117.5t-93.5 41.5q-54 0 -91 -42t-60.5 -114t-34 -170.5t-10.5 -209.5q0 -52 2.5 -112t10.5 -120t21.5 -115.5t36 -99t54.5 -69t75 -25.5q59 0 105.5 43.5t95.5 125.5 l102 -160v-9q-24 -37 -55 -71.5t-70.5 -61.5t-86.5 -43t-100 -16q-113 0 -190.5 61t-124 162.5t-66.5 234t-20 275.5z" />
<glyph unicode="D" horiz-adv-x="1021" d="M184 0v1406q61 11 136.5 17.5t150.5 6.5q116 0 197.5 -56.5t131 -154t72 -227.5t22.5 -279q0 -161 -24 -292.5t-77 -225t-138.5 -144.5t-207.5 -51h-263zM385 185q8 -1 17 -1h18h44q62 0 104.5 36.5t68 105.5t37 169.5t11.5 227.5q0 122 -11.5 218.5t-36.5 164.5t-65 104 t-97 36q-23 0 -44.5 -1.5t-45.5 -5.5v-1054z" />
<glyph unicode="E" horiz-adv-x="813" d="M184 0v1414h518v-188h-317v-393h283v-188h-283v-457h329v-188h-530z" />
<glyph unicode="F" horiz-adv-x="777" d="M184 0v1414h509v-188h-308v-393h274v-188h-274v-645h-201z" />
<glyph unicode="G" horiz-adv-x="999" d="M127 706q0 82 8 167.5t27 167t49.5 153.5t75.5 125.5t106.5 85.5t142.5 32q89 0 159 -46t131 -124l-115 -168q-20 31 -39.5 57t-40.5 46t-45 31.5t-53 11.5q-47 0 -79.5 -28t-54 -73t-34.5 -103t-19.5 -117.5t-7.5 -116t-1 -98.5q0 -52 1 -113t7 -122t18 -118.5t34 -101 t53.5 -70t78.5 -26.5q57 0 87 34t44.5 90t16.5 126t2 142v31h-149v188h343v-128q0 -74 -3.5 -151.5t-15.5 -152t-35 -139.5t-61 -114.5t-95.5 -78.5t-136.5 -29t-139 32t-104.5 85.5t-74.5 125.5t-47.5 153.5t-25.5 167t-8 166.5z" />
<glyph unicode="H" horiz-adv-x="1045" d="M184 0v1414h201v-581h276v581h200v-1414h-200v645h-276v-645h-201z" />
<glyph unicode="I" horiz-adv-x="568" d="M184 0v1414h201v-1414h-201z" />
<glyph unicode="J" horiz-adv-x="743" d="M85 54l68 175q37 -30 66.5 -45.5t59.5 -15.5q51 0 65.5 43.5t14.5 120.5v1082h201v-1093q0 -170 -65 -258t-198 -88q-120 0 -212 79z" />
<glyph unicode="K" horiz-adv-x="941" d="M184 0v1414h201v-613l247 613h224l-266 -619l295 -795h-232l-199 593l-69 -135v-458h-201z" />
<glyph unicode="L" horiz-adv-x="759" d="M184 0v1414h201v-1226h290v-188h-491z" />
<glyph unicode="M" horiz-adv-x="1179" d="M184 0v1414h202l204 -529l203 529h203v-1414h-194v969l-212 -546l-215 549v-972h-191z" />
<glyph unicode="N" horiz-adv-x="1106" d="M184 0v1414h198l348 -896v896h192v-1414h-179l-367 907v-907h-192z" />
<glyph unicode="O" d="M127 709q0 157 23.5 290.5t73.5 230.5t128.5 152t189.5 55q109 0 188 -55t130 -152t75.5 -230.5t24.5 -290.5q0 -158 -24.5 -293t-75.5 -232.5t-130 -152.5t-188 -55t-187.5 55t-129 152.5t-74.5 232t-24 293.5zM337 710q0 -123 10.5 -223.5t35 -172.5t64.5 -111t99 -39 q57 0 96.5 40.5t63.5 112.5t34.5 172.5t10.5 220.5q0 122 -10.5 221.5t-35.5 170.5t-65 109t-98 38t-97 -39.5t-63 -110.5t-34.5 -170.5t-10.5 -218.5z" />
<glyph unicode="P" horiz-adv-x="932" d="M184 0v1406q4 1 12.5 2t12.5 2q64 7 123.5 13t139.5 6q88 0 155 -25t113 -79.5t69.5 -141.5t23.5 -211q0 -233 -79 -345t-258 -112h-111v-515h-201zM385 700h93q45 0 75 15.5t47 49t23 85t6 122.5q0 143 -30 208t-112 65q-25 0 -49 -3t-53 -7v-535z" />
<glyph unicode="Q" d="M127 710q0 157 24 290t74.5 230t129 152t187.5 55t188 -54.5t130 -151.5t75.5 -230.5t24.5 -290.5q0 -98 -9 -189t-29.5 -170t-52.5 -146.5t-78 -115.5q14 -7 23 -16t18 -21q13 -17 32.5 -35t60.5 -34l-68 -182q-64 16 -104 53t-71 72q-20 23 -37 39.5t-28 16.5h-7 q-3 0 -10 -2q-8 -1 -19 -2.5t-22 -1.5q-113 0 -194.5 52.5t-134.5 148t-78 231t-25 302.5zM337 710q0 -126 10.5 -226.5t35 -171t64.5 -109t99 -38.5q57 0 96.5 38.5t63.5 109t34.5 171t10.5 226.5q0 122 -10.5 221.5t-35.5 170.5t-65 109t-98 38t-97 -39.5t-63 -110.5 t-34.5 -170t-10.5 -219z" />
<glyph unicode="R" horiz-adv-x="966" d="M184 0v1406q85 13 152 18t145 5q180 0 271.5 -107t91.5 -314q0 -146 -39.5 -230t-110.5 -127q13 -8 19.5 -26t12.5 -39l127 -586h-209l-101 502q-7 37 -15 56t-24 19h-119v-577h-201zM385 758h116q72 0 106 56t34 183q0 45 -6.5 89.5t-23.5 80t-48 57.5t-81 22 q-25 0 -48.5 -1.5t-48.5 -5.5v-481z" />
<glyph unicode="S" horiz-adv-x="833" d="M85 85l62 198q58 -54 116 -90.5t126 -36.5q30 0 57.5 12t48.5 38t34 67.5t13 99.5q0 62 -17 108.5t-44.5 81.5t-64 62.5t-74.5 53.5q-42 27 -81.5 58.5t-71 75t-50.5 102t-19 140.5q0 89 25 160t66.5 119.5t96.5 74t118 25.5q78 0 143.5 -20.5t126.5 -72.5l-47 -197 q-54 59 -101 83.5t-102 24.5q-59 0 -96 -43.5t-37 -129.5q0 -48 12 -82.5t33 -61t48.5 -47.5t58.5 -41q47 -30 94.5 -68t86.5 -90.5t63.5 -121.5t24.5 -162q0 -211 -88.5 -320t-242.5 -109q-103 0 -177.5 26t-140.5 83z" />
<glyph unicode="T" horiz-adv-x="728" d="M57 1226v188h615v-188h-207v-1226h-201v1226h-207z" />
<glyph unicode="U" horiz-adv-x="1059" d="M184 563v851h201v-908q0 -89 6 -153t22.5 -106t45 -62t71.5 -20q44 0 72.5 20t44 62t22 106t6.5 153v908h200v-851q0 -144 -14 -254t-52 -184t-105.5 -111.5t-173.5 -37.5q-105 0 -171 37.5t-105.5 111.5t-54.5 184t-15 254z" />
<glyph unicode="V" horiz-adv-x="912" d="M71 1414h215l168 -1134l175 1134h213l-264 -1414h-250z" />
<glyph unicode="W" horiz-adv-x="1345" d="M99 1414h212l103 -1096l170 1096h180l172 -1084l99 1084h211l-185 -1414h-236l-156 955l-144 -955h-235z" />
<glyph unicode="X" horiz-adv-x="875" d="M57 0l263 734l-237 680h225l142 -483l140 483h215l-236 -696l250 -718h-214l-165 515l-161 -515h-222z" />
<glyph unicode="Y" horiz-adv-x="865" d="M57 1414h213l161 -632l173 632h205l-276 -877v-537h-201v529z" />
<glyph unicode="Z" horiz-adv-x="759" d="M85 0v178l366 1044h-344v192h558v-176l-365 -1050h375v-188h-590z" />
<glyph unicode="[" horiz-adv-x="543" d="M99 -253v1882h303v-159h-123v-1565h123v-158h-303z" />
<glyph unicode="\" horiz-adv-x="765" d="M71 1533l454 -1775h169l-449 1775h-174z" />
<glyph unicode="]" horiz-adv-x="547" d="M141 -95h125v1565h-125v159h307v-1882h-307v158z" />
<glyph unicode="^" horiz-adv-x="809" d="M71 1222l331 236l336 -236l-97 -127l-235 165l-241 -165z" />
<glyph unicode="_" horiz-adv-x="758" d="M85 -158h588v-164h-588v164z" />
<glyph unicode="`" horiz-adv-x="534" d="M95 1454l167 102l202 -229l-103 -72z" />
<glyph unicode="a" horiz-adv-x="940" d="M127 327q0 115 37 195.5t98.5 130.5t142 73.5t169.5 24.5v126q0 24 -4 46t-15.5 39t-31 27t-49.5 10q-68 0 -131 -29t-127 -75l-45 180q76 50 152 74t162 24q82 0 137 -21.5t88 -64t47 -107.5t14 -153v-581q0 -57 6.5 -90.5t35.5 -59.5l-123 -113q-41 14 -67 43t-36 67 q-41 -54 -90.5 -82t-118.5 -28q-61 0 -108 25t-78.5 70.5t-48 108.5t-16.5 140zM321 337q0 -81 23.5 -134t75.5 -53q35 0 74 17.5t80 75.5v355q-133 -3 -193 -68.5t-60 -192.5z" />
<glyph unicode="b" horiz-adv-x="960" d="M170 0v1535h196v-449q33 47 74 67t93 20q150 0 225 -154t75 -443q0 -107 -15 -213.5t-49.5 -190.5t-91 -136.5t-140.5 -52.5q-59 0 -107 30.5t-78 88.5l-8 -102h-174zM366 427q0 -52 6.5 -101t22 -87t40.5 -60.5t61 -22.5q38 0 64.5 32.5t42 89t22 132.5t6.5 164 q0 98 -5 176.5t-20 134.5t-41 86t-69 30q-65 0 -97.5 -64t-32.5 -185v-325z" />
<glyph unicode="c" horiz-adv-x="787" d="M127 583q0 107 17 212.5t59 189t111 136t174 52.5q66 0 121.5 -22t113.5 -72l-81 -174q-41 51 -76.5 72.5t-76.5 21.5q-55 0 -86.5 -39t-48 -100t-20.5 -134.5t-4 -141.5t4 -143t21 -138.5t50 -105t90 -41.5q45 0 85.5 24t81.5 65l69 -166q-61 -52 -123.5 -74t-135.5 -22 q-102 0 -169 52.5t-106 137t-54.5 192t-15.5 218.5z" />
<glyph unicode="d" horiz-adv-x="957" d="M127 576q0 290 74.5 443.5t224.5 153.5q54 0 93.5 -20t71.5 -67v449h197v-1535h-178l-5 103q-37 -65 -81.5 -92.5t-107.5 -27.5q-83 0 -138.5 52.5t-88.5 136.5t-47.5 190t-14.5 214zM330 574q0 -88 6 -164t21 -132.5t40.5 -89t64.5 -32.5q40 0 65 23t39 60t19.5 82 t5.5 91v340q0 120 -31 183.5t-98 63.5q-41 0 -67 -30t-41 -85t-19.5 -133.5t-4.5 -176.5z" />
<glyph unicode="e" horiz-adv-x="926" d="M127 578q0 154 25.5 267t71.5 185.5t109.5 107.5t141.5 35q71 0 130.5 -30t102.5 -99.5t67 -181t24 -275.5q0 -18 -1.5 -42.5t-2.5 -42.5h-465q1 -171 41.5 -258.5t123.5 -87.5q51 0 99 21t95 66l71 -167q-65 -50 -133 -71.5t-142 -21.5q-358 0 -358 595zM330 661h277 q0 66 -6.5 128t-21.5 109.5t-40.5 76t-66.5 28.5q-76 0 -109 -85.5t-33 -256.5z" />
<glyph unicode="f" horiz-adv-x="603" d="M85 958v183h105v70q0 88 9.5 151.5t36 104.5t73 60.5t120.5 19.5q21 0 52 -3.5t52 -8.5v-172q-6 1 -16.5 3.5t-22.5 4t-22 2t-15 0.5q-47 0 -59 -23t-12 -74v-135h140v-183h-140v-958h-196v958h-105z" />
<glyph unicode="g" horiz-adv-x="963" d="M127 576q0 109 13.5 215.5t47 191.5t91.5 137.5t147 52.5q59 0 102 -25.5t75 -79.5l7 88h183v-1159q0 -88 -9.5 -167.5t-41.5 -141t-93 -98.5t-164 -37q-86 0 -166 24t-146 65l65 187q55 -41 110 -61.5t129 -20.5q35 0 58.5 10t37 34.5t19 64t5.5 99.5v160 q-31 -54 -76.5 -79.5t-100.5 -25.5q-64 0 -117.5 33t-92.5 103t-61 176.5t-22 253.5zM330 584q0 -51 3.5 -119t17.5 -130t39.5 -105t70.5 -43q48 0 75.5 34.5t41 85.5t17 107t3.5 98v222q0 44 -5.5 90.5t-20.5 85.5t-41 64t-66 25t-66 -30.5t-41.5 -86t-21.5 -131.5t-6 -167 z" />
<glyph unicode="h" horiz-adv-x="974" d="M170 0v1535h196v-449q34 50 83 68.5t105 18.5q78 0 127 -30t76.5 -89.5t37.5 -149t10 -211.5v-693h-197v710q0 57 -2 107.5t-12 89t-32.5 61t-62.5 22.5t-65 -20t-40 -56.5t-21.5 -87.5t-6.5 -113v-713h-196z" />
<glyph unicode="i" horiz-adv-x="550" d="M156 1445q0 59 31.5 95t88.5 36q55 0 87 -36t32 -95q0 -62 -32 -97t-87 -35q-57 0 -88.5 35t-31.5 97zM177 0v1156h196v-1156h-196z" />
<glyph unicode="j" horiz-adv-x="550" d="M0 -239q28 -6 47 -6.5t31 -0.5q59 0 79 40.5t20 114.5v1247h195v-1136q0 -95 -8 -178.5t-35.5 -146.5t-82 -99t-147.5 -36q-24 0 -47.5 3t-51.5 8v190zM156 1445q0 59 31.5 95t88.5 36q55 0 87 -36t32 -95q0 -62 -32 -97t-87 -35q-57 0 -88.5 35t-31.5 97z" />
<glyph unicode="k" horiz-adv-x="868" d="M170 0v1535h196v-873l212 494h208l-219 -488l231 -668h-214l-153 475l-66 -136v-339h-195z" />
<glyph unicode="l" horiz-adv-x="554" d="M170 240v1295h196v-1255q0 -34 3 -54.5t11 -31t21 -14t35 -3.5h34v-170l-9 -7q-24 -7 -54.5 -10t-54.5 -3q-51 0 -86 13t-56.5 42t-30.5 77.5t-9 120.5z" />
<glyph unicode="m" horiz-adv-x="1387" d="M170 0v1156h181l4 -88q34 54 80.5 79.5t110.5 25.5q66 0 116.5 -28t81.5 -101q20 40 43 65t51 39.5t58 19.5t63 5q69 0 118 -25t80 -79.5t46 -140.5t15 -210v-718h-197v706q0 65 -2 118t-11 89.5t-30.5 56.5t-59.5 20q-71 0 -98.5 -68t-27.5 -187v-735h-197v706 q0 64 -2 116.5t-11 89.5t-30.5 57.5t-59.5 20.5q-72 0 -99 -67t-27 -188v-735h-196z" />
<glyph unicode="n" horiz-adv-x="974" d="M170 0v1156h177l8 -87q37 58 86.5 81t112.5 23q78 0 127 -29t76.5 -88t37.5 -148.5t10 -211.5v-696h-197v741q0 58 -2 103.5t-12 77t-32.5 48.5t-62.5 17t-65 -19.5t-40 -56t-21.5 -86.5t-6.5 -112v-713h-196z" />
<glyph unicode="o" horiz-adv-x="944" d="M127 578q0 284 84.5 439.5t259.5 155.5q174 0 260.5 -155.5t86.5 -439.5q0 -141 -21.5 -252t-65.5 -187.5t-109 -116t-151 -39.5q-175 0 -259.5 155.5t-84.5 439.5zM330 574q0 -96 4.5 -172.5t19.5 -131t43.5 -83.5t73.5 -29q44 0 72 30t44.5 83.5t22 130.5t5.5 172 q0 74 -3.5 148t-17.5 133.5t-43 97t-80 37.5t-79.5 -37.5t-41.5 -97t-16.5 -133.5t-3.5 -148z" />
<glyph unicode="p" horiz-adv-x="960" d="M170 -431v1587h181l7 -84q31 54 76 77.5t102 23.5q62 0 108 -28t79.5 -74.5t54.5 -108t33 -127.5t17 -132.5t5 -124.5q0 -57 -5 -123t-18.5 -132t-35.5 -127.5t-54.5 -108.5t-77.5 -75.5t-106 -28.5q-52 0 -95.5 17.5t-74.5 63.5v-495h-196zM366 438q0 -42 4.5 -91.5 t18 -92t39 -70.5t67.5 -28q34 0 56.5 22.5t38 59t23.5 82.5t12 93t5 89.5t1 73.5v77q0 55 -5 116t-20 112t-42.5 84.5t-72.5 33.5q-42 0 -67 -25t-38 -64t-16.5 -86.5t-3.5 -92.5v-293z" />
<glyph unicode="q" horiz-adv-x="966" d="M127 578q0 105 14.5 211t47.5 191t89.5 139t141.5 54q62 0 106 -23.5t75 -77.5l9 84h183v-1296q0 -41 1 -69.5t6.5 -49.5t17.5 -35t35 -27l-127 -154q-47 20 -72.5 51.5t-38 72t-15.5 86.5t-3 95v245q-30 -50 -74 -71t-99 -21q-72 0 -128 42.5t-93.5 120t-56.5 188 t-19 244.5zM330 574q0 -82 5.5 -157.5t20.5 -133.5t41 -92.5t68 -34.5t68 31t40 77t18 98t4 96v273q0 127 -29 197.5t-98 70.5q-44 0 -70.5 -29t-41.5 -84.5t-20.5 -134t-5.5 -177.5z" />
<glyph unicode="r" horiz-adv-x="680" d="M170 0v1156h185l6 -97q58 113 178 114h56v-220h-63q-79 0 -122.5 -53.5t-43.5 -186.5v-713h-196z" />
<glyph unicode="s" horiz-adv-x="769" d="M85 81l75 167q20 -18 45.5 -37t53 -33.5t54 -24t49.5 -9.5q74 0 105 44.5t31 117.5q0 38 -13.5 68.5t-37.5 57t-56.5 50t-70.5 48.5t-76 56t-67.5 70.5t-48 90.5t-18.5 117q0 82 25 141t66 96.5t95.5 54.5t112.5 17q66 0 132.5 -14.5t120.5 -51.5l-47 -179 q-45 41 -94 58.5t-97 17.5q-55 0 -91.5 -35.5t-36.5 -98.5q0 -34 12 -61t31.5 -50.5t46 -43t54.5 -36.5q41 -25 85 -57t79 -74.5t58 -98t23 -127.5q0 -91 -23 -155t-63 -105t-98 -60t-128 -19q-83 0 -156.5 25t-131.5 73z" />
<glyph unicode="t" horiz-adv-x="596" d="M57 958v183h118v313h188v-313h149v-183h-149v-684q0 -34 3 -54.5t12.5 -31.5t25.5 -15.5t42 -4.5h63v-161l-10 -7q-21 -4 -59 -6t-74 -2q-65 0 -104.5 19t-60.5 60t-27.5 104.5t-6.5 154.5v628h-110z" />
<glyph unicode="u" horiz-adv-x="973" d="M170 402v754h196v-732q0 -51 3.5 -97.5t14.5 -81t32 -56t55 -21.5t59.5 14.5t42.5 46t25.5 83t8.5 126.5v718h196v-1156h-188l-5 88q-41 -59 -92 -82t-115 -23q-66 0 -110.5 24t-72.5 75t-39 130t-11 190z" />
<glyph unicode="v" horiz-adv-x="828" d="M71 1156h206l142 -928l141 928h198l-213 -1156h-251z" />
<glyph unicode="w" horiz-adv-x="1267" d="M85 1156h201l102 -859l147 859h200l145 -853l103 853h199l-171 -1156h-242l-135 779l-140 -779h-239z" />
<glyph unicode="x" horiz-adv-x="804" d="M57 0l213 601l-191 555h211l117 -394l119 394h201l-194 -549l215 -607h-213l-138 438l-137 -438h-203z" />
<glyph unicode="y" horiz-adv-x="828" d="M71 1156h206l142 -886l138 886h201l-250 -1247q-16 -79 -35.5 -144.5t-50 -112.5t-73.5 -73t-103 -26q-30 0 -57.5 1.5t-59.5 11.5v186q20 -6 41 -7.5t35 -1.5q40 0 58 21.5t31 89.5l21 109z" />
<glyph unicode="z" horiz-adv-x="711" d="M99 0v171l306 801h-292v184h491v-190l-297 -782h305v-184h-513z" />
<glyph unicode="{" horiz-adv-x="571" d="M71 590v172q41 13 55.5 55.5t14.5 115.5v405q0 89 12 145.5t37 89t64 44.5t93 12h83v-159h-37q-24 0 -38 -6t-22 -24.5t-10 -51t-2 -84.5v-400q0 -42 -2 -74t-9 -57.5t-20 -48t-34 -48.5q21 -25 34 -48t20 -48.5t9 -57t2 -74.5v-382q0 -54 2 -85.5t10 -50t22 -24t38 -5.5 h37v-158h-83q-54 0 -93 12t-64 43.5t-37 87.5t-12 145v385q0 75 -12.5 117.5t-57.5 56.5z" />
<glyph unicode="|" horiz-adv-x="497" d="M177 -462v1946h144v-1946h-144z" />
<glyph unicode="}" horiz-adv-x="572" d="M141 -99h39q23 0 37 5.5t21.5 24t9.5 50.5t2 85v382q0 42 2.5 74t9.5 57.5t19.5 48.5t33.5 48q-21 25 -33.5 48t-19.5 48.5t-9.5 57t-2.5 74.5v400q0 52 -2 84.5t-9.5 51t-22 24.5t-36.5 6h-39v159h87q52 0 91 -12t63.5 -44.5t36.5 -89t12 -145.5v-405q0 -74 14.5 -116 t56.5 -55v-168l-7 -7q-41 -13 -52.5 -55.5t-11.5 -115.5v-385q0 -89 -12 -145t-36.5 -87.5t-63.5 -43.5t-91 -12h-87v158z" />
<glyph unicode="~" horiz-adv-x="896" d="M85 1205q21 48 42.5 80.5t46 52.5t54 27.5t68.5 7.5q44 0 83.5 -14t75.5 -31q34 -16 67.5 -29t64.5 -13q28 0 51.5 22t44.5 74l123 -68l6 -9q-28 -82 -82.5 -125t-126.5 -43q-45 0 -85.5 15t-79.5 33q-35 16 -67.5 28.5t-60.5 12.5q-34 0 -54.5 -19t-43.5 -78z" />
<glyph horiz-adv-x="1024" />
<glyph unicode="&#xa1;" horiz-adv-x="595" d="M177 1018q0 64 36 101t85 37q54 0 87.5 -37t33.5 -101q0 -66 -33.5 -104.5t-87.5 -38.5q-50 0 -85.5 38.5t-35.5 104.5zM195 -283l26 1001h158l27 -1001h-211z" />
<glyph unicode="&#xa2;" horiz-adv-x="797" d="M127 718q0 86 11.5 171t39 157.5t75 126t118.5 79.5v164h164v-157q50 -8 86.5 -29.5t74.5 -54.5l-64 -195q-41 42 -75 68t-79 26q-51 0 -80.5 -37t-45 -91.5t-20 -116.5t-4.5 -113t5 -113.5t21.5 -117.5t46.5 -92t81 -37q45 0 86.5 28t82.5 67l62 -188l-4 -8 q-45 -37 -83.5 -57.5t-90.5 -27.5v-170h-164v175q-74 23 -120.5 79t-74 131t-38.5 162t-11 171z" />
<glyph unicode="&#xa3;" horiz-adv-x="775" d="M127 0v192h30q48 0 64.5 58t16.5 152q0 41 -3 81t-6 81q-3 25 -5 51t-3 50h-94v188h78q-1 14 -2.5 26.5t-3.5 28.5q-4 51 -7.5 102t-3.5 102q0 86 18.5 147.5t54 100.5t84 56.5t110.5 17.5q113 0 227 -72l-34 -214q-38 41 -79 63t-82 22q-57 0 -79 -42.5t-22 -124.5 q0 -54 3.5 -106.5t9.5 -106.5h174v-188h-157q1 -11 2.5 -21t2.5 -22q7 -58 12 -115t5 -117q0 -61 -5.5 -103t-20.5 -81h285v-206h-570z" />
<glyph unicode="&#xa4;" horiz-adv-x="964" d="M78 470l35 154h79v35v95v37h-101l35 151h79q11 99 37.5 189t70 157.5t108 108t152.5 40.5q93 0 162.5 -49t132.5 -141l-123 -155q-45 78 -84 113t-94 35q-72 0 -109 -76t-53 -222h326l-34 -151h-302v-129v-38h292l-31 -154h-251q6 -57 17.5 -110t31.5 -95t49 -66.5 t70 -24.5q59 0 106 40.5t96 122.5l105 -164q-24 -38 -56 -73.5t-71.5 -63.5t-87 -44t-101.5 -16q-85 0 -147 38t-106 105.5t-69.5 157t-36.5 193.5h-127z" />
<glyph unicode="&#xa5;" horiz-adv-x="850" d="M57 1414h200l172 -632l166 632h198l-182 -595h139v-167h-193l-29 -93v-108h222v-170h-222v-281h-201v281h-221v170h221v102l-31 99h-190v167h134z" />
<glyph unicode="&#xa6;" horiz-adv-x="499" d="M177 369h145v-831h-145v831zM177 652v832h145v-832h-145z" />
<glyph unicode="&#xa7;" horiz-adv-x="794" d="M127 617q0 47 11 88.5t31.5 73t50.5 53t70 27.5q-72 44 -111 111t-39 167q0 75 20 131t55 93.5t83.5 56.5t106.5 19t112 -16.5t121 -57.5l-44 -192q-45 37 -86 57.5t-79 20.5t-62.5 -25t-24.5 -80q0 -41 20 -78.5t84 -82.5h-2q11 -7 21 -13.5t20 -13.5q14 -10 27.5 -19 t29.5 -19q59 -41 92.5 -103.5t33.5 -168.5q0 -44 -8 -86t-27 -78t-49.5 -61.5t-75.5 -35.5q75 -47 117.5 -127.5t42.5 -172.5q0 -82 -18 -138.5t-51 -92.5t-82 -52.5t-111 -16.5q-75 0 -138.5 30.5t-124.5 88.5l56 188q54 -59 103.5 -92t102.5 -33q41 0 62.5 23t21.5 86 q0 27 -5.5 47.5t-19.5 40.5t-36.5 40.5t-56.5 48.5l-37 30q-13 10 -25.5 20.5t-27.5 21.5q-30 25 -57 51.5t-49 60t-35 77t-13 103.5zM298 621q0 -72 28 -102.5t77 -30.5q50 0 76 30.5t26 102.5q0 71 -26 100.5t-76 29.5t-77.5 -29t-27.5 -101z" />
<glyph unicode="&#xa8;" horiz-adv-x="705" d="M91 1397q0 52 30 87.5t74 35.5q45 0 75 -35.5t30 -87.5q0 -25 -8 -47t-22 -39t-33 -27t-42 -10q-21 0 -40 10t-33.5 27t-22.5 39t-8 47zM427 1397q0 52 32 87.5t76 35.5q45 0 74 -35.5t29 -87.5q0 -50 -30 -86.5t-73 -36.5q-21 0 -41 10t-35 27t-23.5 39t-8.5 47z" />
<glyph unicode="&#xa9;" horiz-adv-x="1436" d="M127 709q0 151 47 284.5t126.5 233.5t188 157t231.5 57q122 0 229.5 -57t187 -157t126.5 -233.5t47 -284.5q0 -153 -47 -286.5t-126.5 -233.5t-187 -157t-229.5 -57q-123 0 -231.5 57t-188 157t-126.5 233.5t-47 286.5zM221 710q0 -130 38.5 -244t106.5 -199 t159.5 -134.5t194.5 -49.5t193.5 49.5t158 134.5t106 199t38.5 244t-38.5 244t-106 199t-158 134.5t-193.5 49.5t-194.5 -49.5t-159.5 -134.5t-106.5 -199t-38.5 -244zM379 713q0 110 23.5 198t68 148.5t108 93t145.5 32.5q157 0 272 -134l-84 -132q-89 113 -182 113 q-197 0 -197 -322q0 -325 200 -325q50 0 97 26.5t101 86.5l66 -127l-1 -8q-61 -68 -124 -99t-142 -31q-86 0 -152 35t-110 97t-66.5 150.5t-22.5 197.5z" />
<glyph unicode="&#xaa;" horiz-adv-x="756" d="M127 972q0 66 23 112t65 75.5t102.5 43t133.5 15.5v5q0 50 -12 70.5t-60 20.5q-38 0 -86 -16.5t-112 -59.5l-42 125q66 45 124 64.5t123 19.5q113 0 159 -56.5t46 -186.5v-246q0 -30 6 -45t32 -36l-79 -105q-34 10 -53.5 25.5t-31.5 39.5q-75 -64 -165 -63 q-78 0 -125.5 53.5t-47.5 144.5zM266 982q0 -42 16.5 -66.5t44.5 -24.5q25 0 55 13.5t69 44.5v157q-98 -3 -141.5 -34t-43.5 -90z" />
<glyph unicode="&#xab;" horiz-adv-x="889" d="M127 645l164 429l147 -91l-130 -339l130 -340l-147 -89zM454 645l163 429l145 -91l-130 -339l130 -340l-145 -89z" />
<glyph unicode="&#xad;" horiz-adv-x="735" d="M170 528v215h396v-215h-396z" />
<glyph unicode="&#xae;" horiz-adv-x="917" d="M156 1119q0 76 24 142.5t65 116t96 78t119 28.5q62 0 117 -28.5t96 -78t65 -116t24 -142.5q0 -75 -24 -140t-65 -114.5t-96 -78t-117 -28.5q-64 0 -119 28.5t-96 78t-65 114.5t-24 140zM222 1122q0 -62 18.5 -115.5t51 -93t75.5 -62t94 -22.5q48 0 90.5 22.5t73.5 62 t49.5 92.5t18.5 116q0 59 -18.5 112.5t-49.5 93.5t-73.5 63t-90.5 23q-51 0 -94 -23t-75.5 -63t-51 -93.5t-18.5 -112.5zM332 922v403q41 6 72.5 6.5t56.5 0.5q27 0 52.5 -5t45 -19.5t32.5 -41t13 -67.5q0 -69 -47 -104q3 -11 11 -32.5t16 -45.5q11 -33 20.5 -62.5 t9.5 -32.5h-105l-45 136q-1 6 -2 7v3h-32v-146h-98zM429 1151h38q41 0 41 43q0 25 -10.5 36.5t-36.5 11.5h-25h-7v-91z" />
<glyph unicode="&#xaf;" horiz-adv-x="719" d="M191 1318v163h414v-163h-414z" />
<glyph unicode="&#xb0;" horiz-adv-x="816" d="M127 1116q0 71 23 133t61 108.5t89 73.5t107 27q57 0 108.5 -27t90 -73.5t61 -108.5t22.5 -133t-22.5 -133t-61 -109t-90 -73.5t-108.5 -26.5t-107.5 26.5t-88.5 73.5t-61 109t-23 133zM226 1116q0 -50 14.5 -92t38.5 -74t57 -50.5t71 -18.5t71.5 18.5t57.5 50.5t38 74 t14 92q0 48 -14 91t-38 75t-57 50.5t-72 18.5q-38 0 -71 -18.5t-57 -50.5t-38.5 -75t-14.5 -91z" />
<glyph unicode="&#xb1;" horiz-adv-x="930" d="M127 677v177h245v351h181v-351h250v-177h-250v-357h-181v357h-245zM129 0v177h674v-177h-674z" />
<glyph unicode="&#xb2;" horiz-adv-x="586" d="M85 1455q41 52 94 84t111 32q93 0 145.5 -61.5t52.5 -184.5q0 -54 -16.5 -108t-47.5 -113t-74.5 -124.5t-100.5 -140.5h238v-146h-377l-21 144q64 86 110.5 157t76.5 129.5t44.5 105.5t14.5 86q0 45 -17 73t-49 28q-28 0 -54.5 -20.5t-63.5 -65.5z" />
<glyph unicode="&#xb3;" horiz-adv-x="588" d="M85 750l51 135q42 -34 72 -47t59 -13q33 0 53.5 29.5t20.5 93.5q0 61 -20.5 94t-57.5 33h-72v140h52q44 0 63 25.5t19 89.5q0 55 -17 77.5t-49 22.5q-23 0 -49 -10t-69 -49l-53 131q58 37 100.5 54.5t88.5 17.5q89 0 142 -60t53 -172q0 -57 -17.5 -105.5t-54.5 -80.5 q48 -25 68.5 -82t20.5 -131q0 -61 -15.5 -109t-44.5 -82t-68 -52t-85 -18q-54 0 -100 15.5t-91 52.5z" />
<glyph unicode="&#xb4;" horiz-adv-x="534" d="M91 1332l203 227l166 -104l-266 -193z" />
<glyph unicode="&#xb5;" horiz-adv-x="973" d="M170 -475h193v498q16 -20 41.5 -30t52.5 -10q51 0 87.5 22.5t65.5 82.5l5 -88h188v1156h-196v-718q0 -75 -9 -127q-8 -51 -25 -82.5t-42.5 -46t-59.5 -14.5t-55 22q-21 21 -32 55.5t-14.5 81t-3.5 97.5v732h-196v-1631z" />
<glyph unicode="&#xb6;" horiz-adv-x="869" d="M141 536q0 110 30 207t88 169t145.5 114t202.5 42h86v-1068h-86q-115 0 -202.5 41t-145.5 113t-88 170.5t-30 211.5z" />
<glyph unicode="&#xb7;" horiz-adv-x="478" d="M127 655q0 68 33.5 104t79.5 36q48 0 79.5 -37t31.5 -103t-31 -106.5t-80 -40.5q-47 0 -80 39t-33 108z" />
<glyph unicode="&#xb8;" horiz-adv-x="644" d="M206 -407l46 90q16 -16 35 -25.5t34 -9.5q18 0 31.5 17t13.5 65q0 27 -7.5 49.5t-30.5 22.5q-21 0 -48 -16l-47 51l60 177h99l-38 -120h8q23 0 46 -8.5t41.5 -27t30 -48.5t11.5 -74q0 -51 -13.5 -86.5t-35.5 -57.5t-49.5 -32.5t-57.5 -10.5q-42 0 -74 12t-55 32z" />
<glyph unicode="&#xb9;" horiz-adv-x="499" d="M64 1379l181 184h120v-869h-146v641l-92 -79z" />
<glyph unicode="&#xba;" horiz-adv-x="756" d="M164 1123q0 158 54 248t164 90q54 0 93.5 -24.5t65.5 -70t39 -110t13 -143.5q0 -156 -54.5 -245.5t-162.5 -89.5q-55 0 -95.5 24.5t-65.5 70t-38 109t-13 141.5zM304 1116q0 -95 15.5 -148.5t60.5 -53.5q41 0 55.5 56.5t14.5 151.5q0 35 -2 71.5t-10 65.5t-22 47.5 t-38 18.5q-25 0 -40.5 -18.5t-23 -48t-9 -67t-1.5 -75.5z" />
<glyph unicode="&#xbb;" horiz-adv-x="888" d="M127 306l130 338l-130 340l145 91l164 -430l-164 -430zM453 306l128 338l-128 340l145 91l163 -430l-163 -430z" />
<glyph unicode="&#xbc;" horiz-adv-x="1470" d="M127 1379l183 184h119v-869h-146v641l-91 -79zM355 -81l577 1644h129l-579 -1644h-127zM846 225l215 563h168v-545h68v-151h-68v-173h-148v173h-208zM976 239h119v325z" />
<glyph unicode="&#xbd;" horiz-adv-x="1470" d="M127 1379l183 184h119v-869h-146v641l-91 -79zM355 -81l577 1644h129l-579 -1644h-127zM939 680q41 54 95 86.5t109 32.5q93 0 146 -62t53 -185q0 -52 -16 -107t-47.5 -114t-75 -124.5t-100.5 -140.5h236v-147h-376l-20 145q64 86 110 156.5t76.5 128t45 104t14.5 87.5 q0 47 -16.5 76t-49.5 29q-28 0 -54.5 -22.5t-62.5 -66.5z" />
<glyph unicode="&#xbe;" horiz-adv-x="1470" d="M127 750l51 134q40 -34 70.5 -46.5t61.5 -12.5q33 0 52.5 29.5t19.5 93.5q0 61 -20 94t-56 33h-77v140h54q44 0 63 25.5t19 89.5q0 55 -16.5 77.5t-48.5 22.5q-21 0 -48 -10t-68 -49l-54 132q54 35 97 53t93 18q89 0 140.5 -60t51.5 -172q0 -57 -17 -105.5t-54 -80.5 q48 -25 68 -82t20 -131q0 -122 -58.5 -191.5t-153.5 -69.5q-54 0 -99 15.5t-91 52.5zM385 -81l580 1644h125l-579 -1644h-126zM877 225l215 563h167v-545h69v-151h-69v-173h-147v173h-208zM1007 239h120v325z" />
<glyph unicode="&#xbf;" horiz-adv-x="749" d="M99 68q0 78 8.5 133.5t25.5 97.5t41.5 74.5t57.5 64.5l68 61h-2q14 16 23 27t12.5 25.5t4 34t0.5 50.5v125h181v-164q0 -50 -3 -83t-10.5 -57t-22.5 -44t-40 -41l-63 -54q-20 -17 -35 -36t-26 -45t-17 -61t-6 -83q0 -95 27.5 -147t88.5 -52q45 0 85 28t97 84l57 -197 l-5 -7q-64 -57 -124.5 -82.5t-135.5 -25.5q-140 0 -213.5 97t-73.5 277zM306 1018q0 64 36 101t85 37q54 0 87 -37t33 -101q0 -66 -33 -104.5t-87 -38.5q-50 0 -85.5 38.5t-35.5 104.5z" />
<glyph unicode="&#xc0;" horiz-adv-x="958" d="M71 0l285 1419h245l287 -1419h-216l-64 342h-263l-64 -342h-210zM191 1709l167 102l202 -229l-103 -72zM372 529h211l-106 636z" />
<glyph unicode="&#xc1;" horiz-adv-x="958" d="M71 0l285 1419h245l287 -1419h-216l-64 342h-263l-64 -342h-210zM372 529h211l-106 636zM380 1587l203 227l166 -104l-266 -193z" />
<glyph unicode="&#xc2;" horiz-adv-x="958" d="M71 0l285 1419h245l287 -1419h-216l-64 342h-263l-64 -342h-210zM223 1635l253 156l256 -156l-95 -120l-161 101l-164 -101zM372 529h211l-106 636z" />
<glyph unicode="&#xc3;" horiz-adv-x="958" d="M71 0l285 1419h245l287 -1419h-216l-64 342h-263l-64 -342h-210zM195 1616q24 76 68.5 110t107.5 34q38 0 70.5 -15t61.5 -32q20 -13 39 -22t35 -9q24 0 48 17t40 62l94 -99q-21 -66 -69.5 -101.5t-108.5 -35.5q-40 0 -68 15l-56 30q-21 13 -41.5 23.5t-36.5 10.5 q-24 0 -44.5 -17.5t-36.5 -64.5zM372 529h211l-106 636z" />
<glyph unicode="&#xc4;" horiz-adv-x="958" d="M71 0l285 1419h245l287 -1419h-216l-64 342h-263l-64 -342h-210zM206 1652q0 52 30 87.5t74 35.5q45 0 75 -35.5t30 -87.5q0 -25 -8 -47t-22 -39t-33 -27t-42 -10q-21 0 -40 10t-33.5 27t-22.5 39t-8 47zM372 529h211l-106 636zM542 1652q0 52 32 87.5t76 35.5 q45 0 74 -35.5t29 -87.5q0 -50 -30 -86.5t-73 -36.5q-21 0 -41 10t-35 27t-23.5 39t-8.5 47z" />
<glyph unicode="&#xc5;" horiz-adv-x="958" d="M71 0l285 1419h245l287 -1419h-216l-64 342h-263l-64 -342h-210zM330 1662q0 75 43.5 112t107.5 37q65 0 107.5 -37t42.5 -112q0 -78 -42.5 -114.5t-107.5 -36.5q-64 0 -107.5 37t-43.5 114zM372 529h211l-106 636zM423 1662q0 -35 17 -53.5t41 -18.5q57 0 57 72 q0 74 -57 74q-24 0 -41 -19t-17 -55z" />
<glyph unicode="&#xc6;" horiz-adv-x="1271" d="M57 0l363 1414h741v-192h-318v-385h283v-196h-283v-453h330v-188h-529v342h-292l-86 -342h-209zM395 529h249v693h-87z" />
<glyph unicode="&#xc7;" horiz-adv-x="910" d="M127 709q0 132 20 261.5t68 233.5t126 168.5t195 64.5q93 0 162 -48t134 -140l-122 -163q-45 76 -83.5 117.5t-93.5 41.5q-54 0 -91 -42t-60.5 -114t-34 -170.5t-10.5 -209.5q0 -52 2.5 -112t10.5 -120t21.5 -115.5t36 -99t54.5 -69t75 -25.5q59 0 105.5 43.5t95.5 125.5 l105 -164q-45 -71 -115 -125.5t-164 -65.5l-25 -88h8q23 0 45.5 -8.5t41 -27t30 -48.5t11.5 -74q0 -51 -13.5 -86.5t-35 -57.5t-49 -32.5t-55.5 -10.5q-42 0 -73.5 12t-55.5 32l43 89q38 -34 70 -34q18 0 32.5 17t14.5 65q0 27 -8.5 49.5t-32.5 22.5q-10 0 -19 -3t-28 -14 l-45 52l48 147q-96 16 -161 81t-105.5 163.5t-57.5 222t-17 258.5z" />
<glyph unicode="&#xc8;" horiz-adv-x="813" d="M167 1709l167 102l202 -229l-103 -72zM184 0v1414h518v-188h-317v-393h283v-188h-283v-457h329v-188h-530z" />
<glyph unicode="&#xc9;" horiz-adv-x="813" d="M184 0v1414h518v-188h-317v-393h283v-188h-283v-457h329v-188h-530zM329 1587l203 227l166 -104l-266 -193z" />
<glyph unicode="&#xca;" horiz-adv-x="813" d="M184 0v1414h518v-188h-317v-393h283v-188h-283v-457h329v-188h-530zM188 1635l253 156l256 -156l-95 -120l-161 101l-164 -101z" />
<glyph unicode="&#xcb;" horiz-adv-x="813" d="M184 0v1414h518v-188h-317v-393h283v-188h-283v-457h329v-188h-530zM184 1652q0 52 30 87.5t74 35.5q45 0 75 -35.5t30 -87.5q0 -25 -8 -47t-22 -39t-33 -27t-42 -10q-21 0 -40 10t-33.5 27t-22.5 39t-8 47zM520 1652q0 52 32 87.5t76 35.5q45 0 74 -35.5t29 -87.5 q0 -50 -30 -86.5t-73 -36.5q-21 0 -41 10t-35 27t-23.5 39t-8.5 47z" />
<glyph unicode="&#xcc;" horiz-adv-x="568" d="M7 1709l167 102l202 -229l-103 -72zM184 0v1414h201v-1414h-201z" />
<glyph unicode="&#xcd;" horiz-adv-x="568" d="M184 0v1414h201v-1414h-201zM194 1587l203 227l166 -104l-266 -193z" />
<glyph unicode="&#xce;" horiz-adv-x="568" d="M23 1635l253 156l256 -156l-95 -120l-161 101l-164 -101zM184 0v1414h201v-1414h-201z" />
<glyph unicode="&#xcf;" horiz-adv-x="568" d="M12 1652q0 52 30 87.5t74 35.5q45 0 75 -35.5t30 -87.5q0 -25 -8 -47t-22 -39t-33 -27t-42 -10q-21 0 -40 10t-33.5 27t-22.5 39t-8 47zM184 0v1414h201v-1414h-201zM348 1652q0 52 32 87.5t76 35.5q45 0 74 -35.5t29 -87.5q0 -50 -30 -86.5t-73 -36.5q-21 0 -41 10 t-35 27t-23.5 39t-8.5 47z" />
<glyph unicode="&#xd0;" horiz-adv-x="1021" d="M110 641v196h74v569q61 11 136.5 17.5t150.5 6.5q116 0 197.5 -56.5t131 -154t72 -227.5t22.5 -279q0 -161 -24 -292.5t-77 -225t-138.5 -144.5t-207.5 -51h-263v641h-74zM385 185q8 -1 17 -1h18h44q62 0 105 36.5t69.5 105.5t37.5 169t11 228q0 122 -12 218.5 t-37.5 164.5t-65.5 104t-97 36q-23 0 -44.5 -1.5t-45.5 -5.5v-402h131v-196h-131v-456z" />
<glyph unicode="&#xd1;" horiz-adv-x="1106" d="M184 0v1414h198l348 -896v896h192v-1414h-179l-367 907v-907h-192zM270 1616q24 76 68.5 110t107.5 34q38 0 70.5 -15t61.5 -32q20 -13 39 -22t35 -9q24 0 48 17t40 62l94 -99q-21 -66 -69.5 -101.5t-108.5 -35.5q-40 0 -68 15l-56 30q-21 13 -41.5 23.5t-36.5 10.5 q-24 0 -44.5 -17.5t-36.5 -64.5z" />
<glyph unicode="&#xd2;" d="M127 709q0 157 23.5 290.5t73.5 230.5t128.5 152t189.5 55q109 0 188 -55t130 -152t75.5 -230.5t24.5 -290.5q0 -158 -24.5 -293t-75.5 -232.5t-130 -152.5t-188 -55t-187.5 55t-129 152.5t-74.5 232t-24 293.5zM273 1723l167 102l202 -229l-103 -72zM337 710 q0 -123 10.5 -223.5t35 -172.5t64.5 -111t99 -39q57 0 96.5 40.5t63.5 112.5t34.5 172.5t10.5 220.5q0 122 -10.5 221.5t-35.5 170.5t-65 109t-98 38t-97 -39.5t-63 -110.5t-34.5 -170.5t-10.5 -218.5z" />
<glyph unicode="&#xd3;" d="M127 709q0 157 23.5 290.5t73.5 230.5t128.5 152t189.5 55q109 0 188 -55t130 -152t75.5 -230.5t24.5 -290.5q0 -158 -24.5 -293t-75.5 -232.5t-130 -152.5t-188 -55t-187.5 55t-129 152.5t-74.5 232t-24 293.5zM337 710q0 -123 10.5 -223.5t35 -172.5t64.5 -111t99 -39 q57 0 96.5 40.5t63.5 112.5t34.5 172.5t10.5 220.5q0 122 -10.5 221.5t-35.5 170.5t-65 109t-98 38t-97 -39.5t-63 -110.5t-34.5 -170.5t-10.5 -218.5zM460 1601l203 227l166 -104l-266 -193z" />
<glyph unicode="&#xd4;" d="M127 709q0 157 23.5 290.5t73.5 230.5t128.5 152t189.5 55q109 0 188 -55t130 -152t75.5 -230.5t24.5 -290.5q0 -158 -24.5 -293t-75.5 -232.5t-130 -152.5t-188 -55t-187.5 55t-129 152.5t-74.5 232t-24 293.5zM291 1649l253 156l256 -156l-95 -120l-161 101l-164 -101z M337 710q0 -123 10.5 -223.5t35 -172.5t64.5 -111t99 -39q57 0 96.5 40.5t63.5 112.5t34.5 172.5t10.5 220.5q0 122 -10.5 221.5t-35.5 170.5t-65 109t-98 38t-97 -39.5t-63 -110.5t-34.5 -170.5t-10.5 -218.5z" />
<glyph unicode="&#xd5;" d="M127 709q0 157 23.5 290.5t73.5 230.5t128.5 152t189.5 55q109 0 188 -55t130 -152t75.5 -230.5t24.5 -290.5q0 -158 -24.5 -293t-75.5 -232.5t-130 -152.5t-188 -55t-187.5 55t-129 152.5t-74.5 232t-24 293.5zM263 1630q24 76 68.5 110t107.5 34q38 0 70.5 -15 t61.5 -32q20 -13 39 -22t35 -9q24 0 48 17t40 62l94 -99q-21 -66 -69.5 -101.5t-108.5 -35.5q-40 0 -68 15l-56 30q-21 13 -41.5 23.5t-36.5 10.5q-24 0 -44.5 -17.5t-36.5 -64.5zM337 710q0 -123 10.5 -223.5t35 -172.5t64.5 -111t99 -39q57 0 96.5 40.5t63.5 112.5 t34.5 172.5t10.5 220.5q0 122 -10.5 221.5t-35.5 170.5t-65 109t-98 38t-97 -39.5t-63 -110.5t-34.5 -170.5t-10.5 -218.5z" />
<glyph unicode="&#xd6;" d="M127 709q0 157 23.5 290.5t73.5 230.5t128.5 152t189.5 55q109 0 188 -55t130 -152t75.5 -230.5t24.5 -290.5q0 -158 -24.5 -293t-75.5 -232.5t-130 -152.5t-188 -55t-187.5 55t-129 152.5t-74.5 232t-24 293.5zM273 1666q0 52 30 87.5t74 35.5q45 0 75 -35.5t30 -87.5 q0 -25 -8 -47t-22 -39t-33 -27t-42 -10q-21 0 -40 10t-33.5 27t-22.5 39t-8 47zM337 710q0 -123 10.5 -223.5t35 -172.5t64.5 -111t99 -39q57 0 96.5 40.5t63.5 112.5t34.5 172.5t10.5 220.5q0 122 -10.5 221.5t-35.5 170.5t-65 109t-98 38t-97 -39.5t-63 -110.5 t-34.5 -170.5t-10.5 -218.5zM609 1666q0 52 32 87.5t76 35.5q45 0 74 -35.5t29 -87.5q0 -50 -30 -86.5t-73 -36.5q-21 0 -41 10t-35 27t-23.5 39t-8.5 47z" />
<glyph unicode="&#xd7;" horiz-adv-x="1067" d="M223 317l197 247l-197 246l125 153l197 -247l193 247l126 -153l-199 -246l199 -247l-126 -152l-193 247l-197 -247z" />
<glyph unicode="&#xd8;" d="M58 72l129 208q-30 88 -45 196t-15 233q0 157 23.5 290.5t73.5 230.5t128.5 152t189.5 55q92 0 159 -37t117 -104l90 140l141 -95l-145 -226q28 -86 42 -188.5t14 -217.5q-3 -158 -27 -293t-74 -232.5t-128.5 -152.5t-188.5 -55q-89 0 -155.5 36t-116.5 100l-85 -133z M337 710q0 -50 1 -94.5t4 -85.5l361 579q-28 68 -65 104t-96 36q-58 0 -97 -39.5t-63 -110.5t-34.5 -170.5t-10.5 -218.5zM388 300q24 -66 62.5 -101t95.5 -35t95.5 40.5t62.5 112.5t35.5 172.5t11.5 220.5q0 41 -0.5 80t-6.5 76z" />
<glyph unicode="&#xd9;" horiz-adv-x="1059" d="M184 563v851h201v-908q0 -89 6 -153t22.5 -106t45 -62t71.5 -20q44 0 72.5 20t44 62t22 106t6.5 153v908h200v-851q0 -144 -14 -254t-52 -184t-105.5 -111.5t-173.5 -37.5q-105 0 -171 37.5t-105.5 111.5t-54.5 184t-15 254zM260 1709l167 102l202 -229l-103 -72z" />
<glyph unicode="&#xda;" horiz-adv-x="1059" d="M184 563v851h201v-908q0 -89 6 -153t22.5 -106t45 -62t71.5 -20q44 0 72.5 20t44 62t22 106t6.5 153v908h200v-851q0 -144 -14 -254t-52 -184t-105.5 -111.5t-173.5 -37.5q-105 0 -171 37.5t-105.5 111.5t-54.5 184t-15 254zM429 1587l203 227l166 -104l-266 -193z" />
<glyph unicode="&#xdb;" horiz-adv-x="1059" d="M184 563v851h201v-908q0 -89 6 -153t22.5 -106t45 -62t71.5 -20q44 0 72.5 20t44 62t22 106t6.5 153v908h200v-851q0 -144 -14 -254t-52 -184t-105.5 -111.5t-173.5 -37.5q-105 0 -171 37.5t-105.5 111.5t-54.5 184t-15 254zM270 1635l253 156l256 -156l-95 -120 l-161 101l-164 -101z" />
<glyph unicode="&#xdc;" horiz-adv-x="1059" d="M184 563v851h201v-908q0 -89 6 -153t22.5 -106t45 -62t71.5 -20q44 0 72.5 20t44 62t22 106t6.5 153v908h200v-851q0 -144 -14 -254t-52 -184t-105.5 -111.5t-173.5 -37.5q-105 0 -171 37.5t-105.5 111.5t-54.5 184t-15 254zM254 1652q0 52 30 87.5t74 35.5 q45 0 75 -35.5t30 -87.5q0 -25 -8 -47t-22 -39t-33 -27t-42 -10q-21 0 -40 10t-33.5 27t-22.5 39t-8 47zM590 1652q0 52 32 87.5t76 35.5q45 0 74 -35.5t29 -87.5q0 -50 -30 -86.5t-73 -36.5q-21 0 -41 10t-35 27t-23.5 39t-8.5 47z" />
<glyph unicode="&#xdd;" horiz-adv-x="865" d="M57 1414h213l161 -632l173 632h205l-276 -877v-537h-201v529zM333 1565l203 227l166 -104l-266 -193z" />
<glyph unicode="&#xde;" horiz-adv-x="932" d="M184 0v1414h201v-208h35h52q88 0 155 -24.5t113 -79t69.5 -141.5t23.5 -210q0 -233 -79 -345t-258 -112h-111v-294h-201zM385 470h96q45 0 75 17t46.5 51.5t23 87.5t6.5 125q0 143 -30.5 207.5t-112.5 64.5q-25 0 -50 -3t-54 -7v-543z" />
<glyph unicode="&#xdf;" horiz-adv-x="939" d="M85 960v184h105v50q0 71 12.5 135t45 112t87.5 76.5t140 28.5q57 0 108.5 -16.5t91 -54.5t63 -101.5t23.5 -158.5q0 -57 -7 -100t-22 -82t-37.5 -77t-53.5 -85q55 -45 94.5 -93t66.5 -105.5t39.5 -127.5t12.5 -159q0 -192 -76 -289t-214 -97h-80v178q93 0 138.5 48 t45.5 173q0 68 -12 121.5t-37 97t-63 78.5t-91 68l-14 124q11 20 22 37t19 33q23 38 40 65.5t27 53.5t14.5 54.5t4.5 67.5q0 93 -23 136t-73 43q-54 0 -74 -36.5t-20 -125.5v-1216h-198v960h-105z" />
<glyph unicode="&#xe0;" horiz-adv-x="940" d="M127 327q0 115 37 195.5t98.5 130.5t142 73.5t169.5 24.5v126q0 24 -4 46t-15.5 39t-31 27t-49.5 10q-68 0 -131 -29t-127 -75l-45 180q76 50 152 74t162 24q82 0 137 -21.5t88 -64t47 -107.5t14 -153v-581q0 -57 6.5 -90.5t35.5 -59.5l-123 -113q-41 14 -67 43t-36 67 q-41 -54 -90.5 -82t-118.5 -28q-61 0 -108 25t-78.5 70.5t-48 108.5t-16.5 140zM207 1482l167 102l202 -229l-103 -72zM321 337q0 -81 23.5 -134t75.5 -53q35 0 74 17.5t80 75.5v355q-133 -3 -193 -68.5t-60 -192.5z" />
<glyph unicode="&#xe1;" horiz-adv-x="940" d="M127 327q0 115 37 195.5t98.5 130.5t142 73.5t169.5 24.5v126q0 24 -4 46t-15.5 39t-31 27t-49.5 10q-68 0 -131 -29t-127 -75l-45 180q76 50 152 74t162 24q82 0 137 -21.5t88 -64t47 -107.5t14 -153v-581q0 -57 6.5 -90.5t35.5 -59.5l-123 -113q-41 14 -67 43t-36 67 q-41 -54 -90.5 -82t-118.5 -28q-61 0 -108 25t-78.5 70.5t-48 108.5t-16.5 140zM321 337q0 -81 23.5 -134t75.5 -53q35 0 74 17.5t80 75.5v355q-133 -3 -193 -68.5t-60 -192.5zM346 1360l203 227l166 -104l-266 -193z" />
<glyph unicode="&#xe2;" horiz-adv-x="940" d="M127 327q0 115 37 195.5t98.5 130.5t142 73.5t169.5 24.5v126q0 24 -4 46t-15.5 39t-31 27t-49.5 10q-68 0 -131 -29t-127 -75l-45 180q76 50 152 74t162 24q82 0 137 -21.5t88 -64t47 -107.5t14 -153v-581q0 -57 6.5 -90.5t35.5 -59.5l-123 -113q-41 14 -67 43t-36 67 q-41 -54 -90.5 -82t-118.5 -28q-61 0 -108 25t-78.5 70.5t-48 108.5t-16.5 140zM232 1422l253 156l256 -156l-95 -120l-161 101l-164 -101zM321 337q0 -81 23.5 -134t75.5 -53q35 0 74 17.5t80 75.5v355q-133 -3 -193 -68.5t-60 -192.5z" />
<glyph unicode="&#xe3;" horiz-adv-x="940" d="M127 327q0 115 37 195.5t98.5 130.5t142 73.5t169.5 24.5v126q0 24 -4 46t-15.5 39t-31 27t-49.5 10q-68 0 -131 -29t-127 -75l-45 180q76 50 152 74t162 24q82 0 137 -21.5t88 -64t47 -107.5t14 -153v-581q0 -57 6.5 -90.5t35.5 -59.5l-123 -113q-41 14 -67 43t-36 67 q-41 -54 -90.5 -82t-118.5 -28q-61 0 -108 25t-78.5 70.5t-48 108.5t-16.5 140zM189 1403q24 76 68.5 110t107.5 34q38 0 70.5 -15t61.5 -32q20 -13 39 -22t35 -9q24 0 48 17t40 62l94 -99q-21 -66 -69.5 -101.5t-108.5 -35.5q-40 0 -68 15l-56 30q-21 13 -41.5 23.5 t-36.5 10.5q-24 0 -44.5 -17.5t-36.5 -64.5zM321 337q0 -81 23.5 -134t75.5 -53q35 0 74 17.5t80 75.5v355q-133 -3 -193 -68.5t-60 -192.5z" />
<glyph unicode="&#xe4;" horiz-adv-x="940" d="M127 327q0 115 37 195.5t98.5 130.5t142 73.5t169.5 24.5v126q0 24 -4 46t-15.5 39t-31 27t-49.5 10q-68 0 -131 -29t-127 -75l-45 180q76 50 152 74t162 24q82 0 137 -21.5t88 -64t47 -107.5t14 -153v-581q0 -57 6.5 -90.5t35.5 -59.5l-123 -113q-41 14 -67 43t-36 67 q-41 -54 -90.5 -82t-118.5 -28q-61 0 -108 25t-78.5 70.5t-48 108.5t-16.5 140zM201 1439q0 52 30 87.5t74 35.5q45 0 75 -35.5t30 -87.5q0 -25 -8 -47t-22 -39t-33 -27t-42 -10q-21 0 -40 10t-33.5 27t-22.5 39t-8 47zM321 337q0 -81 23.5 -134t75.5 -53q35 0 74 17.5 t80 75.5v355q-133 -3 -193 -68.5t-60 -192.5zM537 1439q0 52 32 87.5t76 35.5q45 0 74 -35.5t29 -87.5q0 -50 -30 -86.5t-73 -36.5q-21 0 -41 10t-35 27t-23.5 39t-8.5 47z" />
<glyph unicode="&#xe5;" horiz-adv-x="940" d="M127 327q0 115 37 195.5t98.5 130.5t142 73.5t169.5 24.5v126q0 24 -4 46t-15.5 39t-31 27t-49.5 10q-68 0 -131 -29t-127 -75l-45 180q76 50 152 74t162 24q82 0 137 -21.5t88 -64t47 -107.5t14 -153v-581q0 -57 6.5 -90.5t35.5 -59.5l-123 -113q-41 14 -67 43t-36 67 q-41 -54 -90.5 -82t-118.5 -28q-61 0 -108 25t-78.5 70.5t-48 108.5t-16.5 140zM321 337q0 -81 23.5 -134t75.5 -53q35 0 74 17.5t80 75.5v355q-133 -3 -193 -68.5t-60 -192.5zM333 1449q0 75 43.5 112t107.5 37q65 0 107.5 -37t42.5 -112q0 -78 -42.5 -114.5t-107.5 -36.5 q-64 0 -107.5 37t-43.5 114zM426 1449q0 -35 17 -53.5t41 -18.5q57 0 57 72q0 74 -57 74q-24 0 -41 -19t-17 -55z" />
<glyph unicode="&#xe6;" horiz-adv-x="1367" d="M127 327q0 115 37 195.5t98.5 130.5t142 73.5t169.5 24.5v129q0 24 -4 46t-15.5 39t-31 26.5t-49.5 9.5q-68 0 -131 -29t-128 -74l-44 180q76 50 152 73.5t162 23.5q85 0 140 -22t88 -67q85 89 209 89q71 0 129.5 -30t100.5 -99.5t65 -182t23 -276.5q0 -8 -0.5 -20.5 t-1.5 -26.5q0 -8 -1 -19.5t-1 -18.5h-461q1 -171 41.5 -258.5t124.5 -87.5q100 0 195 86l69 -166q-65 -50 -133 -71.5t-143 -21.5q-161 0 -253 124q-25 -27 -52 -49.5t-61 -39.5t-75.5 -26t-95.5 -9q-64 0 -112.5 25t-82.5 70.5t-52 108.5t-18 140zM321 337q0 -98 32 -142.5 t87 -44.5q35 0 83 26t85 79q-20 82 -27 167.5t-7 175.5q-133 -3 -193 -68.5t-60 -192.5zM775 661h277q0 66 -5.5 128t-19.5 110.5t-40.5 77.5t-67.5 29q-76 0 -110 -87t-34 -258z" />
<glyph unicode="&#xe7;" horiz-adv-x="787" d="M127 583q0 107 17 213t59 190.5t111 136.5t174 52q66 0 121.5 -22t113.5 -71l-81 -174q-41 51 -76.5 72t-76.5 21q-55 0 -86.5 -39.5t-48 -100t-20.5 -135t-4 -142.5t4 -143t21 -138.5t50 -105t90 -41.5q45 0 85.5 24t81.5 65l69 -166q-52 -44 -103.5 -63.5t-105.5 -28.5 l-33 -94h10q23 0 46.5 -8.5t41.5 -27t29.5 -49t11.5 -74.5q0 -51 -13.5 -86.5t-35.5 -58t-49.5 -33t-57.5 -10.5q-42 0 -74 12.5t-54 31.5l42 90q38 -34 72 -34q18 0 31 17t13 64q0 27 -7 49.5t-30 22.5t-48 -14l-45 50l51 152q-88 13 -145 68t-90.5 138t-47 184t-13.5 206z " />
<glyph unicode="&#xe8;" horiz-adv-x="926" d="M127 578q0 154 25.5 267t71.5 185.5t109.5 107.5t141.5 35q71 0 130.5 -30t102.5 -99.5t67 -181t24 -275.5q0 -18 -1.5 -42.5t-2.5 -42.5h-465q1 -171 41.5 -258.5t123.5 -87.5q51 0 99 21t95 66l71 -167q-65 -50 -133 -71.5t-142 -21.5q-358 0 -358 595zM208 1482 l167 102l202 -229l-103 -72zM330 661h277q0 66 -6.5 128t-21.5 109.5t-40.5 76t-66.5 28.5q-76 0 -109 -85.5t-33 -256.5z" />
<glyph unicode="&#xe9;" horiz-adv-x="926" d="M127 578q0 154 25.5 267t71.5 185.5t109.5 107.5t141.5 35q71 0 130.5 -30t102.5 -99.5t67 -181t24 -275.5q0 -18 -1.5 -42.5t-2.5 -42.5h-465q1 -171 41.5 -258.5t123.5 -87.5q51 0 99 21t95 66l71 -167q-65 -50 -133 -71.5t-142 -21.5q-358 0 -358 595zM330 661h277 q0 66 -6.5 128t-21.5 109.5t-40.5 76t-66.5 28.5q-76 0 -109 -85.5t-33 -256.5zM404 1360l203 227l166 -104l-266 -193z" />
<glyph unicode="&#xea;" horiz-adv-x="926" d="M127 578q0 154 25.5 267t71.5 185.5t109.5 107.5t141.5 35q71 0 130.5 -30t102.5 -99.5t67 -181t24 -275.5q0 -18 -1.5 -42.5t-2.5 -42.5h-465q1 -171 41.5 -258.5t123.5 -87.5q51 0 99 21t95 66l71 -167q-65 -50 -133 -71.5t-142 -21.5q-358 0 -358 595zM216 1422 l253 156l256 -156l-95 -120l-161 101l-164 -101zM330 661h277q0 66 -6.5 128t-21.5 109.5t-40.5 76t-66.5 28.5q-76 0 -109 -85.5t-33 -256.5z" />
<glyph unicode="&#xeb;" horiz-adv-x="926" d="M127 578q0 154 25.5 267t71.5 185.5t109.5 107.5t141.5 35q71 0 130.5 -30t102.5 -99.5t67 -181t24 -275.5q0 -18 -1.5 -42.5t-2.5 -42.5h-465q1 -171 41.5 -258.5t123.5 -87.5q51 0 99 21t95 66l71 -167q-65 -50 -133 -71.5t-142 -21.5q-358 0 -358 595zM218 1439 q0 52 30 87.5t74 35.5q45 0 75 -35.5t30 -87.5q0 -25 -8 -47t-22 -39t-33 -27t-42 -10q-21 0 -40 10t-33.5 27t-22.5 39t-8 47zM330 661h277q0 66 -6.5 128t-21.5 109.5t-40.5 76t-66.5 28.5q-76 0 -109 -85.5t-33 -256.5zM554 1439q0 52 32 87.5t76 35.5q45 0 74 -35.5 t29 -87.5q0 -50 -30 -86.5t-73 -36.5q-21 0 -41 10t-35 27t-23.5 39t-8.5 47z" />
<glyph unicode="&#xec;" horiz-adv-x="550" d="M10 1482l167 102l202 -229l-103 -72zM177 0v1156h196v-1156h-196z" />
<glyph unicode="&#xed;" horiz-adv-x="550" d="M177 0v1156h196v-1156h-196zM186 1360l203 227l166 -104l-266 -193z" />
<glyph unicode="&#xee;" horiz-adv-x="550" d="M21 1422l253 156l256 -156l-95 -120l-161 101l-164 -101zM177 0v1156h196v-1156h-196z" />
<glyph unicode="&#xef;" horiz-adv-x="550" d="M15 1439q0 52 30 87.5t74 35.5q45 0 75 -35.5t30 -87.5q0 -25 -8 -47t-22 -39t-33 -27t-42 -10q-21 0 -40 10t-33.5 27t-22.5 39t-8 47zM177 0v1156h196v-1156h-196zM351 1439q0 52 32 87.5t76 35.5q45 0 74 -35.5t29 -87.5q0 -50 -30 -86.5t-73 -36.5q-21 0 -41 10 t-35 27t-23.5 39t-8.5 47z" />
<glyph unicode="&#xf0;" horiz-adv-x="944" d="M127 578q0 284 84.5 439.5t259.5 155.5q28 0 53 -11t40 -28q-14 54 -33 115t-40 124l-88 -36l-45 113l92 38q-10 27 -19.5 51t-17.5 47l144 63q10 -25 18.5 -50.5t18.5 -51.5l129 54l45 -113l-132 -55q38 -103 71 -206.5t57.5 -209t39 -214.5t14.5 -225 q0 -284 -86.5 -439.5t-260.5 -155.5q-175 0 -259.5 155.5t-84.5 439.5zM330 574q0 -96 4.5 -172.5t19.5 -131t43.5 -83.5t73.5 -29q44 0 72 30t44.5 83.5t22 130.5t5.5 172q0 74 -3.5 148t-17.5 133.5t-43 97t-80 37.5t-79.5 -37.5t-41.5 -97t-16.5 -133.5t-3.5 -148z" />
<glyph unicode="&#xf1;" horiz-adv-x="974" d="M170 0v1156h177l8 -87q37 58 86.5 81t112.5 23q78 0 127 -29t76.5 -88t37.5 -148.5t10 -211.5v-696h-197v741q0 58 -2 103.5t-12 77t-32.5 48.5t-62.5 17t-65 -19.5t-40 -56t-21.5 -86.5t-6.5 -112v-713h-196zM209 1403q24 76 68.5 110t107.5 34q38 0 70.5 -15t61.5 -32 q20 -13 39 -22t35 -9q24 0 48 17t40 62l94 -99q-21 -66 -69.5 -101.5t-108.5 -35.5q-40 0 -68 15l-56 30q-21 13 -41.5 23.5t-36.5 10.5q-24 0 -44.5 -17.5t-36.5 -64.5z" />
<glyph unicode="&#xf2;" horiz-adv-x="944" d="M127 578q0 284 84.5 439.5t259.5 155.5q174 0 260.5 -155.5t86.5 -439.5q0 -141 -21.5 -252t-65.5 -187.5t-109 -116t-151 -39.5q-175 0 -259.5 155.5t-84.5 439.5zM200 1482l167 102l202 -229l-103 -72zM330 574q0 -96 4.5 -172.5t19.5 -131t43.5 -83.5t73.5 -29 q44 0 72 30t44.5 83.5t22 130.5t5.5 172q0 74 -3.5 148t-17.5 133.5t-43 97t-80 37.5t-79.5 -37.5t-41.5 -97t-16.5 -133.5t-3.5 -148z" />
<glyph unicode="&#xf3;" horiz-adv-x="944" d="M127 578q0 284 84.5 439.5t259.5 155.5q174 0 260.5 -155.5t86.5 -439.5q0 -141 -21.5 -252t-65.5 -187.5t-109 -116t-151 -39.5q-175 0 -259.5 155.5t-84.5 439.5zM330 574q0 -96 4.5 -172.5t19.5 -131t43.5 -83.5t73.5 -29q44 0 72 30t44.5 83.5t22 130.5t5.5 172 q0 74 -3.5 148t-17.5 133.5t-43 97t-80 37.5t-79.5 -37.5t-41.5 -97t-16.5 -133.5t-3.5 -148zM387 1360l203 227l166 -104l-266 -193z" />
<glyph unicode="&#xf4;" horiz-adv-x="944" d="M127 578q0 284 84.5 439.5t259.5 155.5q174 0 260.5 -155.5t86.5 -439.5q0 -141 -21.5 -252t-65.5 -187.5t-109 -116t-151 -39.5q-175 0 -259.5 155.5t-84.5 439.5zM219 1422l253 156l256 -156l-95 -120l-161 101l-164 -101zM330 574q0 -96 4.5 -172.5t19.5 -131 t43.5 -83.5t73.5 -29q44 0 72 30t44.5 83.5t22 130.5t5.5 172q0 74 -3.5 148t-17.5 133.5t-43 97t-80 37.5t-79.5 -37.5t-41.5 -97t-16.5 -133.5t-3.5 -148z" />
<glyph unicode="&#xf5;" horiz-adv-x="944" d="M127 578q0 284 84.5 439.5t259.5 155.5q174 0 260.5 -155.5t86.5 -439.5q0 -141 -21.5 -252t-65.5 -187.5t-109 -116t-151 -39.5q-175 0 -259.5 155.5t-84.5 439.5zM196 1403q24 76 68.5 110t107.5 34q38 0 70.5 -15t61.5 -32q20 -13 39 -22t35 -9q24 0 48 17t40 62 l94 -99q-21 -66 -69.5 -101.5t-108.5 -35.5q-40 0 -68 15l-56 30q-21 13 -41.5 23.5t-36.5 10.5q-24 0 -44.5 -17.5t-36.5 -64.5zM330 574q0 -96 4.5 -172.5t19.5 -131t43.5 -83.5t73.5 -29q44 0 72 30t44.5 83.5t22 130.5t5.5 172q0 74 -3.5 148t-17.5 133.5t-43 97 t-80 37.5t-79.5 -37.5t-41.5 -97t-16.5 -133.5t-3.5 -148z" />
<glyph unicode="&#xf6;" horiz-adv-x="944" d="M127 578q0 284 84.5 439.5t259.5 155.5q174 0 260.5 -155.5t86.5 -439.5q0 -141 -21.5 -252t-65.5 -187.5t-109 -116t-151 -39.5q-175 0 -259.5 155.5t-84.5 439.5zM201 1439q0 52 30 87.5t74 35.5q45 0 75 -35.5t30 -87.5q0 -25 -8 -47t-22 -39t-33 -27t-42 -10 q-21 0 -40 10t-33.5 27t-22.5 39t-8 47zM330 574q0 -96 4.5 -172.5t19.5 -131t43.5 -83.5t73.5 -29q44 0 72 30t44.5 83.5t22 130.5t5.5 172q0 74 -3.5 148t-17.5 133.5t-43 97t-80 37.5t-79.5 -37.5t-41.5 -97t-16.5 -133.5t-3.5 -148zM537 1439q0 52 32 87.5t76 35.5 q45 0 74 -35.5t29 -87.5q0 -50 -30 -86.5t-73 -36.5q-21 0 -41 10t-35 27t-23.5 39t-8.5 47z" />
<glyph unicode="&#xf8;" horiz-adv-x="944" d="M75 62l98 160q-45 140 -46 356q0 284 84.5 440.5t259.5 156.5q134 0 215 -97l57 95l114 -74l-93 -156q54 -143 54 -365q0 -141 -21.5 -252t-64.5 -187.5t-108 -116t-153 -39.5q-146 0 -226 100l-57 -94zM330 484l247 416q-16 41 -41 67t-65 26q-51 0 -79.5 -37.5 t-41.5 -97.5t-16.5 -135t-3.5 -149v-68v-22zM355 266q16 -50 43.5 -79t72.5 -29q44 0 72 30t44.5 83.5t22 130.5t5.5 172v60t-1 59z" />
<glyph unicode="&#xf9;" horiz-adv-x="973" d="M170 402v754h196v-732q0 -51 3.5 -97.5t14.5 -81t32 -56t55 -21.5t59.5 14.5t42.5 46t25.5 83t8.5 126.5v718h196v-1156h-188l-5 88q-41 -59 -92 -82t-115 -23q-66 0 -110.5 24t-72.5 75t-39 130t-11 190zM224 1482l167 102l202 -229l-103 -72z" />
<glyph unicode="&#xfa;" horiz-adv-x="973" d="M170 402v754h196v-732q0 -51 3.5 -97.5t14.5 -81t32 -56t55 -21.5t59.5 14.5t42.5 46t25.5 83t8.5 126.5v718h196v-1156h-188l-5 88q-41 -59 -92 -82t-115 -23q-66 0 -110.5 24t-72.5 75t-39 130t-11 190zM401 1360l203 227l166 -104l-266 -193z" />
<glyph unicode="&#xfb;" horiz-adv-x="973" d="M170 402v754h196v-732q0 -51 3.5 -97.5t14.5 -81t32 -56t55 -21.5t59.5 14.5t42.5 46t25.5 83t8.5 126.5v718h196v-1156h-188l-5 88q-41 -59 -92 -82t-115 -23q-66 0 -110.5 24t-72.5 75t-39 130t-11 190zM239 1422l253 156l256 -156l-95 -120l-161 101l-164 -101z" />
<glyph unicode="&#xfc;" horiz-adv-x="973" d="M170 402v754h196v-732q0 -51 3.5 -97.5t14.5 -81t32 -56t55 -21.5t59.5 14.5t42.5 46t25.5 83t8.5 126.5v718h196v-1156h-188l-5 88q-41 -59 -92 -82t-115 -23q-66 0 -110.5 24t-72.5 75t-39 130t-11 190zM223 1439q0 52 30 87.5t74 35.5q45 0 75 -35.5t30 -87.5 q0 -25 -8 -47t-22 -39t-33 -27t-42 -10q-21 0 -40 10t-33.5 27t-22.5 39t-8 47zM559 1439q0 52 32 87.5t76 35.5q45 0 74 -35.5t29 -87.5q0 -50 -30 -86.5t-73 -36.5q-21 0 -41 10t-35 27t-23.5 39t-8.5 47z" />
<glyph unicode="&#xfd;" horiz-adv-x="828" d="M71 1156h206l142 -886l138 886h201l-250 -1247q-16 -79 -35.5 -144.5t-50 -112.5t-73.5 -73t-103 -26q-30 0 -57.5 1.5t-59.5 11.5v186q20 -6 41 -7.5t35 -1.5q40 0 58 21.5t31 89.5l21 109zM314 1360l203 227l166 -104l-266 -193z" />
<glyph unicode="&#xfe;" horiz-adv-x="960" d="M170 -431v1990h189v-487q30 54 75 77.5t102 23.5q62 0 108 -28t79.5 -74.5t54.5 -108t33 -127.5t17 -132.5t5 -124.5q0 -57 -5 -123t-18.5 -132t-35.5 -127.5t-54.5 -108.5t-77.5 -75.5t-106 -28.5q-52 0 -95.5 17.5t-74.5 63.5v-495h-196zM366 438q0 -42 4.5 -91.5 t18 -92t39 -70.5t67.5 -28q34 0 56.5 22.5t38 59t23.5 82.5t12 93t5 89.5t1 73.5v77q0 55 -5 116t-20 112t-42.5 84.5t-72.5 33.5q-42 0 -67 -25t-38 -64t-16.5 -86.5t-3.5 -92.5v-293z" />
<glyph unicode="&#xff;" horiz-adv-x="828" d="M71 1156h206l142 -886l138 886h201l-250 -1247q-16 -79 -35.5 -144.5t-50 -112.5t-73.5 -73t-103 -26q-30 0 -57.5 1.5t-59.5 11.5v186q20 -6 41 -7.5t35 -1.5q40 0 58 21.5t31 89.5l21 109zM139 1439q0 52 30 87.5t74 35.5q45 0 75 -35.5t30 -87.5q0 -25 -8 -47t-22 -39 t-33 -27t-42 -10q-21 0 -40 10t-33.5 27t-22.5 39t-8 47zM475 1439q0 52 32 87.5t76 35.5q45 0 74 -35.5t29 -87.5q0 -50 -30 -86.5t-73 -36.5q-21 0 -41 10t-35 27t-23.5 39t-8.5 47z" />
<glyph unicode="&#x152;" horiz-adv-x="1384" d="M127 710q0 157 24 290t74.5 230t129 152t188.5 55q64 0 122 -32.5t92 -94.5v104h517v-205h-316v-367h282v-204h-282v-436h328v-202h-529v107q-34 -64 -93.5 -95.5t-120.5 -31.5q-110 0 -188.5 54.5t-129 151.5t-74.5 230.5t-24 293.5zM334 709q0 -123 11 -221 t36.5 -165.5t65.5 -104t98 -36.5q55 0 94.5 37.5t64 106.5t36.5 166t12 217q0 122 -10.5 218.5t-33.5 163.5t-63 103t-96 36q-58 0 -99 -36.5t-66.5 -104.5t-37.5 -164t-12 -216z" />
<glyph unicode="&#x153;" horiz-adv-x="1410" d="M127 578q0 284 84.5 440.5t259.5 156.5q93 0 150.5 -43.5t92.5 -128.5q76 173 248 172q72 0 130.5 -30t101 -99.5t66 -182t23.5 -276.5q0 -8 -1 -20.5t-2 -26.5q0 -8 -0.5 -19.5t-0.5 -18.5h-464q1 -171 43 -258.5t125 -87.5q50 0 97 21t97 66l69 -167 q-64 -50 -133 -71.5t-143 -21.5q-95 0 -157 40.5t-99 125.5q-33 -76 -91.5 -121t-151.5 -45q-175 0 -259.5 155.5t-84.5 439.5zM330 574q0 -96 4.5 -172.5t19.5 -131t43.5 -83.5t73.5 -29q44 0 72 30t44.5 85t22 132.5t5.5 170.5q0 75 -3.5 149t-17.5 133.5t-43 97t-80 37.5 t-79.5 -37.5t-42.5 -97.5t-16.5 -135t-2.5 -149zM815 661h278q0 66 -6 128t-21 110.5t-40.5 77.5t-66.5 29q-76 0 -110 -87t-34 -258z" />
<glyph unicode="&#x178;" horiz-adv-x="865" d="M57 1414h213l161 -632l173 632h205l-276 -877v-537h-201v529zM166 1630q0 52 30 87.5t74 35.5q45 0 75 -35.5t30 -87.5q0 -25 -8 -47t-22 -39t-33 -27t-42 -10q-21 0 -40 10t-33.5 27t-22.5 39t-8 47zM502 1630q0 52 32 87.5t76 35.5q45 0 74 -35.5t29 -87.5 q0 -50 -30 -86.5t-73 -36.5q-21 0 -41 10t-35 27t-23.5 39t-8.5 47z" />
<glyph unicode="&#x2c6;" horiz-adv-x="619" d="M82 1380l253 156l256 -156l-95 -120l-161 101l-164 -101z" />
<glyph unicode="&#x2dc;" horiz-adv-x="644" d="M55 1361q24 76 68.5 110t107.5 34q38 0 70.5 -15t61.5 -32q20 -13 39 -22t35 -9q24 0 48 17t40 62l94 -99q-21 -66 -69.5 -101.5t-108.5 -35.5q-40 0 -68 15l-56 30q-21 13 -41.5 23.5t-36.5 10.5q-24 0 -44.5 -17.5t-36.5 -64.5z" />
<glyph unicode="&#x2000;" horiz-adv-x="914" />
<glyph unicode="&#x2001;" horiz-adv-x="1828" />
<glyph unicode="&#x2002;" horiz-adv-x="914" />
<glyph unicode="&#x2003;" horiz-adv-x="1828" />
<glyph unicode="&#x2004;" horiz-adv-x="609" />
<glyph unicode="&#x2005;" horiz-adv-x="457" />
<glyph unicode="&#x2006;" horiz-adv-x="304" />
<glyph unicode="&#x2007;" horiz-adv-x="304" />
<glyph unicode="&#x2008;" horiz-adv-x="228" />
<glyph unicode="&#x2009;" horiz-adv-x="365" />
<glyph unicode="&#x200a;" horiz-adv-x="101" />
<glyph unicode="&#x2010;" horiz-adv-x="735" d="M170 528v215h396v-215h-396z" />
<glyph unicode="&#x2011;" horiz-adv-x="735" d="M170 528v215h396v-215h-396z" />
<glyph unicode="&#x2012;" horiz-adv-x="735" d="M170 528v215h396v-215h-396z" />
<glyph unicode="&#x2013;" horiz-adv-x="908" d="M170 628v198h568v-198h-568z" />
<glyph unicode="&#x2014;" horiz-adv-x="1452" d="M170 511v200h1113v-200h-1113z" />
<glyph unicode="&#x2018;" horiz-adv-x="424" d="M57 1045l117 439h123l-30 -439h-210z" />
<glyph unicode="&#x2019;" horiz-adv-x="466" d="M99 1044l31 440h209l-118 -440h-122z" />
<glyph unicode="&#x201a;" horiz-adv-x="424" d="M57 -279l31 440h209l-119 -440h-121z" />
<glyph unicode="&#x201c;" horiz-adv-x="760" d="M57 1044l117 440h123l-30 -440h-210zM393 1044l118 440h123l-30 -440h-211z" />
<glyph unicode="&#x201d;" horiz-adv-x="762" d="M127 1044l34 440h208l-116 -440h-126zM464 1044l32 440h210l-119 -440h-123z" />
<glyph unicode="&#x201e;" horiz-adv-x="762" d="M57 -279l34 440h207l-116 -440h-125zM393 -279l33 440h209l-119 -440h-123z" />
<glyph unicode="&#x2022;" horiz-adv-x="1089" d="M269 697q0 71 21 132.5t58.5 107.5t87 72t107.5 26t108.5 -26t87.5 -72t59 -107.5t22 -132.5t-22 -132t-59 -106.5t-87.5 -71.5t-108.5 -26t-107.5 26t-87 71.5t-58.5 107t-21 131.5z" />
<glyph unicode="&#x2026;" horiz-adv-x="1182" d="M127 120q0 68 32 105t81 37h3q45 0 75 -37t30 -102v-4q0 -64 -30.5 -102t-77.5 -41q-50 0 -81.5 38t-31.5 106zM481 120q0 68 31 105t81 37h2q45 0 76 -37t32 -102q0 -66 -31 -105t-79 -42q-50 0 -81 38t-31 106zM833 120q0 68 31 105t81 37h3q48 0 77.5 -37t29.5 -102 q0 -66 -29.5 -104.5t-80.5 -42.5q-45 0 -78.5 38t-33.5 106z" />
<glyph unicode="&#x202f;" horiz-adv-x="365" />
<glyph unicode="&#x2039;" horiz-adv-x="565" d="M127 645l164 430l147 -91l-130 -340l130 -338l-147 -91z" />
<glyph unicode="&#x203a;" horiz-adv-x="562" d="M127 306l129 338l-129 340l146 91l163 -430l-163 -430z" />
<glyph unicode="&#x205f;" horiz-adv-x="457" />
<glyph unicode="&#x20ac;" horiz-adv-x="964" d="M78 470l35 154h79v35v95v37h-101l35 151h79q11 99 37.5 189t70 157.5t108 108t152.5 40.5q93 0 162.5 -49t132.5 -141l-123 -155q-45 78 -84 113t-94 35q-72 0 -109 -76t-53 -222h326l-34 -151h-302v-129v-38h292l-31 -154h-251q6 -57 17.5 -110t31.5 -95t49 -66.5 t70 -24.5q59 0 106 40.5t96 122.5l105 -164q-24 -38 -56 -73.5t-71.5 -63.5t-87 -44t-101.5 -16q-85 0 -147 38t-106 105.5t-69.5 157t-36.5 193.5h-127z" />
<glyph unicode="&#x2122;" horiz-adv-x="1144" d="M170 1368v116h312v-116h-96v-420h-120v420h-96zM557 948v536h112l98 -198l97 198h110v-536h-113v284l-94 -194l-95 192l1 -282h-116z" />
<glyph unicode="&#x25fc;" horiz-adv-x="1152" d="M0 0v1153h1153v-1153h-1153z" />
</font>
</defs>
</svg>
