<?xml version="1.0" standalone="no"?>
<!DOCTYPE svg PUBLIC "-//W3C//DTD SVG 1.1//EN" "http://www.w3.org/Graphics/SVG/1.1/DTD/svg11.dtd" >
<svg xmlns="http://www.w3.org/2000/svg" xmlns:xlink="http://www.w3.org/1999/xlink" version="1.1">
<metadata></metadata>
<defs>
<font id="clearviewhwy5-b" horiz-adv-x="1521" >
<font-face units-per-em="2048" ascent="1638" descent="-410" />
<missing-glyph horiz-adv-x="1131" />
<glyph horiz-adv-x="0" />
<glyph unicode="&#xd;" horiz-adv-x="1131" />
<glyph horiz-adv-x="1060" />
<glyph horiz-adv-x="1060" />
<glyph unicode=" "  horiz-adv-x="1131" />
<glyph unicode="&#x09;" horiz-adv-x="1131" />
<glyph unicode="&#xa0;" horiz-adv-x="1131" />
<glyph unicode="!" horiz-adv-x="834" d="M226 129q0 34 15 61.5t41 47t61 31t74 11.5q40 0 74.5 -11.5t60.5 -32t41 -47.5t15 -60t-15 -61t-41 -48.5t-60.5 -32.5t-74.5 -12q-41 0 -75.5 12t-60 32.5t-40.5 48.5t-15 61zM255 1414h328l-43 -998h-243z" />
<glyph unicode="&#x22;" horiz-adv-x="1217" d="M198 1484h317l-64 -532h-201zM704 1484h316l-64 -532h-201z" />
<glyph unicode="#" horiz-adv-x="1643" d="M198 494l24 216h231l32 256h-228l30 216h228l34 232h230l-32 -232h256l37 232h227l-34 -232h212l-32 -216h-212l-40 -256h225l-30 -216h-227l-34 -252h-238l38 252h-243l-38 -252h-228l37 252h-225zM679 710h254l36 256h-256z" />
<glyph unicode="$" horiz-adv-x="1335" d="M170 205l114 216q100 -68 193.5 -100t188.5 -32q215 0 215 137q0 51 -28 82t-96 59l-276 105q-141 57 -211.5 137.5t-70.5 207.5q0 66 20.5 125t62.5 105.5t105 77t149 41.5v164h276v-164q76 -10 147.5 -30.5t152.5 -56.5l-99 -228q-81 47 -161 71t-167 24 q-89 0 -142.5 -26.5t-53.5 -84.5q0 -25 8.5 -43t28 -32.5t50.5 -29.5t77 -33l231 -89q147 -58 214 -143.5t67 -218.5q0 -59 -19 -120.5t-60.5 -112t-109 -87.5t-164.5 -50v-174h-277v174q-180 16 -365 129z" />
<glyph unicode="%" horiz-adv-x="2156" d="M198 1032q0 191 87 298t265 107q88 0 152.5 -29.5t106.5 -82.5t62.5 -127.5t20.5 -165.5q0 -191 -85.5 -299t-267.5 -108q-89 0 -153.5 30t-106 83t-61.5 128t-20 166zM402 1032q0 -48 4 -92.5t19 -78.5t43 -54.5t77 -20.5q47 0 75 20.5t43.5 54.5t20.5 78.5t5 92.5 q0 47 -5 91.5t-20.5 78.5t-44 54.5t-74.5 20.5q-48 0 -76.5 -20.5t-43.5 -54.5t-19 -78.5t-4 -91.5zM522 0l890 1414h222l-890 -1414h-222zM1260 386q0 95 22 170t66.5 127t111 80t155.5 28q88 0 152.5 -29t106.5 -82t63.5 -128t21.5 -166q0 -191 -87 -298.5t-268 -107.5 q-88 0 -153 29t-107.5 82t-63 128t-20.5 167zM1464 383q0 -48 5.5 -91.5t21 -77.5t44 -54t75.5 -20t75 20t44 54t21 77.5t5 91.5t-5 92t-21 78t-44.5 54.5t-74.5 20.5q-47 0 -76 -20.5t-44.5 -54.5t-20.5 -78t-5 -92z" />
<glyph unicode="&#x26;" horiz-adv-x="1541" d="M198 434q0 126 60 213t161 118v4q-85 38 -132 114.5t-47 174.5q0 93 34 164t95.5 119t148 72.5t191.5 24.5q78 0 147.5 -13t149.5 -47l-70 -222q-41 20 -93 31t-106 11q-103 0 -156 -41.5t-53 -121.5q0 -47 21 -77t56.5 -47t82 -23.5t97.5 -6.5h197v170h275v-170h186 v-242h-180v-134q0 -122 -30.5 -219.5t-94 -165.5t-162.5 -104t-238 -36q-122 0 -220.5 28.5t-170 85t-110.5 142t-39 198.5zM487 450q0 -110 58.5 -171t187.5 -61q79 0 127.5 19t75 56.5t35 92.5t8.5 126v127h-282q-115 0 -162.5 -46t-47.5 -143z" />
<glyph unicode="'" horiz-adv-x="712" d="M198 1484h317l-64 -532h-201z" />
<glyph unicode="(" horiz-adv-x="862" d="M212 689q0 120 11.5 235.5t35.5 233.5t61.5 241t91.5 259l210 -56q-37 -117 -62 -228.5t-42 -222.5t-25 -225t-8 -234q0 -123 8 -237t25 -226t42.5 -223t61.5 -227l-210 -58q-52 134 -90 257.5t-62.5 241t-36 233.5t-11.5 236z" />
<glyph unicode=")" horiz-adv-x="868" d="M240 -221q37 116 64 228t44 223.5t24.5 225.5t7.5 236q0 120 -8.5 233t-25 225t-43 223.5t-63.5 228.5l213 56q51 -132 89 -254.5t63.5 -241t38 -235t12.5 -238.5t-12.5 -238.5t-38 -235.5t-63.5 -241.5t-89 -253.5z" />
<glyph unicode="*" horiz-adv-x="1053" d="M170 1160l70 208l206 -104l1 5l-41 215h238l-37 -212l3 -5l203 101l71 -205l-231 -27v-6l163 -151l-187 -129l-99 199h-5l-101 -199l-186 127l164 153v6z" />
<glyph unicode="+" horiz-adv-x="1357" d="M184 455v258h362v332h267v-332h361v-258h-361v-356h-267v356h-362z" />
<glyph unicode="," horiz-adv-x="777" d="M141 -283l95 538h330l-217 -538h-208z" />
<glyph unicode="-" horiz-adv-x="999" d="M212 491v261h576v-261h-576z" />
<glyph unicode="." horiz-adv-x="777" d="M198 132q0 33 15 60t41 47.5t60.5 32t74.5 11.5t75 -11.5t60.5 -32t40.5 -47.5t15 -60q0 -34 -15 -63t-40.5 -49.5t-59.5 -32.5t-73 -12q-41 0 -76.5 12t-61.5 32.5t-41 49.5t-15 63z" />
<glyph unicode="/" horiz-adv-x="1326" d="M141 -245l780 1729h264l-782 -1729h-262z" />
<glyph unicode="0" horiz-adv-x="1603" d="M212 709q0 160 34 293.5t105.5 230.5t183 150.5t268.5 53.5q156 0 267.5 -53.5t183 -150.5t105 -230.5t33.5 -293.5t-32.5 -294.5t-103.5 -232t-182.5 -152.5t-270.5 -55q-160 0 -271.5 55t-183 152.5t-104 232t-32.5 294.5zM512 706q0 -99 11.5 -187.5t43 -154.5 t88 -104.5t148.5 -38.5q91 0 147.5 38.5t87.5 104.5t42.5 154.5t11.5 187.5q0 91 -9 177.5t-39.5 154.5t-88 109t-152.5 41q-96 0 -153 -41t-88.5 -109t-40.5 -155t-9 -177z" />
<glyph unicode="1" horiz-adv-x="1039" d="M113 1069l436 347h236v-1416h-296l5 1042h-6l-248 -195z" />
<glyph unicode="2" horiz-adv-x="1342" d="M141 252q160 140 288 248t217 198.5t137.5 170t48.5 159.5q0 68 -43.5 112t-133.5 44q-93 0 -172.5 -43t-164.5 -133l-165 208q64 58 124.5 100t122.5 69t129.5 39.5t143.5 12.5q106 0 190.5 -26t143.5 -77t91 -125.5t32 -171.5q0 -89 -25.5 -172.5t-96 -175.5t-197 -199 t-329.5 -242h662v-248h-960z" />
<glyph unicode="3" horiz-adv-x="1342" d="M127 132l126 217q51 -37 94 -61.5t83.5 -39.5t80 -21t83.5 -6q57 0 103.5 12t80.5 36.5t52.5 63t18.5 91.5q0 103 -55.5 145t-155.5 42h-201v243h95q59 0 110 7t88 26.5t57.5 50.5t20.5 80q0 33 -9.5 63.5t-32.5 53.5t-63 37.5t-99 14.5q-86 0 -169.5 -35t-157.5 -101 l-136 216q64 44 123.5 76t119.5 52.5t123.5 29.5t134.5 9q100 0 185 -24t146.5 -73.5t96.5 -124.5t35 -177q0 -99 -37.5 -168t-122.5 -115v-4q102 -33 150.5 -116.5t48.5 -207.5q0 -99 -34.5 -181t-103 -140t-170.5 -90.5t-236 -32.5q-139 0 -251.5 35.5t-221.5 116.5z" />
<glyph unicode="4" horiz-adv-x="1429" d="M141 506l630 908h310v-882h207v-249h-207v-283h-302v283h-573zM444 532h352v537h-7z" />
<glyph unicode="5" horiz-adv-x="1373" d="M170 115l137 220q146 -119 305 -119q136 0 203.5 69.5t67.5 202.5q0 124 -61.5 188t-182.5 64q-81 0 -141.5 -31.5t-105.5 -91.5l-208 148l109 649h795v-254h-560l-54 -270v-6q59 47 118.5 66.5t138.5 19.5q103 0 186 -32.5t140.5 -94t87.5 -150.5t30 -204 q0 -117 -34.5 -212t-103 -162t-171 -103.5t-239.5 -36.5q-132 0 -239.5 32.5t-217.5 107.5z" />
<glyph unicode="6" horiz-adv-x="1461" d="M212 659q0 163 29 305t97.5 246.5t182.5 165.5t284 61q110 0 202.5 -27t183.5 -80l-126 -214q-64 41 -122.5 59.5t-130.5 18.5q-151 0 -223.5 -89t-79.5 -290h3q47 68 119 99.5t168 31.5q107 0 193.5 -32.5t146.5 -93t92 -148t32 -194.5q0 -112 -37 -204t-103 -157 t-160.5 -101t-210.5 -36q-139 0 -240.5 47t-168 134.5t-99 213.5t-32.5 284zM526 464q0 -110 58 -176t170 -66q110 0 167.5 67.5t57.5 182.5q0 109 -56 170.5t-169 61.5q-107 0 -167.5 -65t-60.5 -175z" />
<glyph unicode="7" horiz-adv-x="1282" d="M127 1160v254h985l44 -240q-91 -78 -159.5 -148t-117.5 -141.5t-80.5 -148.5t-51 -171t-26.5 -208.5t-7 -258.5v-98h-308v68q0 136 12 281.5t52.5 288.5t119 276t212.5 244v2h-675z" />
<glyph unicode="8" horiz-adv-x="1485" d="M212 420q0 126 52.5 204.5t166.5 127.5v5q-100 50 -141.5 121t-41.5 177q0 185 124 283.5t372 98.5q236 0 364 -95t128 -287q0 -106 -41 -177.5t-140 -120.5v-5q115 -50 166.5 -128t51.5 -204q0 -96 -27.5 -177.5t-90 -141t-163.5 -92.5t-247 -33q-147 0 -248.5 33 t-164.5 92.5t-91.5 141t-28.5 177.5zM506 416q0 -47 11.5 -86t38.5 -65.5t73 -41.5t115 -15q55 0 98 10t73.5 34t47 64t16.5 101q0 42 -8.5 80.5t-34 68t-71.5 46.5t-121 17q-48 0 -91 -7.5t-75.5 -31t-52 -65t-19.5 -109.5zM540 1032q0 -86 49.5 -131t154.5 -45 q102 0 151.5 45t49.5 131q0 88 -47.5 130t-153.5 42t-155 -42t-49 -130z" />
<glyph unicode="9" horiz-adv-x="1469" d="M198 936q0 113 37.5 206t105.5 158.5t163.5 101t212.5 35.5q260 0 400 -177t140 -533q0 -177 -34 -317t-105 -236t-183 -147t-266 -51q-59 0 -111.5 7t-100 23.5t-92 41t-89.5 58.5l138 201q37 -27 67 -44t59 -27.5t60 -15t70 -4.5q74 0 130 22t92.5 69t55 120.5 t19.5 177.5h-4q-54 -72 -124.5 -106.5t-169.5 -34.5q-103 0 -189.5 32.5t-149.5 93.5t-97.5 148.5t-34.5 197.5zM489 943q0 -110 54.5 -170t169.5 -60q113 0 171 62t58 173h1q0 51 -12 95.5t-39.5 77.5t-72 51.5t-108.5 18.5q-107 0 -164.5 -67t-57.5 -181z" />
<glyph unicode=":" horiz-adv-x="777" d="M198 132q0 33 15 60t41 47.5t60.5 32t74.5 11.5t75 -11.5t60.5 -32t40.5 -47.5t15 -60q0 -34 -15 -63t-40.5 -49.5t-59.5 -32.5t-73 -12q-41 0 -76.5 12t-61.5 32.5t-41 49.5t-15 63zM198 863q0 33 15 60t41 47t60.5 31.5t74.5 11.5t75 -11.5t60.5 -31.5t40.5 -47t15 -60 q0 -34 -15 -63t-40.5 -50.5t-59.5 -32.5t-73 -11q-41 0 -76.5 11t-61.5 32.5t-41 50.5t-15 63z" />
<glyph unicode=";" horiz-adv-x="777" d="M141 -283l95 538h330l-217 -538h-208zM198 863q0 33 15 60t41 47t60.5 31.5t74.5 11.5t75 -11.5t60.5 -31.5t40.5 -47t15 -60q0 -34 -15 -63t-40.5 -50.5t-59.5 -32.5t-73 -11q-41 0 -76.5 11t-61.5 32.5t-41 50.5t-15 63z" />
<glyph unicode="&#x3c;" horiz-adv-x="1649" d="M226 472v230l1197 476v-235l-922 -353l922 -358v-232z" />
<glyph unicode="=" horiz-adv-x="1360" d="M240 214v250h880v-250h-880zM240 682v253h880v-253h-880z" />
<glyph unicode="&#x3e;" horiz-adv-x="1649" d="M226 0v232l924 355l-924 356v235l1197 -476v-230z" />
<glyph unicode="?" horiz-adv-x="1263" d="M141 1291q59 40 114.5 67.5t111.5 45t116 26t129 8.5q226 0 339.5 -106t113.5 -290q0 -130 -56.5 -220.5t-179.5 -153.5l-85 -44q-24 -13 -37.5 -23t-20 -22.5t-8 -31.5t-1.5 -51v-84h-282v147q0 48 5.5 80.5t21 56.5t41.5 42.5t67 39.5l84 45q41 20 72 38.5t51.5 40.5 t30.5 49.5t10 66.5q0 81 -54 127t-154 46q-86 0 -158.5 -29t-135.5 -87zM341 129q0 34 15 62t40 48.5t60 32t74 11.5q40 0 74 -11.5t59.5 -32t39.5 -48.5t14 -62q0 -33 -14 -61t-39 -48.5t-59 -32.5t-73 -12q-41 0 -76 12t-60 32.5t-40 48.5t-15 61z" />
<glyph unicode="@" horiz-adv-x="1831" d="M198 693q0 174 60 312.5t165.5 235t248.5 147t308 50.5q146 0 266 -40t206.5 -117t134 -189.5t47.5 -258.5q0 -136 -34 -235.5t-88.5 -164.5t-124.5 -96t-142 -31q-27 0 -56 7t-53 21.5t-42.5 38.5t-24.5 58h-3q-45 -59 -108 -88.5t-135 -29.5q-122 0 -194 86t-72 243 q0 76 20 155.5t62.5 144t109 105.5t159.5 41q62 0 100.5 -19.5t70.5 -64.5h4l9 61h211l-71 -567q-4 -23 13.5 -38.5t50.5 -15.5q31 0 67.5 21.5t67.5 68.5t51.5 124t20.5 188q0 112 -37 199.5t-105 147t-163.5 90.5t-211.5 31q-139 0 -256.5 -39.5t-203 -119t-133.5 -196.5 t-48 -274q0 -141 38 -252.5t111 -188t180.5 -116t247.5 -39.5q124 0 230.5 34t191.5 99l70 -105q-115 -85 -242 -117.5t-268 -32.5q-146 0 -274.5 45t-224 135.5t-151.5 227t-56 318.5zM772 621q0 -72 29 -105.5t89 -33.5q72 0 106 42t45 125l14 142q8 59 -13 93.5t-96 34.5 q-89 0 -131.5 -70.5t-42.5 -227.5z" />
<glyph unicode="A" horiz-adv-x="1601" d="M113 0l511 1420h341l523 -1420h-328l-106 301h-515l-109 -301h-317zM605 550h379l-188 573h-7z" />
<glyph unicode="B" horiz-adv-x="1545" d="M255 0v1404q123 11 251 18.5t249 7.5q99 0 199.5 -15t180 -56.5t129.5 -116t50 -193.5q0 -65 -15 -113.5t-42.5 -84.5t-68 -61.5t-92.5 -42.5v-4q266 -56 266 -354q0 -109 -34.5 -183t-99 -120t-155 -66t-202.5 -20h-616zM559 226q58 -3 106 -3.5t114 -0.5q61 0 112 5.5 t87 26t56 59t20 103.5q0 71 -26.5 112t-66.5 61.5t-89.5 25t-96.5 4.5q-55 0 -112.5 -2t-103.5 -5v-386zM562 836q44 -3 89 -3h114q66 0 113 8.5t76.5 29t43 56t13.5 90.5q0 44 -12.5 77t-41.5 56t-78 33.5t-121 10.5q-21 0 -49.5 -1t-56 -3t-52 -4t-38.5 -4v-346z" />
<glyph unicode="C" horiz-adv-x="1507" d="M198 714q0 157 43 290t127.5 229.5t209 150t286.5 53.5q153 0 275.5 -56.5t235.5 -172.5l-186 -204q-72 88 -147 131t-169 43q-178 0 -266 -119.5t-88 -345.5q0 -103 19 -191t61.5 -152t109.5 -101t164 -37q100 0 182 44.5t163 129.5l162 -208q-222 -222 -512 -222 q-175 0 -301.5 54.5t-208.5 152.5t-121 234t-39 297z" />
<glyph unicode="D" horiz-adv-x="1626" d="M255 0v1404q51 6 110 10.5t120.5 7t124 5t118.5 2.5q158 0 288 -42.5t222 -130.5t141.5 -222.5t49.5 -319.5q0 -180 -47 -313.5t-137.5 -222.5t-221.5 -133.5t-299 -44.5h-469zM562 242q44 -1 72 -2h68q98 0 172.5 22t127 76.5t79 146.5t26.5 231q0 85 -12.5 169 t-52 150.5t-111 107.5t-188.5 41q-44 0 -91 -1.5t-90 -4.5v-936z" />
<glyph unicode="E" horiz-adv-x="1371" d="M255 0v1414h913v-256h-606v-304h548v-259h-548v-343h626v-252h-933z" />
<glyph unicode="F" horiz-adv-x="1305" d="M255 0v1414h895v-256h-588v-312h531v-260h-531v-586h-307z" />
<glyph unicode="G" horiz-adv-x="1650" d="M198 704q0 178 50 315t139.5 229.5t211.5 140.5t265 48q91 0 164.5 -18.5t133.5 -48t109.5 -67t90.5 -77.5l-182 -203q-72 78 -144.5 116.5t-161.5 38.5q-98 0 -165 -34.5t-109.5 -97t-61.5 -149.5t-19 -191q0 -103 17 -193t57.5 -157t109 -105.5t170.5 -38.5 q149 0 225.5 84t76.5 249h-311v250h589v-157q0 -153 -32 -274.5t-102 -206.5t-182 -131t-273 -46q-147 0 -270 47.5t-210.5 139.5t-136.5 227t-49 310z" />
<glyph unicode="H" horiz-adv-x="1627" d="M255 0v1414h307v-526h503v526h308v-1414h-308v600h-503v-600h-307z" />
<glyph unicode="I" horiz-adv-x="816" d="M255 0v1414h307v-1414h-307z" />
<glyph unicode="J" horiz-adv-x="1168" d="M127 103l129 224q30 -27 55.5 -45t51 -28.5t52 -15.5t59.5 -5q68 0 100.5 41t32.5 138v1002h307v-997q0 -98 -19.5 -179.5t-66 -140.5t-125.5 -92t-201 -33q-113 0 -201.5 31.5t-173.5 99.5z" />
<glyph unicode="K" d="M255 0v1414h307l-2 -589h7l415 589h379l-473 -621l521 -793h-362l-381 586l-106 -122l2 -464h-307z" />
<glyph unicode="L" horiz-adv-x="1287" d="M255 0v1414h307v-1155h555v-259h-862z" />
<glyph unicode="M" horiz-adv-x="1840" d="M255 0v1414h275l391 -582l390 582h275v-1414h-298v877h-5l-362 -518l-362 515h-7v-874h-297z" />
<glyph unicode="N" horiz-adv-x="1708" d="M255 0v1414h291l604 -861h4v861h300v-1414h-284l-611 892h-5v-892h-299z" />
<glyph unicode="O" horiz-adv-x="1742" d="M198 709q0 180 47.5 315.5t135 227.5t212 138.5t280.5 46.5t280 -46.5t211 -138.5t133.5 -227.5t46.5 -315.5q0 -182 -47 -319t-135 -228t-211.5 -136.5t-277.5 -45.5t-278.5 45.5t-213 136.5t-136 227.5t-47.5 319.5zM519 709q0 -110 16.5 -200t56.5 -152.5t108.5 -96.5 t173.5 -34q102 0 170 34t107.5 97t55.5 152.5t16 199.5q0 109 -16 197t-56.5 150.5t-107.5 96.5t-170 34q-105 0 -173 -33.5t-108 -95.5t-56.5 -150.5t-16.5 -198.5z" />
<glyph unicode="P" horiz-adv-x="1485" d="M255 0v1404q47 4 104 8.5t120.5 8t130 6t133.5 2.5q116 0 220.5 -21.5t182 -74t123.5 -140t46 -220.5q0 -109 -27.5 -196t-87.5 -148.5t-154 -94.5t-227 -33h-257v-501h-307zM562 744h203q54 0 98.5 6.5t76.5 28.5t49.5 66.5t17.5 120.5q0 61 -13.5 102.5t-44 67t-80 37 t-121.5 11.5q-41 0 -87 -2t-99 -5v-433z" />
<glyph unicode="Q" horiz-adv-x="1743" d="M198 709q0 168 42.5 303t126.5 229t210.5 145t295.5 51q168 0 294 -51t210 -145t125.5 -229t41.5 -303q0 -86 -12 -170t-40 -160t-73.5 -143.5t-113.5 -120.5v-2q40 -11 64 -28t48 -33.5t56 -31t87 -21.5l-99 -215q-83 1 -152 32t-126 67t-106.5 66.5t-93.5 30.5 q-24 0 -43 -2.5t-43 -2.5q-173 0 -304 48.5t-218.5 142.5t-132 230.5t-44.5 312.5zM519 709q0 -102 14 -190.5t54 -153.5t108.5 -102t178.5 -37q107 0 176 37.5t107 102.5t52 153t14 190q0 103 -13 190.5t-51.5 151.5t-107 100t-178.5 36t-179.5 -37t-108.5 -101.5 t-52.5 -151.5t-13.5 -188z" />
<glyph unicode="R" d="M255 0v1404q120 11 241.5 18t241.5 7q107 0 211.5 -18.5t185 -66.5t130 -131.5t49.5 -213.5q0 -139 -55 -236.5t-181 -147.5v-3q8 -3 16.5 -12.5t15.5 -22.5t13.5 -25.5t10.5 -21.5l218 -530h-325l-187 484q-11 33 -24 42.5t-45 9.5h-209v-536h-307zM562 778h213 q54 0 96.5 9t72 32t45 62.5t15.5 98.5q0 64 -19 103.5t-53 63t-81.5 32t-103.5 8.5q-50 0 -94.5 -2.5t-90.5 -6.5v-400z" />
<glyph unicode="S" horiz-adv-x="1400" d="M156 137l124 234q93 -65 192 -109t210 -44q40 0 80.5 7t74 24.5t54.5 50t21 83.5q0 47 -26.5 79.5t-70.5 56.5t-101.5 43t-118.5 39q-72 24 -142.5 55t-126.5 79.5t-91.5 118.5t-35.5 173q0 110 43.5 187t113.5 126t159 71t182 22q129 0 240.5 -31t223.5 -91l-100 -237 q-78 50 -160 81.5t-178 31.5q-44 0 -83.5 -6t-69.5 -22t-47.5 -43t-17.5 -69t27 -70.5t72 -50t104 -38.5t121 -38q71 -23 140 -54t124 -80.5t89 -122t34 -177.5q0 -120 -41.5 -203.5t-113 -135.5t-166 -74.5t-199.5 -22.5q-79 0 -150 9.5t-136 28.5t-128 48.5t-126 70.5z " />
<glyph unicode="T" horiz-adv-x="1305" d="M127 1154v260h1051v-260h-373v-1154h-307v1154h-371z" />
<glyph unicode="U" horiz-adv-x="1643" d="M255 574v840h307v-797q0 -76 6 -145.5t31.5 -122t77 -83t142.5 -30.5q92 0 144.5 30.5t79 83t33 121.5t6.5 146v797h307v-840q0 -140 -29 -251t-96 -188t-176 -118t-269 -41q-158 0 -265.5 40.5t-174 117.5t-95.5 188t-29 252z" />
<glyph unicode="V" horiz-adv-x="1494" d="M127 1414h327l297 -1075h3l293 1075h321l-454 -1414h-333z" />
<glyph unicode="W" horiz-adv-x="2213" d="M141 1414h334l211 -1053h4l272 1053h298l260 -1051h10l220 1051h322l-375 -1414h-336l-252 977h-13l-253 -977h-345z" />
<glyph unicode="X" horiz-adv-x="1446" d="M85 0l460 735l-406 679h357l241 -452h4l246 452h348l-417 -698l444 -716h-354l-282 484h-2l-283 -484h-356z" />
<glyph unicode="Y" horiz-adv-x="1436" d="M71 1414h349l300 -599l314 599h332l-496 -864v-550h-304v545z" />
<glyph unicode="Z" horiz-adv-x="1381" d="M170 0v228l643 926h-611v260h992v-230l-654 -932h672v-252h-1042z" />
<glyph unicode="[" horiz-adv-x="906" d="M198 -266v1926h496v-176h-236v-1577h236v-173h-496z" />
<glyph unicode="\" horiz-adv-x="1329" d="M141 1484h262l785 -1729h-260z" />
<glyph unicode="]" horiz-adv-x="919" d="M212 -93h232v1577h-232v176h495v-1926h-495v173z" />
<glyph unicode="^" horiz-adv-x="1197" d="M141 1259l456 236l460 -236l-133 -200l-323 167l-331 -167z" />
<glyph unicode="_" horiz-adv-x="1277" d="M141 -175h995v-186h-995v186z" />
<glyph unicode="`" horiz-adv-x="726" d="M95 1496l246 123l287 -237l-174 -94z" />
<glyph unicode="a" horiz-adv-x="1414" d="M170 325q0 92 31.5 159.5t86 114t126 75t149.5 44.5t157 21t151 5v49q0 86 -37.5 124t-131.5 38q-109 0 -211.5 -31.5t-196.5 -84.5l-86 210q127 64 250 96.5t266 32.5q123 0 208 -26t136.5 -81t74 -139.5t22.5 -200.5v-428q0 -54 15 -88t65 -64l-181 -171 q-59 14 -104 49t-59 88h-4q-81 -68 -175 -105t-202 -37q-81 0 -145.5 24t-110 70t-70 111t-24.5 145zM462 344q0 -74 37.5 -121.5t115.5 -47.5q71 0 134 28t122 73v295q-61 0 -132 -6t-132.5 -29t-103 -69t-41.5 -123z" />
<glyph unicode="b" horiz-adv-x="1507" d="M255 0v1535h298v-503h4q23 42 53.5 70t67 45t78.5 24t87 7q126 0 214.5 -48t145 -129.5t82 -189t25.5 -224.5q0 -115 -25 -224.5t-81 -195.5t-145 -139t-216 -53q-102 0 -182 40t-126 136h-6l-42 -151h-232zM549 468q0 -58 10.5 -107.5t36 -85.5t67 -56.5t104.5 -20.5 q78 0 124.5 34t72 89t33 123.5t7.5 136.5q0 71 -6.5 137t-30.5 116.5t-70 81t-126 30.5q-105 0 -163.5 -51.5t-58.5 -166.5v-260z" />
<glyph unicode="c" horiz-adv-x="1302" d="M198 573q0 134 37.5 246t110.5 191.5t180.5 123.5t247.5 44q117 0 213 -35.5t188 -107.5l-127 -202q-61 59 -124 84.5t-139 25.5q-81 0 -134.5 -30t-87 -81t-46.5 -116t-13 -135q0 -74 15.5 -141t48.5 -118.5t87 -82t130 -30.5q86 0 154.5 23.5t141.5 80.5l94 -207 q-50 -34 -97.5 -59.5t-97 -41t-104 -23t-115.5 -7.5q-139 0 -244 43t-176 122t-107 188.5t-36 244.5z" />
<glyph unicode="d" horiz-adv-x="1510" d="M198 587q0 117 26 224.5t82.5 189t145 129.5t214.5 48q88 0 163 -30.5t124 -102.5h5v490h298v-1535h-252l-20 140h-8q-54 -85 -133 -125t-177 -40q-127 0 -216 53t-145 139t-81.5 195.5t-25.5 224.5zM504 581q0 -68 8 -135.5t33.5 -123t72.5 -90t125 -34.5 q64 0 105.5 20.5t67 56.5t36 85t10.5 107v261q0 115 -59 166.5t-162 51.5q-81 0 -127.5 -30.5t-71 -81t-31.5 -116.5t-7 -137z" />
<glyph unicode="e" horiz-adv-x="1469" d="M198 574q0 157 45.5 271t121.5 188t178 109.5t215 35.5q127 0 222.5 -44.5t160.5 -123.5t98 -191t33 -245v-44q0 -20 -3 -52h-765q3 -133 71.5 -203.5t213.5 -70.5q89 0 164 24t162 78l96 -211q-107 -64 -212 -92t-225 -28q-139 0 -246 42t-180.5 120.5t-111.5 189.5 t-38 247zM504 670h492q0 59 -13 111t-40.5 91t-72.5 61t-110 22q-119 0 -187.5 -74.5t-68.5 -210.5z" />
<glyph unicode="f" horiz-adv-x="950" d="M127 894v240h166v82q0 92 17 155t60.5 102.5t118.5 56.5t193 17q34 0 75 -1.5t80 -8.5v-216q-25 3 -52.5 6t-60.5 3q-83 0 -112 -28.5t-29 -99.5v-68h236v-240h-228v-894h-298v894h-166z" />
<glyph unicode="g" horiz-adv-x="1514" d="M198 597q0 116 24 221.5t79 185t144.5 127t219.5 47.5q102 0 179.5 -34t131.5 -121h4l20 133h260v-1123q0 -132 -27.5 -224t-88.5 -150t-157 -84t-232 -26q-133 0 -251 30.5t-232 89.5l86 229q96 -55 188.5 -83.5t204.5 -28.5q57 0 96.5 9.5t65 32.5t37.5 63t12 101v188 h-4q-58 -78 -127 -110t-165 -32q-123 0 -211.5 42.5t-145.5 117t-84 177t-27 222.5zM504 604q0 -62 9 -123t34.5 -109t71.5 -78t119 -30q66 0 109.5 22t69 60.5t35.5 89.5t10 109v175q0 110 -56.5 168t-167.5 58q-75 0 -121 -28t-71.5 -75t-33.5 -109t-8 -130z" />
<glyph unicode="h" horiz-adv-x="1523" d="M255 0v1535h298v-488h1q30 40 65.5 65t75.5 40t84 20.5t91 5.5q116 0 192.5 -34.5t122 -99t65 -155.5t19.5 -203v-686h-299v652q0 58 -5 108t-24 87t-57 58t-106 21q-116 0 -170.5 -57t-54.5 -177v-692h-298z" />
<glyph unicode="i" horiz-adv-x="786" d="M212 1441q0 71 49 112.5t132 41.5q85 0 133 -41.5t48 -112.5t-48 -112.5t-133 -41.5q-83 0 -132 42t-49 112zM245 0v1156h300v-1156h-300z" />
<glyph unicode="j" horiz-adv-x="804" d="M-57 -190q34 -3 69 -4t67 -1q65 0 101 16t54 47.5t21.5 77.5t3.5 106v1104h298v-1132q0 -116 -24 -204.5t-77 -148.5t-136.5 -91t-202.5 -31q-83 0 -174 15v246zM228 1441q0 40 14 69t39 48t58 28t71 9q37 0 70 -9t58 -28t40 -48t15 -69q0 -38 -15 -67t-40 -48t-58 -29 t-70 -10q-38 0 -71 10t-58 29t-39 48t-14 67z" />
<glyph unicode="k" horiz-adv-x="1412" d="M255 0v1535h298v-839h6l359 460h359l-392 -476l415 -680h-348l-280 496l-119 -133v-363h-298z" />
<glyph unicode="l" horiz-adv-x="891" d="M255 248v1287h298v-1214q0 -30 4.5 -47.5t15 -26t28.5 -11.5t45 -3h89v-233q-41 -7 -94.5 -10.5t-111.5 -3.5q-78 0 -130 14t-84 44.5t-46 80.5t-14 123z" />
<glyph unicode="m" horiz-adv-x="2148" d="M255 0v1156h265l23 -133h4q18 34 44 63t60.5 50t80.5 33t105 12q106 0 181 -39t121 -126q65 92 146 128.5t190 36.5q110 0 189.5 -32t130.5 -93.5t75 -150.5t24 -205v-700h-299v670q0 58 -6 105.5t-24.5 81.5t-52.5 52.5t-89 18.5q-89 0 -145 -50.5t-56 -154.5v-723h-298 v673q0 58 -6 105.5t-23.5 80.5t-51.5 51t-91 18q-89 0 -144 -53t-55 -155v-720h-298z" />
<glyph unicode="n" horiz-adv-x="1523" d="M255 0v1156h260l21 -129h4q59 86 142 118.5t188 32.5q116 0 192.5 -34.5t122 -99t65 -155.5t19.5 -203v-686h-299v649q0 59 -5 110t-24 88.5t-58 58t-105 20.5q-116 0 -170.5 -57t-54.5 -177v-692h-298z" />
<glyph unicode="o" d="M198 577q0 127 32.5 237t101 191t175.5 127t254 46q140 0 245.5 -42.5t176 -121t106 -189.5t35.5 -248q0 -133 -34.5 -244t-104.5 -190t-175.5 -123.5t-248.5 -44.5t-248.5 43.5t-175.5 123.5t-104.5 190.5t-34.5 244.5zM504 577q0 -85 12 -154t41.5 -117.5t79.5 -74.5 t127 -26q75 0 123.5 26t77.5 74.5t41 117.5t12 154q0 81 -11 147.5t-40 113.5t-78.5 73.5t-127.5 26.5q-76 0 -126.5 -26.5t-79.5 -73.5t-40 -113.5t-11 -147.5z" />
<glyph unicode="p" horiz-adv-x="1510" d="M255 -436v1592h256l19 -129h3q58 82 133 116.5t177 34.5q129 0 218.5 -50t145.5 -133t81 -189t25 -219q0 -115 -25.5 -225t-81.5 -196.5t-147.5 -138.5t-222.5 -52q-48 0 -87 7t-73 23t-63 42.5t-56 65.5h-4v-549h-298zM549 464q0 -58 10.5 -106t36 -84t67 -56t104.5 -20 q79 0 126.5 37t72.5 92.5t33 123.5t8 130q0 66 -6.5 132t-30.5 118t-71.5 84.5t-129.5 32.5q-106 0 -163 -54.5t-57 -162.5v-267z" />
<glyph unicode="q" horiz-adv-x="1510" d="M198 587q0 115 25.5 221.5t81.5 189.5t145 133t216 50q98 0 179 -33t131 -121h4l17 129h263v-1254q0 -35 3.5 -62t13.5 -47.5t29 -36.5t49 -30l-175 -204q-66 16 -109 42.5t-67 65t-33 90t-9 117.5v276h-12q-51 -76 -120.5 -107t-160.5 -31q-127 0 -217 51.5t-146 137 t-82 196t-26 227.5zM504 578q0 -66 8 -134t33.5 -122.5t72.5 -89t125 -34.5q64 0 106 21t67 58t35.5 86.5t10.5 106.5v258q0 115 -57.5 166.5t-163.5 51.5q-81 0 -128 -29.5t-71 -80.5t-31 -117.5t-7 -140.5z" />
<glyph unicode="r" horiz-adv-x="1076" d="M255 0v1156h261l24 -152h3q45 88 117.5 131t198.5 43h76v-266h-75q-69 0 -126 -9t-97 -34.5t-62 -72t-22 -123.5v-673h-298z" />
<glyph unicode="s" horiz-adv-x="1247" d="M141 109l102 212q86 -54 181.5 -90.5t197.5 -36.5q83 0 127 26t44 97q0 34 -23 57t-62 41t-89 33.5t-106 33.5q-59 18 -118.5 45t-107 69t-76.5 102t-29 145q0 76 30 138.5t86.5 107t140 68.5t192.5 24q106 0 209 -22.5t202 -70.5l-76 -221q-71 40 -148 64.5t-159 24.5 q-89 0 -141.5 -19t-52.5 -76q0 -33 24 -56t63 -40.5t90 -34t105 -33.5q61 -20 120 -45t106 -66t76 -101t29 -146q0 -188 -117.5 -276t-335.5 -88q-129 0 -251 33t-233 101z" />
<glyph unicode="t" horiz-adv-x="975" d="M99 894v240h178v310h297v-310h246v-240h-246v-531q0 -44 4.5 -70t22.5 -39.5t55 -17.5t102 -4h62v-236q-57 -7 -100.5 -10t-87.5 -3q-110 0 -180 18.5t-110 60.5t-54 110q-13 59 -12 145v24v553h-177z" />
<glyph unicode="u" horiz-adv-x="1504" d="M255 427v729h298v-627q0 -68 3.5 -124.5t22 -97t56.5 -63t106 -22.5q64 0 105 16.5t64 48t32.5 77.5t9.5 106v686h298v-1156h-267l-18 124h-5q-50 -72 -128 -112t-193 -40q-95 0 -166 23t-120 76t-73.5 141t-24.5 215z" />
<glyph unicode="v" horiz-adv-x="1347" d="M113 1156h317l246 -896h6l246 896h307l-385 -1156h-349z" />
<glyph unicode="w" horiz-adv-x="1961" d="M141 1156h312l175 -858h8l223 858h243l226 -862h7l183 862h302l-319 -1156h-306l-213 723h-9l-208 -723h-310z" />
<glyph unicode="x" horiz-adv-x="1340" d="M99 0l390 604l-345 552h337l201 -371h7l201 371h311l-350 -545l391 -611h-344l-232 413h-1l-227 -413h-339z" />
<glyph unicode="y" horiz-adv-x="1373" d="M113 1156h318l261 -824h5l245 824h318l-423 -1156q-48 -127 -89 -213.5t-91 -139.5t-117.5 -75.5t-166.5 -22.5q-37 0 -74 2t-94 9v249q18 -3 49.5 -5t72.5 -2q42 0 71 6.5t49 23.5t34.5 45t30.5 71l24 65z" />
<glyph unicode="z" horiz-adv-x="1196" d="M156 0v208l512 704h-505v244h868v-225l-503 -691h513v-240h-885z" />
<glyph unicode="{" horiz-adv-x="954" d="M170 577v199q35 6 57 23t34 40.5t16 53t4 63.5v412q0 85 18.5 142t57 91.5t97 49t140.5 14.5h149v-181h-64q-51 0 -78.5 -9.5t-40.5 -30t-15 -54.5t-2 -83v-402q0 -41 -6.5 -72t-21 -57t-38 -49.5t-57.5 -50.5q34 -25 57.5 -48t38 -49t21 -58t6.5 -73v-369q0 -52 3 -86 t16.5 -54.5t41 -28.5t76.5 -8h63v-178h-149q-82 0 -140.5 14t-97 48t-57 91t-18.5 143v379q0 34 -3.5 63t-15.5 52t-34 39.5t-58 23.5z" />
<glyph unicode="|" horiz-adv-x="722" d="M255 -467v1951h213v-1951h-213z" />
<glyph unicode="}" horiz-adv-x="954" d="M212 -98h65q50 0 77.5 8t40 28.5t15.5 54.5t3 86v369q0 41 6.5 73t20.5 58t36.5 49t56.5 48q-34 27 -56.5 50.5t-36.5 49.5t-20.5 57t-6.5 72v402q0 50 -3 83.5t-15.5 54t-40 30t-77.5 9.5h-65v181h150q82 0 141 -14.5t97 -49t55.5 -91.5t17.5 -142v-412q0 -34 4.5 -63.5 t16.5 -53t34 -40.5t57 -23v-199q-37 -7 -59.5 -23.5t-34 -39.5t-15 -52t-3.5 -63v-379q0 -86 -17.5 -143t-55.5 -91t-97 -48t-141 -14h-150v178z" />
<glyph unicode="~" horiz-adv-x="1192" d="M99 1206q30 52 59 88t61.5 57.5t71.5 31t88 9.5q55 0 106.5 -15t100.5 -32.5t96.5 -32.5t92.5 -15q44 0 78 22t59 71l181 -117q-37 -95 -113 -142.5t-172 -47.5q-55 0 -107 14.5t-100.5 32t-94.5 31.5t-93 14q-48 0 -77.5 -19t-61.5 -75z" />
<glyph unicode="&#xa1;" horiz-adv-x="800" d="M212 1004q0 34 14 61.5t39.5 47.5t59.5 31.5t74 11.5t74.5 -11.5t60 -31.5t40 -47.5t14.5 -61.5q0 -33 -14.5 -61t-40 -48.5t-60.5 -32t-73 -11.5q-40 0 -74.5 11.5t-60 32t-39.5 49t-14 60.5zM238 -280l42 998h243l41 -998h-326z" />
<glyph unicode="&#xa2;" horiz-adv-x="1271" d="M198 714q0 218 97.5 356.5t290.5 178.5v165h270v-164q72 -11 135.5 -42t131.5 -81l-124 -205q-33 28 -62 48.5t-58.5 33.5t-61.5 18.5t-70 5.5q-68 0 -115.5 -24t-77 -65t-43 -97.5t-13.5 -121.5q0 -154 61.5 -244t191.5 -90q31 0 62 5t63.5 19t69.5 37.5t78 61.5 l120 -191q-72 -62 -140 -98t-148 -53v-167h-270v167q-93 21 -166 68.5t-122 117.5t-74.5 161t-25.5 200z" />
<glyph unicode="&#xa3;" horiz-adv-x="1253" d="M156 0v232h24q89 0 129 53.5t40 155.5q0 17 -0.5 35t-2.5 40.5t-5.5 52t-10.5 70.5h-163v232h139q-11 61 -20 116t-9 119q0 168 110.5 249.5t311.5 81.5q110 0 207.5 -22t193.5 -67l-56 -252q-61 40 -130.5 65.5t-158.5 25.5q-105 0 -145 -38.5t-40 -111.5q0 -33 5 -72.5 t15 -93.5h314v-232h-277q18 -79 23 -128.5t5 -86.5q0 -54 -10 -92.5t-33 -75.5v-4h514v-252h-970z" />
<glyph unicode="&#xa4;" horiz-adv-x="1526" d="M127 470l46 154h118q-3 23 -2 44v46v33t2 35h-142l45 154h116q20 113 65 206t116.5 158.5t171 101t229.5 35.5q76 0 143 -14t127.5 -42.5t118 -71.5t114.5 -101l-176 -187q-72 86 -152.5 126.5t-174.5 40.5q-124 0 -192 -63.5t-92 -188.5h502l-44 -154h-473 q-3 -16 -3 -32v-37q0 -24 1.5 -45.5t2.5 -43.5h458l-45 -154h-393q10 -54 30.5 -100t53 -79.5t80 -51.5t110.5 -18q100 0 188 43t170 128l153 -197q-110 -110 -232 -165t-270 -55q-136 0 -238 35t-172.5 99.5t-113.5 155.5t-65 205h-181z" />
<glyph unicode="&#xa5;" horiz-adv-x="1526" d="M127 1414h344l304 -591l304 591h320l-314 -568h232v-191h-340l-51 -93v-126h391v-188h-391v-248h-304v248h-401v188h401v113l-60 106h-341v191h227z" />
<glyph unicode="&#xa6;" horiz-adv-x="719" d="M255 339h210v-806h-210v806zM255 677v807h210v-807h-210z" />
<glyph unicode="&#xa7;" horiz-adv-x="1212" d="M170 -48l96 208q98 -59 182 -90.5t162 -31.5q68 0 100.5 25t32.5 64q0 38 -28 62.5t-97 55.5q-72 25 -133 47.5t-112 51.5q-99 51 -146 109.5t-47 147.5q0 113 65 174t186 76v8q-112 35 -174.5 100.5t-62.5 167.5q0 69 27 126t79 98t130 63.5t180 22.5q110 0 202.5 -20 t191.5 -65l-76 -225q-76 42 -145 65t-144 23q-61 0 -102 -16.5t-41 -62.5q0 -33 23.5 -56t94.5 -49q42 -16 77 -28.5t66 -24.5t60.5 -24.5t63.5 -27.5q75 -38 118 -97.5t43 -151.5q0 -100 -55 -167t-182 -89v-5q48 -14 89.5 -39t72 -59.5t48 -80t17.5 -100.5 q0 -62 -21.5 -119.5t-72 -100.5t-131 -69t-197.5 -26q-64 0 -120 7t-109 23t-104.5 41t-106.5 59zM436 619q0 -45 38.5 -76.5t136.5 -31.5q174 -1 174 108q0 52 -39.5 80.5t-134.5 28.5q-38 0 -70.5 -5t-56 -17t-36 -33t-12.5 -54z" />
<glyph unicode="&#xa8;" horiz-adv-x="898" d="M57 1440q0 34 12 61.5t33 48.5t48.5 33t61.5 12q31 0 59.5 -12t49 -33t32.5 -48.5t12 -61.5q0 -31 -12 -58.5t-32.5 -48t-49 -33t-59.5 -12.5q-34 0 -61.5 12.5t-48.5 33t-33 48t-12 58.5zM567 1440q0 34 13 61.5t32.5 48.5t49.5 33t61 12q33 0 60 -12t48.5 -33 t32.5 -48.5t11 -61.5q0 -31 -11 -58.5t-32.5 -48t-49 -33t-59.5 -12.5q-31 0 -61 12.5t-49.5 33t-32.5 48t-13 58.5z" />
<glyph unicode="&#xa9;" horiz-adv-x="1831" d="M184 709q0 151 57 284t156 232t233 156t285 57q153 0 286 -57t232.5 -156t157 -232t57.5 -284q0 -153 -57.5 -286t-157 -232.5t-232.5 -157t-286 -57.5q-151 0 -285 57.5t-233 157t-156 232.5t-57 286zM283 710q0 -130 50 -244.5t135.5 -201t201.5 -136t248 -49.5 q130 0 245.5 49.5t201 136t135.5 201t50 244.5q0 132 -50 247t-135.5 200.5t-201 136t-245.5 50.5q-132 0 -248 -50.5t-201.5 -136t-135.5 -200.5t-50 -247zM511 714q0 99 29 181t83 140t132.5 90.5t179.5 32.5q99 0 180.5 -34.5t154.5 -107.5l-119 -135q-93 107 -208 108 q-119 0 -174 -73.5t-55 -202.5q0 -134 58 -208.5t173 -74.5q64 0 119 25.5t109 76.5l101 -136q-75 -68 -154.5 -102t-176.5 -34q-113 0 -195 36t-135 98.5t-77.5 144.5t-24.5 175z" />
<glyph unicode="&#xaa;" horiz-adv-x="980" d="M170 980q0 126 106 181t295 55v14q0 20 -2 35t-10.5 25t-27.5 15t-53 5q-45 0 -106 -13.5t-129 -51.5l-59 131q82 40 155 58.5t157 18.5q78 0 127.5 -16t78.5 -48.5t40.5 -83t11.5 -121.5v-204q0 -16 2 -27t8.5 -19.5t17.5 -17t28 -19.5l-114 -112q-41 8 -66 26.5 t-37 47.5h-2q-100 -72 -212 -73q-96 0 -152.5 52.5t-56.5 141.5zM349 993q0 -41 22 -63t60 -22q31 0 63 10.5t77 43.5v144q-124 0 -173 -29.5t-49 -83.5z" />
<glyph unicode="&#xab;" horiz-adv-x="1254" d="M156 635l250 429l202 -102l-195 -328l195 -328l-202 -101zM645 635l250 429l204 -102l-198 -328l198 -328l-204 -101z" />
<glyph unicode="&#xad;" horiz-adv-x="999" d="M212 491v261h576v-261h-576z" />
<glyph unicode="&#xae;" horiz-adv-x="1103" d="M184 1126q0 75 29 140t78.5 114t116.5 76.5t142 27.5q76 0 143.5 -27.5t117.5 -76.5t79 -114t29 -140t-29 -140t-79 -114t-117.5 -77t-143.5 -28q-75 0 -142 28t-116.5 77t-78.5 114t-29 140zM239 1126q0 -64 24 -119t66.5 -96t100 -64.5t122.5 -23.5t121.5 23.5t99 64.5 t67 96t24.5 119t-24.5 119.5t-67 97.5t-99 66t-121.5 24t-122.5 -24t-100 -66t-66.5 -98t-24 -119zM400 931v399q37 3 77.5 3.5t72.5 0.5q33 0 64.5 -5t56.5 -19t40.5 -39.5t15.5 -66.5q0 -70 -62 -104q3 -4 15 -31.5t24.5 -58t23 -55t12.5 -24.5h-118l-55 134q-1 10 -10 10 h-53v-144h-104zM501 1148h59q34 0 48 14.5t14 38.5q0 25 -15.5 37t-56.5 12h-49v-102z" />
<glyph unicode="&#xaf;" horiz-adv-x="1183" d="M246 1352v207h702v-207h-702z" />
<glyph unicode="&#xb0;" horiz-adv-x="1001" d="M170 1126q0 68 26 128t70.5 105t105.5 71.5t129 26.5t128.5 -26.5t105 -71.5t71 -105t26.5 -128t-26.5 -129t-71 -105.5t-105 -70.5t-128.5 -26t-129 26t-105.5 70.5t-70.5 105.5t-26 129zM267 1126q0 -48 18.5 -90.5t50.5 -74.5t74.5 -50.5t90.5 -18.5t91 18.5t74 50.5 t49.5 74.5t18.5 90.5t-18.5 90.5t-49.5 73.5t-74 49.5t-91 18.5t-90.5 -18.5t-74.5 -49.5t-50.5 -73.5t-18.5 -90.5z" />
<glyph unicode="&#xb1;" horiz-adv-x="1357" d="M184 0v257h990v-257h-990zM184 798v257h363v332h268v-332h359v-257h-359v-357h-268v357h-363z" />
<glyph unicode="&#xb2;" horiz-adv-x="895" d="M113 1444q42 35 82.5 59.5t81.5 40t83.5 22.5t90.5 7q134 0 215 -66.5t81 -191.5q0 -51 -17 -99.5t-58 -101t-109 -111t-168 -126.5h359v-177h-603l-32 170q25 21 64.5 50.5t85.5 65t92 74t83 78t60.5 79t23.5 74.5q0 18 -6 35.5t-18.5 31t-34.5 21.5t-56 8 q-51 0 -101 -20.5t-100 -69.5z" />
<glyph unicode="&#xb3;" horiz-adv-x="913" d="M113 791l92 147q64 -48 113.5 -63.5t102.5 -15.5q64 0 103 24t39 77q0 54 -33.5 76t-109.5 22h-116v161h98q62 0 98 21.5t36 73.5q0 16 -6.5 31.5t-20.5 27.5t-38 19.5t-59 7.5q-50 0 -97.5 -17.5t-92.5 -55.5l-95 140q44 30 83 51t77 33.5t76.5 18.5t83.5 6 q136 0 218 -61t82 -176q0 -64 -25.5 -109t-70.5 -72q59 -24 90 -76t31 -126q0 -123 -91 -195t-258 -72q-91 0 -166.5 26t-143.5 76z" />
<glyph unicode="&#xb4;" horiz-adv-x="726" d="M91 1385l287 234l246 -123l-360 -205z" />
<glyph unicode="&#xb5;" horiz-adv-x="1504" d="M255 -461h271v443q51 -10 113 -10q115 0 193 39q79 41 128 113h5l18 -124h267v1156h-298v-686q0 -59 -10 -107q-8 -45 -31.5 -76.5t-64.5 -48t-105 -16.5q-68 0 -106 23t-56.5 63t-22 96.5t-3.5 124.5v627h-298v-1617z" />
<glyph unicode="&#xb6;" horiz-adv-x="1308" d="M198 535q0 110 39 206t116.5 168.5t193 113.5t268.5 41h239v-1064h-239q-153 0 -268.5 41t-193 113t-116.5 169.5t-39 211.5z" />
<glyph unicode="&#xb7;" horiz-adv-x="760" d="M198 574q0 38 14 70.5t39.5 57.5t59 38.5t71.5 13.5q37 0 70 -13.5t58 -38.5t39 -57.5t14 -70.5t-14 -71t-39 -58t-58 -39t-70 -14q-38 0 -71.5 14t-59 39t-39.5 58t-14 71z" />
<glyph unicode="&#xb8;" horiz-adv-x="1182" d="M448 -436l44 101q30 -20 67.5 -31.5t69.5 -11.5q16 0 31.5 5t28.5 15t21 25.5t8 38.5q0 35 -19 57.5t-78 22.5q-11 0 -29.5 -3.5t-38.5 -14.5l-52 37l92 195h113l-54 -119l1 -3q13 3 23 5t24 2q78 0 126.5 -45t48.5 -130q0 -44 -14.5 -82t-43 -65.5t-70 -43t-95.5 -15.5 q-59 0 -109.5 16t-94.5 44z" />
<glyph unicode="&#xb9;" horiz-adv-x="719" d="M85 1349l284 212h160v-861h-214v593l-145 -96z" />
<glyph unicode="&#xba;" horiz-adv-x="978" d="M170 1123q0 72 19 133t58 105.5t99 70t142 25.5q156 0 238.5 -88.5t82.5 -245.5q0 -153 -82 -243.5t-240 -90.5t-237.5 90.5t-79.5 243.5zM355 1123q0 -98 30.5 -143t102.5 -45t102.5 45t30.5 143q0 89 -27.5 136.5t-105.5 47.5t-105.5 -47.5t-27.5 -136.5z" />
<glyph unicode="&#xbb;" horiz-adv-x="1251" d="M156 306l195 328l-195 328l202 102l250 -429l-250 -430zM644 306l198 328l-198 328l203 102l249 -429l-249 -430z" />
<glyph unicode="&#xbc;" horiz-adv-x="2305" d="M226 1349l285 212h157v-861h-214v593l-143 -96zM450 -82l1087 1643h186l-1085 -1643h-188zM1317 259l368 522h236v-512h123v-183h-123v-168h-218v168h-341zM1511 255h216v331z" />
<glyph unicode="&#xbd;" horiz-adv-x="2305" d="M226 1349l285 212h157v-861h-214v593l-143 -96zM448 -82l1087 1643h185l-1085 -1643h-187zM1397 662q88 69 167 100t174 31q134 0 215 -67t81 -191q0 -51 -18 -100t-59 -101.5t-108 -110.5t-167 -125h360v-180h-604l-32 168q25 21 65.5 51.5t85.5 66t92 74.5t83.5 78.5 t60 78.5t23.5 74q0 18 -5.5 36.5t-19 33t-35.5 23t-56 8.5q-102 0 -201 -94z" />
<glyph unicode="&#xbe;" horiz-adv-x="2305" d="M184 791l92 147q64 -48 113 -63.5t103 -15.5q64 0 103 24t39 77q0 54 -33.5 76t-109.5 22h-116v161h97q62 0 98.5 21.5t36.5 73.5q0 16 -6.5 31.5t-20.5 27.5t-38 19.5t-60 7.5q-50 0 -97 -17.5t-92 -55.5l-95 140q44 30 83 51t77 33.5t76 18.5t84 6q68 0 123 -16 t94 -45.5t61 -74t22 -101.5q0 -64 -25.5 -109t-71.5 -72q59 -24 90.5 -76t31.5 -126q0 -123 -91 -195t-258 -72q-91 0 -166.5 26t-143.5 76zM578 -82l1087 1643h185l-1083 -1643h-189zM1447 259l366 522h236v-512h123v-183h-123v-168h-217v168h-341zM1639 255h217v331z" />
<glyph unicode="&#xbf;" horiz-adv-x="1264" d="M198 105q0 130 57.5 213.5t181.5 149.5l83 44q24 13 37.5 22t20 22t7.5 32t1 51v89h282v-152q0 -48 -5.5 -81t-20.5 -57t-41 -43t-66 -40l-83 -42q-41 -21 -72 -39t-51.5 -39t-31 -49t-10.5 -67q0 -82 54 -129t153 -47q89 0 160 29t135 89l134 -217q-59 -41 -114.5 -69 t-111 -46t-116 -25.5t-129.5 -7.5q-113 0 -198 29t-141.5 82t-85.5 128.5t-29 169.5zM546 1004q0 34 14 61.5t39.5 47.5t59.5 31.5t74 11.5t75 -11.5t60.5 -31.5t40.5 -47.5t15 -61.5q0 -33 -15 -61t-40.5 -48.5t-60 -32t-73.5 -11.5q-41 0 -75.5 11.5t-60 32t-39.5 49 t-14 60.5z" />
<glyph unicode="&#xc0;" horiz-adv-x="1601" d="M113 0l511 1420h341l523 -1420h-328l-106 301h-515l-109 -301h-317zM432 1751l246 123l287 -237l-174 -94zM605 550h379l-188 573h-7z" />
<glyph unicode="&#xc1;" horiz-adv-x="1601" d="M113 0l511 1420h341l523 -1420h-328l-106 301h-515l-109 -301h-317zM605 550h379l-188 573h-7zM630 1640l287 234l246 -123l-360 -205z" />
<glyph unicode="&#xc2;" horiz-adv-x="1601" d="M113 0l511 1420h341l523 -1420h-328l-106 301h-515l-109 -301h-317zM457 1674l338 199l338 -199l-100 -142l-236 130l-236 -134zM605 550h379l-188 573h-7z" />
<glyph unicode="&#xc3;" horiz-adv-x="1601" d="M113 0l511 1420h341l523 -1420h-328l-106 301h-515l-109 -301h-317zM417 1648q45 107 95 154.5t133 47.5q44 0 84.5 -16t78 -36t74.5 -36t69 -16q74 0 115 104l139 -92q-33 -98 -94.5 -150t-137.5 -52q-48 0 -90 16.5t-78.5 35t-72 34.5t-66.5 16q-38 0 -65 -24t-47 -82z M605 550h379l-188 573h-7z" />
<glyph unicode="&#xc4;" horiz-adv-x="1601" d="M113 0l511 1420h341l523 -1420h-328l-106 301h-515l-109 -301h-317zM384 1695q0 34 12 61.5t33 48.5t48.5 33t61.5 12q31 0 59.5 -12t49 -33t32.5 -48.5t12 -61.5q0 -31 -12 -58.5t-32.5 -48t-49 -33t-59.5 -12.5q-34 0 -61.5 12.5t-48.5 33t-33 48t-12 58.5zM605 550 h379l-188 573h-7zM894 1695q0 34 13 61.5t32.5 48.5t49.5 33t61 12q33 0 60 -12t48.5 -33t32.5 -48.5t11 -61.5q0 -31 -11 -58.5t-32.5 -48t-49 -33t-59.5 -12.5q-31 0 -61 12.5t-49.5 33t-32.5 48t-13 58.5z" />
<glyph unicode="&#xc5;" horiz-adv-x="1601" d="M113 0l511 1420h341l523 -1420h-328l-106 301h-515l-109 -301h-317zM582 1734q0 45 15.5 82t43.5 64t65.5 41t82.5 14q44 0 82.5 -14t66.5 -41t43.5 -64t15.5 -82q0 -44 -15.5 -80.5t-43.5 -62.5t-66.5 -40.5t-82.5 -14.5q-45 0 -82.5 15t-65.5 41t-43.5 62.5t-15.5 79.5 zM605 550h379l-188 573h-7zM690 1734q0 -42 28.5 -70.5t70.5 -28.5q41 0 69 28.5t28 70.5q0 44 -27.5 72.5t-69.5 28.5t-70.5 -28.5t-28.5 -72.5z" />
<glyph unicode="&#xc6;" horiz-adv-x="2145" d="M85 0l710 1414h1146v-256h-607v-304h549v-259h-549v-343h628v-252h-935v301h-487l-143 -301h-312zM653 550h374v608h-82z" />
<glyph unicode="&#xc7;" horiz-adv-x="1504" d="M198 714q0 157 42.5 290t126.5 229.5t208 150t286 53.5q153 0 275.5 -56.5t235.5 -172.5l-185 -204q-72 88 -147 131t-170 43q-178 0 -266 -119.5t-88 -345.5q0 -103 19 -191t61.5 -152t110 -101t163.5 -37q100 0 182 44.5t163 129.5l163 -208q-208 -208 -478 -218 l-46 -99l3 -3q11 3 22 5t25 2q78 0 126.5 -45t48.5 -130q0 -44 -15 -82t-44 -65.5t-70.5 -43t-95.5 -15.5q-59 0 -108.5 16t-94.5 44l45 101q30 -20 67.5 -31.5t69.5 -11.5q14 0 30.5 5t29 15t21 25.5t8.5 38.5q0 35 -19 57.5t-78 22.5q-11 0 -30 -3.5t-38 -14.5l-53 37 l82 177q-154 11 -265 69.5t-183 155t-106 226t-34 281.5z" />
<glyph unicode="&#xc8;" horiz-adv-x="1371" d="M255 0v1414h913v-256h-606v-304h548v-259h-548v-343h626v-252h-933zM347 1751l246 123l287 -237l-174 -94z" />
<glyph unicode="&#xc9;" horiz-adv-x="1371" d="M255 0v1414h913v-256h-606v-304h548v-259h-548v-343h626v-252h-933zM525 1640l287 234l246 -123l-360 -205z" />
<glyph unicode="&#xca;" horiz-adv-x="1371" d="M255 0v1414h913v-256h-606v-304h548v-259h-548v-343h626v-252h-933zM389 1674l338 199l338 -199l-100 -142l-236 130l-236 -134z" />
<glyph unicode="&#xcb;" horiz-adv-x="1371" d="M255 0v1414h913v-256h-606v-304h548v-259h-548v-343h626v-252h-933zM314 1695q0 34 12 61.5t33 48.5t48.5 33t61.5 12q31 0 59.5 -12t49 -33t32.5 -48.5t12 -61.5q0 -31 -12 -58.5t-32.5 -48t-49 -33t-59.5 -12.5q-34 0 -61.5 12.5t-48.5 33t-33 48t-12 58.5zM824 1695 q0 34 13 61.5t32.5 48.5t49.5 33t61 12q33 0 60 -12t48.5 -33t32.5 -48.5t11 -61.5q0 -31 -11 -58.5t-32.5 -48t-49 -33t-59.5 -12.5q-31 0 -61 12.5t-49.5 33t-32.5 48t-13 58.5z" />
<glyph unicode="&#xcc;" horiz-adv-x="816" d="M38 1751l246 123l287 -237l-174 -94zM255 0v1414h307v-1414h-307z" />
<glyph unicode="&#xcd;" horiz-adv-x="816" d="M234 1640l287 234l246 -123l-360 -205zM255 0v1414h307v-1414h-307z" />
<glyph unicode="&#xce;" horiz-adv-x="816" d="M65 1674l338 199l338 -199l-100 -142l-236 130l-236 -134zM255 0v1414h307v-1414h-307z" />
<glyph unicode="&#xcf;" horiz-adv-x="816" d="M-7 1695q0 34 12 61.5t33 48.5t48.5 33t61.5 12q31 0 59.5 -12t49 -33t32.5 -48.5t12 -61.5q0 -31 -12 -58.5t-32.5 -48t-49 -33t-59.5 -12.5q-34 0 -61.5 12.5t-48.5 33t-33 48t-12 58.5zM255 0v1414h307v-1414h-307zM503 1695q0 34 13 61.5t32.5 48.5t49.5 33t61 12 q33 0 60 -12t48.5 -33t32.5 -48.5t11 -61.5q0 -31 -11 -58.5t-32.5 -48t-49 -33t-59.5 -12.5q-31 0 -61 12.5t-49.5 33t-32.5 48t-13 58.5z" />
<glyph unicode="&#xd0;" horiz-adv-x="1626" d="M110 611v226h145v567q51 6 110 10.5t120.5 7t124 5t118.5 2.5q158 0 288 -42.5t222 -130.5t141.5 -222.5t49.5 -319.5q0 -180 -47 -313.5t-137.5 -222.5t-221.5 -133.5t-299 -44.5h-469v611h-145zM562 242q44 -1 72 -2h68q98 0 172.5 22t127 76.5t79 146.5t26.5 231 q0 85 -12.5 169t-52 150.5t-111 107.5t-188.5 41q-44 0 -91 -1.5t-90 -4.5v-341h243v-226h-243v-369z" />
<glyph unicode="&#xd1;" horiz-adv-x="1708" d="M255 0v1414h291l604 -861h4v861h300v-1414h-284l-611 892h-5v-892h-299zM474 1648q45 107 95 154.5t133 47.5q44 0 84.5 -16t78 -36t74.5 -36t69 -16q74 0 115 104l139 -92q-33 -98 -94.5 -150t-137.5 -52q-48 0 -90 16.5t-78.5 35t-72 34.5t-66.5 16q-38 0 -65 -24 t-47 -82z" />
<glyph unicode="&#xd2;" horiz-adv-x="1742" d="M198 709q0 180 47.5 315.5t135 227.5t212 138.5t280.5 46.5t280 -46.5t211 -138.5t133.5 -227.5t46.5 -315.5q0 -182 -47 -319t-135 -228t-211.5 -136.5t-277.5 -45.5t-278.5 45.5t-213 136.5t-136 227.5t-47.5 319.5zM498 1765l246 123l287 -237l-174 -94zM519 709 q0 -110 16.5 -200t56.5 -152.5t108.5 -96.5t173.5 -34q102 0 170 34t107.5 97t55.5 152.5t16 199.5q0 109 -16 197t-56.5 150.5t-107.5 96.5t-170 34q-105 0 -173 -33.5t-108 -95.5t-56.5 -150.5t-16.5 -198.5z" />
<glyph unicode="&#xd3;" horiz-adv-x="1742" d="M198 709q0 180 47.5 315.5t135 227.5t212 138.5t280.5 46.5t280 -46.5t211 -138.5t133.5 -227.5t46.5 -315.5q0 -182 -47 -319t-135 -228t-211.5 -136.5t-277.5 -45.5t-278.5 45.5t-213 136.5t-136 227.5t-47.5 319.5zM519 709q0 -110 16.5 -200t56.5 -152.5t108.5 -96.5 t173.5 -34q102 0 170 34t107.5 97t55.5 152.5t16 199.5q0 109 -16 197t-56.5 150.5t-107.5 96.5t-170 34q-105 0 -173 -33.5t-108 -95.5t-56.5 -150.5t-16.5 -198.5zM713 1654l287 234l246 -123l-360 -205z" />
<glyph unicode="&#xd4;" horiz-adv-x="1742" d="M198 709q0 180 47.5 315.5t135 227.5t212 138.5t280.5 46.5t280 -46.5t211 -138.5t133.5 -227.5t46.5 -315.5q0 -182 -47 -319t-135 -228t-211.5 -136.5t-277.5 -45.5t-278.5 45.5t-213 136.5t-136 227.5t-47.5 319.5zM519 709q0 -110 16.5 -200t56.5 -152.5t108.5 -96.5 t173.5 -34q102 0 170 34t107.5 97t55.5 152.5t16 199.5q0 109 -16 197t-56.5 150.5t-107.5 96.5t-170 34q-105 0 -173 -33.5t-108 -95.5t-56.5 -150.5t-16.5 -198.5zM530 1688l338 199l338 -199l-100 -142l-236 130l-236 -134z" />
<glyph unicode="&#xd5;" horiz-adv-x="1742" d="M198 709q0 180 47.5 315.5t135 227.5t212 138.5t280.5 46.5t280 -46.5t211 -138.5t133.5 -227.5t46.5 -315.5q0 -182 -47 -319t-135 -228t-211.5 -136.5t-277.5 -45.5t-278.5 45.5t-213 136.5t-136 227.5t-47.5 319.5zM473 1662q45 107 95 154.5t133 47.5q44 0 84.5 -16 t78 -36t74.5 -36t69 -16q74 0 115 104l139 -92q-33 -98 -94.5 -150t-137.5 -52q-48 0 -90 16.5t-78.5 35t-72 34.5t-66.5 16q-38 0 -65 -24t-47 -82zM519 709q0 -110 16.5 -200t56.5 -152.5t108.5 -96.5t173.5 -34q102 0 170 34t107.5 97t55.5 152.5t16 199.5q0 109 -16 197 t-56.5 150.5t-107.5 96.5t-170 34q-105 0 -173 -33.5t-108 -95.5t-56.5 -150.5t-16.5 -198.5z" />
<glyph unicode="&#xd6;" horiz-adv-x="1742" d="M198 709q0 180 47.5 315.5t135 227.5t212 138.5t280.5 46.5t280 -46.5t211 -138.5t133.5 -227.5t46.5 -315.5q0 -182 -47 -319t-135 -228t-211.5 -136.5t-277.5 -45.5t-278.5 45.5t-213 136.5t-136 227.5t-47.5 319.5zM467 1709q0 34 12 61.5t33 48.5t48.5 33t61.5 12 q31 0 59.5 -12t49 -33t32.5 -48.5t12 -61.5q0 -31 -12 -58.5t-32.5 -48t-49 -33t-59.5 -12.5q-34 0 -61.5 12.5t-48.5 33t-33 48t-12 58.5zM519 709q0 -110 16.5 -200t56.5 -152.5t108.5 -96.5t173.5 -34q102 0 170 34t107.5 97t55.5 152.5t16 199.5q0 109 -16 197 t-56.5 150.5t-107.5 96.5t-170 34q-105 0 -173 -33.5t-108 -95.5t-56.5 -150.5t-16.5 -198.5zM977 1709q0 34 13 61.5t32.5 48.5t49.5 33t61 12q33 0 60 -12t48.5 -33t32.5 -48.5t11 -61.5q0 -31 -11 -58.5t-32.5 -48t-49 -33t-59.5 -12.5q-31 0 -61 12.5t-49.5 33t-32.5 48 t-13 58.5z" />
<glyph unicode="&#xd7;" horiz-adv-x="1357" d="M236 307l270 264l-270 261l181 181l260 -270l262 270l183 -181l-272 -261l272 -264l-183 -183l-262 272l-260 -272z" />
<glyph unicode="&#xd8;" horiz-adv-x="1742" d="M156 146l134 138q-92 168 -92 425q0 180 46.5 315.5t133.5 227.5t211.5 138.5t280.5 46.5q130 0 234.5 -31t189.5 -92l119 123l161 -154l-131 -137q50 -85 75.5 -194.5t25.5 -242.5q0 -182 -47 -319t-135 -228t-211.5 -136.5t-280.5 -45.5q-133 0 -243.5 32.5 t-195.5 100.5l-130 -133zM519 709q0 -50 3 -94.5t8 -84.5l570 586q-41 35 -98 53t-132 18q-105 0 -173 -33.5t-106.5 -95.5t-55 -150.5t-16.5 -198.5zM625 311q41 -41 101 -63t145 -22q105 0 173 34t107.5 97t55.5 152.5t16 199.5q0 54 -3.5 103t-13.5 93z" />
<glyph unicode="&#xd9;" horiz-adv-x="1643" d="M255 574v840h307v-797q0 -76 6 -145.5t31.5 -122t77 -83t142.5 -30.5q92 0 144.5 30.5t79 83t33 121.5t6.5 146v797h307v-840q0 -140 -29 -251t-96 -188t-176 -118t-269 -41q-158 0 -265.5 40.5t-174 117.5t-95.5 188t-29 252zM432 1751l246 123l287 -237l-174 -94z" />
<glyph unicode="&#xda;" horiz-adv-x="1643" d="M255 574v840h307v-797q0 -76 6 -145.5t31.5 -122t77 -83t142.5 -30.5q92 0 144.5 30.5t79 83t33 121.5t6.5 146v797h307v-840q0 -140 -29 -251t-96 -188t-176 -118t-269 -41q-158 0 -265.5 40.5t-174 117.5t-95.5 188t-29 252zM660 1640l287 234l246 -123l-360 -205z" />
<glyph unicode="&#xdb;" horiz-adv-x="1643" d="M255 574v840h307v-797q0 -76 6 -145.5t31.5 -122t77 -83t142.5 -30.5q92 0 144.5 30.5t79 83t33 121.5t6.5 146v797h307v-840q0 -140 -29 -251t-96 -188t-176 -118t-269 -41q-158 0 -265.5 40.5t-174 117.5t-95.5 188t-29 252zM478 1674l338 199l338 -199l-100 -142 l-236 130l-236 -134z" />
<glyph unicode="&#xdc;" horiz-adv-x="1643" d="M255 574v840h307v-797q0 -76 6 -145.5t31.5 -122t77 -83t142.5 -30.5q92 0 144.5 30.5t79 83t33 121.5t6.5 146v797h307v-840q0 -140 -29 -251t-96 -188t-176 -118t-269 -41q-158 0 -265.5 40.5t-174 117.5t-95.5 188t-29 252zM404 1695q0 34 12 61.5t33 48.5t48.5 33 t61.5 12q31 0 59.5 -12t49 -33t32.5 -48.5t12 -61.5q0 -31 -12 -58.5t-32.5 -48t-49 -33t-59.5 -12.5q-34 0 -61.5 12.5t-48.5 33t-33 48t-12 58.5zM914 1695q0 34 13 61.5t32.5 48.5t49.5 33t61 12q33 0 60 -12t48.5 -33t32.5 -48.5t11 -61.5q0 -31 -11 -58.5t-32.5 -48 t-49 -33t-59.5 -12.5q-31 0 -61 12.5t-49.5 33t-32.5 48t-13 58.5z" />
<glyph unicode="&#xdd;" horiz-adv-x="1436" d="M71 1414h349l300 -599l314 599h332l-496 -864v-550h-304v545zM587 1640l287 234l246 -123l-360 -205z" />
<glyph unicode="&#xde;" horiz-adv-x="1485" d="M255 0v1414h304v-189q45 3 92.5 4t89.5 1q119 0 223.5 -21t182.5 -74t123 -142.5t45 -225.5q0 -100 -27.5 -185.5t-87.5 -147t-155 -96.5t-227 -35h-256v-303h-307zM562 547h200q52 0 98.5 6t80 28.5t53 67t19.5 122.5q0 59 -13.5 100t-44.5 66.5t-81.5 37t-123.5 11.5 q-41 0 -88.5 -1.5t-99.5 -7.5v-430z" />
<glyph unicode="&#xdf;" horiz-adv-x="1503" d="M127 894v240h164v6q0 86 18 160.5t66.5 129.5t135 87t224.5 32q215 0 319 -88t104 -259q0 -51 -9.5 -95.5t-31.5 -84.5t-56 -79t-82 -80v-2q82 -34 147.5 -72t111.5 -88t71 -117.5t25 -159.5q0 -117 -36 -198.5t-100.5 -131.5t-152 -72t-191.5 -22h-107v226 q51 0 99.5 4.5t87.5 23.5t62.5 57t23.5 105q0 48 -13.5 87.5t-47.5 72t-92.5 61t-148.5 52.5l-33 178q58 51 97.5 92t64 77t35 70.5t10.5 74.5q0 33 -7.5 61t-25 48.5t-47.5 32.5t-72 12q-45 0 -74.5 -13.5t-46 -38t-23 -60t-6.5 -79.5v-1144h-299v894h-164z" />
<glyph unicode="&#xe0;" horiz-adv-x="1414" d="M170 325q0 92 31.5 159.5t86 114t126 75t149.5 44.5t157 21t151 5v49q0 86 -37.5 124t-131.5 38q-109 0 -211.5 -31.5t-196.5 -84.5l-86 210q127 64 250 96.5t266 32.5q123 0 208 -26t136.5 -81t74 -139.5t22.5 -200.5v-428q0 -54 15 -88t65 -64l-181 -171 q-59 14 -104 49t-59 88h-4q-81 -68 -175 -105t-202 -37q-81 0 -145.5 24t-110 70t-70 111t-24.5 145zM347 1496l246 123l287 -237l-174 -94zM462 344q0 -74 37.5 -121.5t115.5 -47.5q71 0 134 28t122 73v295q-61 0 -132 -6t-132.5 -29t-103 -69t-41.5 -123z" />
<glyph unicode="&#xe1;" horiz-adv-x="1414" d="M170 325q0 92 31.5 159.5t86 114t126 75t149.5 44.5t157 21t151 5v49q0 86 -37.5 124t-131.5 38q-109 0 -211.5 -31.5t-196.5 -84.5l-86 210q127 64 250 96.5t266 32.5q123 0 208 -26t136.5 -81t74 -139.5t22.5 -200.5v-428q0 -54 15 -88t65 -64l-181 -171 q-59 14 -104 49t-59 88h-4q-81 -68 -175 -105t-202 -37q-81 0 -145.5 24t-110 70t-70 111t-24.5 145zM462 344q0 -74 37.5 -121.5t115.5 -47.5q71 0 134 28t122 73v295q-61 0 -132 -6t-132.5 -29t-103 -69t-41.5 -123zM537 1385l287 234l246 -123l-360 -205z" />
<glyph unicode="&#xe2;" horiz-adv-x="1414" d="M170 325q0 92 31.5 159.5t86 114t126 75t149.5 44.5t157 21t151 5v49q0 86 -37.5 124t-131.5 38q-109 0 -211.5 -31.5t-196.5 -84.5l-86 210q127 64 250 96.5t266 32.5q123 0 208 -26t136.5 -81t74 -139.5t22.5 -200.5v-428q0 -54 15 -88t65 -64l-181 -171 q-59 14 -104 49t-59 88h-4q-81 -68 -175 -105t-202 -37q-81 0 -145.5 24t-110 70t-70 111t-24.5 145zM359 1419l338 199l338 -199l-100 -142l-236 130l-236 -134zM462 344q0 -74 37.5 -121.5t115.5 -47.5q71 0 134 28t122 73v295q-61 0 -132 -6t-132.5 -29t-103 -69 t-41.5 -123z" />
<glyph unicode="&#xe3;" horiz-adv-x="1414" d="M170 325q0 92 31.5 159.5t86 114t126 75t149.5 44.5t157 21t151 5v49q0 86 -37.5 124t-131.5 38q-109 0 -211.5 -31.5t-196.5 -84.5l-86 210q127 64 250 96.5t266 32.5q123 0 208 -26t136.5 -81t74 -139.5t22.5 -200.5v-428q0 -54 15 -88t65 -64l-181 -171 q-59 14 -104 49t-59 88h-4q-81 -68 -175 -105t-202 -37q-81 0 -145.5 24t-110 70t-70 111t-24.5 145zM289 1393q45 107 95 154.5t133 47.5q44 0 84.5 -16t78 -36t74.5 -36t69 -16q74 0 115 104l139 -92q-33 -98 -94.5 -150t-137.5 -52q-48 0 -90 16.5t-78.5 35t-72 34.5 t-66.5 16q-38 0 -65 -24t-47 -82zM462 344q0 -74 37.5 -121.5t115.5 -47.5q71 0 134 28t122 73v295q-61 0 -132 -6t-132.5 -29t-103 -69t-41.5 -123z" />
<glyph unicode="&#xe4;" horiz-adv-x="1414" d="M170 325q0 92 31.5 159.5t86 114t126 75t149.5 44.5t157 21t151 5v49q0 86 -37.5 124t-131.5 38q-109 0 -211.5 -31.5t-196.5 -84.5l-86 210q127 64 250 96.5t266 32.5q123 0 208 -26t136.5 -81t74 -139.5t22.5 -200.5v-428q0 -54 15 -88t65 -64l-181 -171 q-59 14 -104 49t-59 88h-4q-81 -68 -175 -105t-202 -37q-81 0 -145.5 24t-110 70t-70 111t-24.5 145zM300 1440q0 34 12 61.5t33 48.5t48.5 33t61.5 12q31 0 59.5 -12t49 -33t32.5 -48.5t12 -61.5q0 -31 -12 -58.5t-32.5 -48t-49 -33t-59.5 -12.5q-34 0 -61.5 12.5t-48.5 33 t-33 48t-12 58.5zM462 344q0 -74 37.5 -121.5t115.5 -47.5q71 0 134 28t122 73v295q-61 0 -132 -6t-132.5 -29t-103 -69t-41.5 -123zM810 1440q0 34 13 61.5t32.5 48.5t49.5 33t61 12q33 0 60 -12t48.5 -33t32.5 -48.5t11 -61.5q0 -31 -11 -58.5t-32.5 -48t-49 -33 t-59.5 -12.5q-31 0 -61 12.5t-49.5 33t-32.5 48t-13 58.5z" />
<glyph unicode="&#xe5;" horiz-adv-x="1414" d="M170 325q0 92 31.5 159.5t86 114t126 75t149.5 44.5t157 21t151 5v49q0 86 -37.5 124t-131.5 38q-109 0 -211.5 -31.5t-196.5 -84.5l-86 210q127 64 250 96.5t266 32.5q123 0 208 -26t136.5 -81t74 -139.5t22.5 -200.5v-428q0 -54 15 -88t65 -64l-181 -171 q-59 14 -104 49t-59 88h-4q-81 -68 -175 -105t-202 -37q-81 0 -145.5 24t-110 70t-70 111t-24.5 145zM462 344q0 -74 37.5 -121.5t115.5 -47.5q71 0 134 28t122 73v295q-61 0 -132 -6t-132.5 -29t-103 -69t-41.5 -123zM493 1479q0 45 15.5 82t43.5 64t65.5 41t82.5 14 q44 0 82.5 -14t66.5 -41t43.5 -64t15.5 -82q0 -44 -15.5 -80.5t-43.5 -62.5t-66.5 -40.5t-82.5 -14.5q-45 0 -82.5 15t-65.5 41t-43.5 62.5t-15.5 79.5zM601 1479q0 -42 28.5 -70.5t70.5 -28.5q41 0 69 28.5t28 70.5q0 44 -27.5 72.5t-69.5 28.5t-70.5 -28.5t-28.5 -72.5z " />
<glyph unicode="&#xe6;" horiz-adv-x="2154" d="M170 325q0 116 50 197t142 131.5t220.5 74t285.5 23.5v34q0 40 -3.5 70t-20.5 50.5t-50 31.5t-92 11q-85 0 -191 -27t-217 -88l-90 218q132 66 257 98t263 32q115 0 204 -28.5t143 -94.5q72 64 164 94t194 30q123 0 220.5 -41t166 -119.5t104.5 -192.5t36 -260 q0 -16 -0.5 -38.5t-5.5 -56.5h-776q4 -130 77 -197.5t213 -67.5q164 0 321 98l98 -209q-102 -64 -209 -93.5t-226 -29.5q-149 0 -258 48t-182 137q-89 -88 -204 -138t-265 -50q-89 0 -157.5 24.5t-115.5 71.5t-71.5 112t-24.5 145zM460 339q0 -75 39.5 -122t111.5 -47 q34 0 64.5 5.5t60 19t62 34t70.5 50.5v290q-215 0 -311.5 -57t-96.5 -173zM1171 677h509q-4 59 -19 111t-44.5 89t-75.5 58t-112 21q-119 0 -187 -70t-71 -209z" />
<glyph unicode="&#xe7;" horiz-adv-x="1302" d="M198 573q0 134 37.5 246t110.5 191.5t180.5 123.5t247.5 44q117 0 213 -35.5t188 -107.5l-127 -202q-61 59 -124 84.5t-139 25.5q-81 0 -134.5 -30t-87 -81t-46.5 -116t-13 -135q0 -74 15.5 -141t48.5 -118.5t87 -82t130 -30.5q86 0 154.5 23.5t141.5 80.5l94 -207 q-88 -61 -172 -92t-187 -38l-47 -100l3 -3q13 3 23.5 4t23.5 1q79 0 128 -45t49 -130q0 -44 -15 -81.5t-44 -65t-70.5 -43t-97.5 -15.5q-59 0 -108.5 16t-94.5 42l45 103q30 -20 68 -31t71 -11q14 0 30 4t29 14t21.5 25.5t8.5 38.5q0 35 -20 57.5t-78 22.5q-11 0 -29.5 -2.5 t-38.5 -14.5l-54 36l85 178q-126 8 -220.5 55.5t-158 125.5t-95.5 184t-32 232z" />
<glyph unicode="&#xe8;" horiz-adv-x="1469" d="M198 574q0 157 45.5 271t121.5 188t178 109.5t215 35.5q127 0 222.5 -44.5t160.5 -123.5t98 -191t33 -245v-44q0 -20 -3 -52h-765q3 -133 71.5 -203.5t213.5 -70.5q89 0 164 24t162 78l96 -211q-107 -64 -212 -92t-225 -28q-139 0 -246 42t-180.5 120.5t-111.5 189.5 t-38 247zM391 1496l246 123l287 -237l-174 -94zM504 670h492q0 59 -13 111t-40.5 91t-72.5 61t-110 22q-119 0 -187.5 -74.5t-68.5 -210.5z" />
<glyph unicode="&#xe9;" horiz-adv-x="1469" d="M198 574q0 157 45.5 271t121.5 188t178 109.5t215 35.5q127 0 222.5 -44.5t160.5 -123.5t98 -191t33 -245v-44q0 -20 -3 -52h-765q3 -133 71.5 -203.5t213.5 -70.5q89 0 164 24t162 78l96 -211q-107 -64 -212 -92t-225 -28q-139 0 -246 42t-180.5 120.5t-111.5 189.5 t-38 247zM504 670h492q0 59 -13 111t-40.5 91t-72.5 61t-110 22q-119 0 -187.5 -74.5t-68.5 -210.5zM599 1385l287 234l246 -123l-360 -205z" />
<glyph unicode="&#xea;" horiz-adv-x="1469" d="M198 574q0 157 45.5 271t121.5 188t178 109.5t215 35.5q127 0 222.5 -44.5t160.5 -123.5t98 -191t33 -245v-44q0 -20 -3 -52h-765q3 -133 71.5 -203.5t213.5 -70.5q89 0 164 24t162 78l96 -211q-107 -64 -212 -92t-225 -28q-139 0 -246 42t-180.5 120.5t-111.5 189.5 t-38 247zM413 1419l338 199l338 -199l-100 -142l-236 130l-236 -134zM504 670h492q0 59 -13 111t-40.5 91t-72.5 61t-110 22q-119 0 -187.5 -74.5t-68.5 -210.5z" />
<glyph unicode="&#xeb;" horiz-adv-x="1469" d="M198 574q0 157 45.5 271t121.5 188t178 109.5t215 35.5q127 0 222.5 -44.5t160.5 -123.5t98 -191t33 -245v-44q0 -20 -3 -52h-765q3 -133 71.5 -203.5t213.5 -70.5q89 0 164 24t162 78l96 -211q-107 -64 -212 -92t-225 -28q-139 0 -246 42t-180.5 120.5t-111.5 189.5 t-38 247zM350 1440q0 34 12 61.5t33 48.5t48.5 33t61.5 12q31 0 59.5 -12t49 -33t32.5 -48.5t12 -61.5q0 -31 -12 -58.5t-32.5 -48t-49 -33t-59.5 -12.5q-34 0 -61.5 12.5t-48.5 33t-33 48t-12 58.5zM504 670h492q0 59 -13 111t-40.5 91t-72.5 61t-110 22 q-119 0 -187.5 -74.5t-68.5 -210.5zM860 1440q0 34 13 61.5t32.5 48.5t49.5 33t61 12q33 0 60 -12t48.5 -33t32.5 -48.5t11 -61.5q0 -31 -11 -58.5t-32.5 -48t-49 -33t-59.5 -12.5q-31 0 -61 12.5t-49.5 33t-32.5 48t-13 58.5z" />
<glyph unicode="&#xec;" horiz-adv-x="786" d="M29 1496l246 123l287 -237l-174 -94zM241 0v1156h300v-1156h-300z" />
<glyph unicode="&#xed;" horiz-adv-x="786" d="M238 1385l287 234l246 -123l-360 -205zM241 0v1156h300v-1156h-300z" />
<glyph unicode="&#xee;" horiz-adv-x="786" d="M58 1419l338 199l338 -199l-100 -142l-236 130l-236 -134zM241 0v1156h300v-1156h-300z" />
<glyph unicode="&#xef;" horiz-adv-x="786" d="M-17 1440q0 34 12 61.5t33 48.5t48.5 33t61.5 12q31 0 59.5 -12t49 -33t32.5 -48.5t12 -61.5q0 -31 -12 -58.5t-32.5 -48t-49 -33t-59.5 -12.5q-34 0 -61.5 12.5t-48.5 33t-33 48t-12 58.5zM241 0v1156h300v-1156h-300zM493 1440q0 34 13 61.5t32.5 48.5t49.5 33t61 12 q33 0 60 -12t48.5 -33t32.5 -48.5t11 -61.5q0 -31 -11 -58.5t-32.5 -48t-49 -33t-59.5 -12.5q-31 0 -61 12.5t-49.5 33t-32.5 48t-13 58.5z" />
<glyph unicode="&#xf0;" d="M198 577q0 -279 147 -440.5t416 -161.5q287 1 425 173t138 429q-1 197 -50 384t-172 435l136 62l-68 146l-142 -67q-16 28 -32 58t-33 61l-196 -97q13 -27 27 -56t29 -62l-93 -44l61 -145l96 44q24 -58 44.5 -112.5t35.5 -100.5q-42 45 -101.5 70t-128.5 25 q-259 0 -399 -164t-140 -437zM504 577q0 201 64 281t193 80q136 0 196.5 -85.5t60.5 -275.5q0 -198 -61.5 -285t-192.5 -87q-130 0 -195 83.5t-65 288.5z" />
<glyph unicode="&#xf1;" horiz-adv-x="1523" d="M255 0v1156h260l21 -129h4q59 86 142 118.5t188 32.5q116 0 192.5 -34.5t122 -99t65 -155.5t19.5 -203v-686h-299v649q0 59 -5 110t-24 88.5t-58 58t-105 20.5q-116 0 -170.5 -57t-54.5 -177v-692h-298zM374 1393q45 107 95 154.5t133 47.5q44 0 84.5 -16t78 -36 t74.5 -36t69 -16q74 0 115 104l139 -92q-33 -98 -94.5 -150t-137.5 -52q-48 0 -90 16.5t-78.5 35t-72 34.5t-66.5 16q-38 0 -65 -24t-47 -82z" />
<glyph unicode="&#xf2;" d="M198 577q0 127 32.5 237t101 191t175.5 127t254 46q140 0 245.5 -42.5t176 -121t106 -189.5t35.5 -248q0 -133 -34.5 -244t-104.5 -190t-175.5 -123.5t-248.5 -44.5t-248.5 43.5t-175.5 123.5t-104.5 190.5t-34.5 244.5zM375 1496l246 123l287 -237l-174 -94zM504 577 q0 -85 12 -154t41.5 -117.5t79.5 -74.5t127 -26q75 0 123.5 26t77.5 74.5t41 117.5t12 154q0 81 -11 147.5t-40 113.5t-78.5 73.5t-127.5 26.5q-76 0 -126.5 -26.5t-79.5 -73.5t-40 -113.5t-11 -147.5z" />
<glyph unicode="&#xf3;" d="M198 577q0 127 32.5 237t101 191t175.5 127t254 46q140 0 245.5 -42.5t176 -121t106 -189.5t35.5 -248q0 -133 -34.5 -244t-104.5 -190t-175.5 -123.5t-248.5 -44.5t-248.5 43.5t-175.5 123.5t-104.5 190.5t-34.5 244.5zM504 577q0 -85 12 -154t41.5 -117.5t79.5 -74.5 t127 -26q75 0 123.5 26t77.5 74.5t41 117.5t12 154q0 81 -11 147.5t-40 113.5t-78.5 73.5t-127.5 26.5q-76 0 -126.5 -26.5t-79.5 -73.5t-40 -113.5t-11 -147.5zM583 1385l287 234l246 -123l-360 -205z" />
<glyph unicode="&#xf4;" d="M198 577q0 127 32.5 237t101 191t175.5 127t254 46q140 0 245.5 -42.5t176 -121t106 -189.5t35.5 -248q0 -133 -34.5 -244t-104.5 -190t-175.5 -123.5t-248.5 -44.5t-248.5 43.5t-175.5 123.5t-104.5 190.5t-34.5 244.5zM417 1419l338 199l338 -199l-100 -142l-236 130 l-236 -134zM504 577q0 -85 12 -154t41.5 -117.5t79.5 -74.5t127 -26q75 0 123.5 26t77.5 74.5t41 117.5t12 154q0 81 -11 147.5t-40 113.5t-78.5 73.5t-127.5 26.5q-76 0 -126.5 -26.5t-79.5 -73.5t-40 -113.5t-11 -147.5z" />
<glyph unicode="&#xf5;" d="M198 577q0 127 32.5 237t101 191t175.5 127t254 46q140 0 245.5 -42.5t176 -121t106 -189.5t35.5 -248q0 -133 -34.5 -244t-104.5 -190t-175.5 -123.5t-248.5 -44.5t-248.5 43.5t-175.5 123.5t-104.5 190.5t-34.5 244.5zM365 1393q45 107 95 154.5t133 47.5 q44 0 84.5 -16t78 -36t74.5 -36t69 -16q74 0 115 104l139 -92q-33 -98 -94.5 -150t-137.5 -52q-48 0 -90 16.5t-78.5 35t-72 34.5t-66.5 16q-38 0 -65 -24t-47 -82zM504 577q0 -85 12 -154t41.5 -117.5t79.5 -74.5t127 -26q75 0 123.5 26t77.5 74.5t41 117.5t12 154 q0 81 -11 147.5t-40 113.5t-78.5 73.5t-127.5 26.5q-76 0 -126.5 -26.5t-79.5 -73.5t-40 -113.5t-11 -147.5z" />
<glyph unicode="&#xf6;" d="M198 577q0 127 32.5 237t101 191t175.5 127t254 46q140 0 245.5 -42.5t176 -121t106 -189.5t35.5 -248q0 -133 -34.5 -244t-104.5 -190t-175.5 -123.5t-248.5 -44.5t-248.5 43.5t-175.5 123.5t-104.5 190.5t-34.5 244.5zM354 1441q0 34 12 61.5t33 48.5t48.5 33t61.5 12 q31 0 59.5 -12t49 -33t32.5 -48.5t12 -61.5q0 -31 -12 -58.5t-32.5 -48t-49 -33t-59.5 -12.5q-34 0 -61.5 12.5t-48.5 33t-33 48t-12 58.5zM504 577q0 -85 12 -154t41.5 -117.5t79.5 -74.5t127 -26q75 0 123.5 26t77.5 74.5t41 117.5t12 154q0 81 -11 147.5t-40 113.5 t-78.5 73.5t-127.5 26.5q-76 0 -126.5 -26.5t-79.5 -73.5t-40 -113.5t-11 -147.5zM864 1441q0 34 13 61.5t32.5 48.5t49.5 33t61 12q33 0 60 -12t48.5 -33t32.5 -48.5t11 -61.5q0 -31 -11 -58.5t-32.5 -48t-49 -33t-59.5 -12.5q-31 0 -61 12.5t-49.5 33t-32.5 48t-13 58.5z " />
<glyph unicode="&#xf8;" d="M173 79l114 130q-47 75 -68 169t-21 199q0 127 32.5 237.5t101 192t174.5 128t254 46.5q92 0 169.5 -20t141.5 -61l120 130l141 -123l-118 -133q58 -75 84 -178.5t26 -218.5q0 -133 -34.5 -244t-104.5 -190t-176.5 -123.5t-248.5 -44.5q-103 0 -189 24t-157 76l-113 -127 zM504 577q0 -31 2 -73t10 -73l399 466q-25 24 -71 32.5t-84 8.5q-76 0 -126.5 -26.5t-79 -73.5t-39.5 -113.5t-11 -147.5zM581 274q31 -35 78.5 -52t101.5 -17q75 0 124.5 26t79 74.5t41.5 117.5t12 154q0 42 -3.5 93t-14.5 87z" />
<glyph unicode="&#xf9;" horiz-adv-x="1504" d="M255 427v729h298v-627q0 -68 3.5 -124.5t22 -97t56.5 -63t106 -22.5q64 0 105 16.5t64 48t32.5 77.5t9.5 106v686h298v-1156h-267l-18 124h-5q-50 -72 -128 -112t-193 -40q-95 0 -166 23t-120 76t-73.5 141t-24.5 215zM396 1496l246 123l287 -237l-174 -94z" />
<glyph unicode="&#xfa;" horiz-adv-x="1504" d="M255 427v729h298v-627q0 -68 3.5 -124.5t22 -97t56.5 -63t106 -22.5q64 0 105 16.5t64 48t32.5 77.5t9.5 106v686h298v-1156h-267l-18 124h-5q-50 -72 -128 -112t-193 -40q-95 0 -166 23t-120 76t-73.5 141t-24.5 215zM585 1385l287 234l246 -123l-360 -205z" />
<glyph unicode="&#xfb;" horiz-adv-x="1504" d="M255 427v729h298v-627q0 -68 3.5 -124.5t22 -97t56.5 -63t106 -22.5q64 0 105 16.5t64 48t32.5 77.5t9.5 106v686h298v-1156h-267l-18 124h-5q-50 -72 -128 -112t-193 -40q-95 0 -166 23t-120 76t-73.5 141t-24.5 215zM428 1419l338 199l338 -199l-100 -142l-236 130 l-236 -134z" />
<glyph unicode="&#xfc;" horiz-adv-x="1504" d="M255 427v729h298v-627q0 -68 3.5 -124.5t22 -97t56.5 -63t106 -22.5q64 0 105 16.5t64 48t32.5 77.5t9.5 106v686h298v-1156h-267l-18 124h-5q-50 -72 -128 -112t-193 -40q-95 0 -166 23t-120 76t-73.5 141t-24.5 215zM344 1440q0 34 12 61.5t33 48.5t48.5 33t61.5 12 q31 0 59.5 -12t49 -33t32.5 -48.5t12 -61.5q0 -31 -12 -58.5t-32.5 -48t-49 -33t-59.5 -12.5q-34 0 -61.5 12.5t-48.5 33t-33 48t-12 58.5zM854 1440q0 34 13 61.5t32.5 48.5t49.5 33t61 12q33 0 60 -12t48.5 -33t32.5 -48.5t11 -61.5q0 -31 -11 -58.5t-32.5 -48t-49 -33 t-59.5 -12.5q-31 0 -61 12.5t-49.5 33t-32.5 48t-13 58.5z" />
<glyph unicode="&#xfd;" horiz-adv-x="1359" d="M113 1156h318l261 -824h5l245 824h318l-423 -1156q-48 -127 -89 -213.5t-91 -139.5t-117.5 -75.5t-166.5 -22.5q-37 0 -74 2t-94 9v249q18 -3 49.5 -5t72.5 -2q42 0 71 6.5t49 23.5t34.5 45t30.5 71l24 65zM545 1385l287 234l246 -123l-360 -205z" />
<glyph unicode="&#xfe;" horiz-adv-x="1510" d="M255 -436v1971h298v-478h3q41 55 113 88t174 33q129 0 218.5 -50t145.5 -133t81 -189t25 -219q0 -115 -25.5 -225t-81.5 -196.5t-147.5 -138.5t-222.5 -52q-48 0 -87 7t-73 23t-63 42.5t-56 65.5h-4v-549h-298zM553 464q0 -58 8.5 -106t34 -84t67 -56t104.5 -20 q79 0 126.5 37t72.5 92.5t33 123.5t8 130q0 66 -6.5 132t-30.5 118t-71.5 84.5t-129.5 32.5q-106 0 -163 -54.5t-53 -162.5v-267z" />
<glyph unicode="&#xff;" horiz-adv-x="1359" d="M113 1156h318l261 -824h5l245 824h318l-423 -1156q-48 -127 -89 -213.5t-91 -139.5t-117.5 -75.5t-166.5 -22.5q-37 0 -74 2t-94 9v249q18 -3 49.5 -5t72.5 -2q42 0 71 6.5t49 23.5t34.5 45t30.5 71l24 65zM293 1440q0 34 12 61.5t33 48.5t48.5 33t61.5 12q31 0 59.5 -12 t49 -33t32.5 -48.5t12 -61.5q0 -31 -12 -58.5t-32.5 -48t-49 -33t-59.5 -12.5q-34 0 -61.5 12.5t-48.5 33t-33 48t-12 58.5zM803 1440q0 34 13 61.5t32.5 48.5t49.5 33t61 12q33 0 60 -12t48.5 -33t32.5 -48.5t11 -61.5q0 -31 -11 -58.5t-32.5 -48t-49 -33t-59.5 -12.5 q-31 0 -61 12.5t-49.5 33t-32.5 48t-13 58.5z" />
<glyph unicode="&#x152;" horiz-adv-x="2374" d="M198 709q0 180 48 315.5t137 227.5t215 138.5t282 46.5q115 0 214.5 -38t164.5 -115v130h912v-254h-608v-301h549v-258h-549v-351h628v-250h-932v133q-27 -34 -68 -62.5t-91.5 -48t-107 -31t-112.5 -11.5q-154 0 -280 45.5t-215 136.5t-138 227.5t-49 319.5zM511 709 q0 -109 19 -198.5t62.5 -152t114.5 -96.5t173 -34q103 0 173 34.5t114 97.5t63 151.5t19 197.5t-18.5 197t-61.5 150.5t-113 96.5t-173 34t-175 -34t-115.5 -97t-62.5 -151.5t-19 -195.5z" />
<glyph unicode="&#x153;" horiz-adv-x="2261" d="M198 562q0 129 33 237t102 185.5t173 120.5t245 43q262 0 400 -164q72 85 175.5 124.5t219.5 39.5q122 0 218 -40t162.5 -116.5t102 -187.5t35.5 -251q0 -17 -1 -38t-4 -57h-759q6 -124 77 -187t204 -63q83 0 159 24t157 71l94 -210q-105 -61 -205.5 -89.5t-215.5 -28.5 q-139 0 -240 43t-174 125q-68 -81 -168.5 -124.5t-236.5 -43.5t-240 41t-173 117t-104.5 185t-35.5 244zM501 562q0 -184 59 -268.5t191 -84.5q129 0 187.5 84.5t58.5 268.5q0 81 -11.5 144t-39.5 108t-75.5 68t-119.5 23q-74 0 -122 -23t-77 -68t-40 -108.5t-11 -143.5z M1301 662h491q-4 57 -18.5 104t-42.5 82.5t-72.5 55.5t-109.5 20q-119 0 -183.5 -66.5t-64.5 -195.5z" />
<glyph unicode="&#x178;" horiz-adv-x="1436" d="M71 1414h349l300 -599l314 599h332l-496 -864v-550h-304v545zM329 1695q0 34 12 61.5t33 48.5t48.5 33t61.5 12q31 0 59.5 -12t49 -33t32.5 -48.5t12 -61.5q0 -31 -12 -58.5t-32.5 -48t-49 -33t-59.5 -12.5q-34 0 -61.5 12.5t-48.5 33t-33 48t-12 58.5zM839 1695 q0 34 13 61.5t32.5 48.5t49.5 33t61 12q33 0 60 -12t48.5 -33t32.5 -48.5t11 -61.5q0 -31 -11 -58.5t-32.5 -48t-49 -33t-59.5 -12.5q-31 0 -61 12.5t-49.5 33t-32.5 48t-13 58.5z" />
<glyph unicode="&#x2c6;" horiz-adv-x="861" d="M86 1419l338 199l338 -199l-100 -142l-236 130l-236 -134z" />
<glyph unicode="&#x2dc;" horiz-adv-x="896" d="M61 1393q45 107 95 154.5t133 47.5q44 0 84.5 -16t78 -36t74.5 -36t69 -16q74 0 115 104l139 -92q-33 -98 -94.5 -150t-137.5 -52q-48 0 -90 16.5t-78.5 35t-72 34.5t-66.5 16q-38 0 -65 -24t-47 -82z" />
<glyph unicode="&#x2000;" horiz-adv-x="967" />
<glyph unicode="&#x2001;" horiz-adv-x="1935" />
<glyph unicode="&#x2002;" horiz-adv-x="967" />
<glyph unicode="&#x2003;" horiz-adv-x="1935" />
<glyph unicode="&#x2004;" horiz-adv-x="645" />
<glyph unicode="&#x2005;" horiz-adv-x="483" />
<glyph unicode="&#x2006;" horiz-adv-x="322" />
<glyph unicode="&#x2007;" horiz-adv-x="322" />
<glyph unicode="&#x2008;" horiz-adv-x="241" />
<glyph unicode="&#x2009;" horiz-adv-x="387" />
<glyph unicode="&#x200a;" horiz-adv-x="107" />
<glyph unicode="&#x2010;" horiz-adv-x="999" d="M212 491v261h576v-261h-576z" />
<glyph unicode="&#x2011;" horiz-adv-x="999" d="M212 491v261h576v-261h-576z" />
<glyph unicode="&#x2012;" horiz-adv-x="999" d="M212 491v261h576v-261h-576z" />
<glyph unicode="&#x2013;" horiz-adv-x="1381" d="M198 601v241h986v-241h-986z" />
<glyph unicode="&#x2014;" horiz-adv-x="2367" d="M198 509v234h1972v-234h-1972z" />
<glyph unicode="&#x2018;" horiz-adv-x="751" d="M127 974l221 510h205l-100 -510h-326z" />
<glyph unicode="&#x2019;" horiz-adv-x="752" d="M198 974l100 510h327l-223 -510h-204z" />
<glyph unicode="&#x201a;" horiz-adv-x="738" d="M113 -361l101 510h326l-223 -510h-204z" />
<glyph unicode="&#x201c;" horiz-adv-x="1263" d="M127 974l222 510h204l-100 -510h-326zM639 974l222 510h204l-99 -510h-327z" />
<glyph unicode="&#x201d;" horiz-adv-x="1264" d="M198 974l99 510h327l-221 -510h-205zM711 974l99 510h327l-222 -510h-204z" />
<glyph unicode="&#x201e;" horiz-adv-x="1250" d="M113 -361l99 510h327l-221 -510h-205zM627 -361l99 510h326l-222 -510h-203z" />
<glyph unicode="&#x2022;" horiz-adv-x="1410" d="M354 697q0 74 27.5 137.5t75 111.5t111.5 75.5t138 27.5t138 -27.5t111.5 -75.5t74.5 -111.5t27 -137.5t-27 -138t-74.5 -111.5t-112 -75t-137.5 -27.5q-74 0 -138 27.5t-111.5 75t-75 112t-27.5 137.5z" />
<glyph unicode="&#x2026;" horiz-adv-x="1932" d="M198 122q0 31 13.5 56.5t37.5 44.5t56.5 29.5t69.5 10.5q35 0 67 -10.5t55 -29.5t36.5 -44.5t13.5 -56.5q1 -31 -11.5 -58t-35.5 -46t-55 -30.5t-69 -11.5q-38 0 -70.5 10.5t-56.5 30.5t-37.5 46t-13.5 59zM792 122q0 31 13.5 56.5t37.5 44.5t56 29.5t68 10.5 q74 0 124 -39.5t50 -101.5q0 -64 -49.5 -105t-124.5 -41q-37 0 -68.5 10.5t-55.5 30.5t-37.5 46t-13.5 59zM1385 122q0 31 14 56.5t37.5 44.5t55 29.5t68.5 10.5q76 0 125 -39.5t49 -101.5q0 -31 -12.5 -58t-36 -46t-54.5 -30.5t-68 -11.5t-69.5 10.5t-56.5 30.5t-38 46 t-14 59z" />
<glyph unicode="&#x202f;" horiz-adv-x="387" />
<glyph unicode="&#x2039;" horiz-adv-x="763" d="M156 635l250 429l202 -102l-198 -328l198 -328l-202 -101z" />
<glyph unicode="&#x203a;" horiz-adv-x="763" d="M156 306l195 328l-195 328l202 102l250 -429l-250 -430z" />
<glyph unicode="&#x205f;" horiz-adv-x="483" />
<glyph unicode="&#x20ac;" horiz-adv-x="1579" d="M127 472l43 152h124q-1 24 -1 45v47v31q0 17 1 35h-143l44 153h116q21 116 68 208.5t122 157.5t179 100.5t239 35.5q79 0 149.5 -13.5t134 -42.5t123.5 -73t122 -104l-176 -191q-78 92 -167 133.5t-186 41.5q-133 0 -204 -63t-98 -190h531l-45 -153h-506l-2 -32v-36v-46 q0 -21 2 -44h491l-43 -152h-426q13 -57 34.5 -102.5t56.5 -79t85.5 -51t118.5 -17.5q206 0 383 177l156 -200q-123 -117 -248.5 -172t-278.5 -55q-144 0 -250 35t-180.5 100.5t-119 158t-65.5 206.5h-184z" />
<glyph unicode="&#x2122;" horiz-adv-x="1626" d="M198 1356v128h495v-128h-173v-432h-149v432h-173zM809 924v560h133l180 -262l174 262h133v-560h-146v301l-161 -232l-166 232v-301h-147z" />
<glyph unicode="&#x25fc;" horiz-adv-x="1152" d="M0 0v1153h1153v-1153h-1153z" />
</font>
</defs>
</svg>
